<?xml version="1.0" encoding="UTF-8" standalone="no"?>
<!DOCTYPE svg PUBLIC "-//W3C//DTD SVG 1.1//EN" "http://www.w3.org/Graphics/SVG/1.1/DTD/svg11.dtd">
<svg width="100%" height="100%" viewBox="0 0 1200 300" version="1.1" xmlns="http://www.w3.org/2000/svg" xmlns:xlink="http://www.w3.org/1999/xlink" xml:space="preserve" xmlns:serif="http://www.serif.com/" style="fill-rule:evenodd;clip-rule:evenodd;stroke-linejoin:round;stroke-miterlimit:2;">
    <g transform="matrix(1,0,0,1,-4581.88,1199.94)">
        <g>
            <g transform="matrix(4.28208,0,0,2.41935,-17191.5,730.705)">
                <rect x="5084.76" y="-798" width="280.238" height="124"/>
            </g>
            <g transform="matrix(2.82645,0,-4.16547e-32,2.82645,4533.26,-1307.01)">
                <g>
                    <g>
                        <g>
                            <g>
                                <g transform="matrix(1,0,0,1,-3.63798e-12,-911.419)">
                                    <path d="M97.283,1018.59L89.722,1022.3L89.722,994.423L97.283,990.713L97.283,1018.59ZM107.548,1013.55L99.987,1017.26L99.987,989.383L107.543,985.673L107.548,985.673L107.548,1013.55ZM110.252,1012.22L110.252,984.343L117.813,980.633L117.813,1008.51L110.252,1012.22Z" style="fill:white;"/>
                                </g>
                                <g transform="matrix(1,0,0,1,-3.63798e-12,-911.436)">
                                    <path d="M87.086,1014.8L87.086,1022.3L59.03,1008.53L59.03,1001.03L87.086,1014.8ZM87.086,1004.61L87.086,1012.11L59.03,998.34L59.03,990.84L87.086,1004.61ZM87.086,994.42L87.086,1001.93L59.03,988.16L59.03,980.65L87.086,994.42Z" style="fill:rgb(255,149,0);"/>
                                </g>
                            </g>
                        </g>
                        <g>
                            <g>
                                <g transform="matrix(1,0,0,1,-3.63798e-12,-858.817)">
                                    <path d="M147.814,980.526L147.814,969.805L144.067,969.805L141.727,975.403L139.387,969.805L135.64,969.805L135.64,980.526L138.729,980.526L138.729,974.653L140.565,979.486L142.889,979.486L144.725,974.653L144.725,980.526L147.814,980.526Z" style="fill:white;fill-rule:nonzero;"/>
                                </g>
                                <g transform="matrix(1,0,0,1,-3.63798e-12,-858.817)">
                                    <path d="M157.25,979.012L157.786,980.526L161.563,980.526L157.205,969.805L153.565,969.805L149.038,980.526L152.678,980.526L153.228,979.012L157.25,979.012ZM156.379,976.473L154.146,976.473L155.278,973.338L156.379,976.473Z" style="fill:white;fill-rule:nonzero;"/>
                                </g>
                                <g transform="matrix(1,0,0,1,-3.63798e-12,-858.771)">
                                    <path d="M169.409,974.837L169.409,977.33C168.889,977.544 168.369,977.681 168.002,977.681C166.61,977.681 165.586,976.611 165.586,975.127C165.586,973.674 166.595,972.604 167.972,972.604C168.859,972.604 169.899,973.047 170.617,973.736L172.621,971.304C171.474,970.294 169.654,969.652 167.987,969.652C164.484,969.652 161.946,971.961 161.946,975.127C161.946,978.308 164.393,980.633 167.757,980.633C169.287,980.633 171.26,980.052 172.453,979.257L172.453,974.837L169.409,974.837Z" style="fill:white;fill-rule:nonzero;"/>
                                </g>
                                <g transform="matrix(1,0,0,1,-3.63798e-12,-858.817)">
                                    <path d="M181.675,979.012L182.21,980.526L185.988,980.526L181.629,969.805L177.989,969.805L173.462,980.526L177.102,980.526L177.653,979.012L181.675,979.012ZM180.803,976.473L178.57,976.473L179.702,973.338L180.803,976.473Z" style="fill:white;fill-rule:nonzero;"/>
                                </g>
                                <g transform="matrix(1,0,0,1,-3.63798e-12,-858.817)">
                                    <path d="M196.48,972.023L196.48,969.805L186.936,969.805L186.936,972.527L191.754,972.527L186.753,978.309L186.753,980.526L196.587,980.526L196.587,977.804L191.478,977.804L196.48,972.023Z" style="fill:white;fill-rule:nonzero;"/>
                                </g>
                                <g transform="matrix(1,0,0,1,-3.63798e-12,-858.817)">
                                    <rect x="198.269" y="969.805" width="3.548" height="10.721" style="fill:white;"/>
                                </g>
                                <g transform="matrix(1,0,0,1,-3.63798e-12,-858.817)">
                                    <path d="M214.374,980.526L214.374,969.805L211.162,969.805L211.162,975.311L206.925,969.805L203.958,969.805L203.958,980.526L207.185,980.526L207.185,975.051L211.407,980.526L214.374,980.526Z" style="fill:white;fill-rule:nonzero;"/>
                                </g>
                                <g transform="matrix(1,0,0,1,-3.63798e-12,-858.817)">
                                    <path d="M225.584,972.497L225.584,969.805L216.515,969.805L216.515,980.526L225.722,980.526L225.722,977.834L220.063,977.834L220.063,976.504L225.079,976.504L225.079,973.812L220.063,973.812L220.063,972.497L225.584,972.497Z" style="fill:white;fill-rule:nonzero;"/>
                                </g>
                            </g>
                            <g transform="matrix(1.69076,0,0,1.98573,-47375.6,-17092.6)">
                                <path d="M28158.4,8665.5L28158,8664.62L28157.6,8664.62L28157.6,8665.51L28156.8,8665.51L28156.8,8663.08L28157.9,8663.08C28158.2,8663.08 28158.5,8663.11 28158.7,8663.17C28158.8,8663.23 28159,8663.32 28159.1,8663.44C28159.2,8663.55 28159.2,8663.68 28159.2,8663.84C28159.2,8663.98 28159.2,8664.1 28159.1,8664.22C28159,8664.34 28158.9,8664.43 28158.7,8664.5L28159.3,8665.51L28158.4,8665.5ZM28157.6,8664.1L28158,8664.1C28158.1,8664.1 28158.2,8664.08 28158.3,8664.04C28158.4,8664.01 28158.4,8663.95 28158.4,8663.87C28158.4,8663.81 28158.4,8663.75 28158.3,8663.71C28158.2,8663.67 28158.1,8663.65 28157.9,8663.65L28157.6,8663.65L28157.6,8664.1ZM28157.9,8666.83C28157.5,8666.83 28157.1,8666.77 28156.8,8666.64C28156.4,8666.51 28156.1,8666.33 28155.9,8666.09C28155.6,8665.86 28155.4,8665.6 28155.3,8665.3C28155.1,8665 28155,8664.68 28155,8664.34C28155,8664 28155.1,8663.67 28155.3,8663.37C28155.4,8663.06 28155.6,8662.8 28155.9,8662.57C28156.2,8662.34 28156.5,8662.16 28156.8,8662.03C28157.2,8661.9 28157.5,8661.84 28157.9,8661.84C28158.3,8661.84 28158.7,8661.9 28159,8662.03C28159.4,8662.16 28159.7,8662.34 28160,8662.57C28160.2,8662.8 28160.4,8663.06 28160.6,8663.37C28160.7,8663.67 28160.8,8664 28160.8,8664.34C28160.8,8664.61 28160.8,8664.88 28160.7,8665.13C28160.6,8665.38 28160.4,8665.61 28160.3,8665.81C28160.1,8666.02 28159.9,8666.2 28159.6,8666.35C28159.4,8666.5 28159.1,8666.62 28158.8,8666.71C28158.5,8666.79 28158.2,8666.83 28157.9,8666.83ZM28158,8666.21C28158.3,8666.21 28158.6,8666.16 28158.8,8666.06C28159.1,8665.96 28159.3,8665.83 28159.5,8665.66C28159.7,8665.48 28159.8,8665.28 28159.9,8665.05C28160.1,8664.83 28160.1,8664.59 28160.1,8664.33C28160.1,8664.07 28160,8663.83 28159.9,8663.6C28159.8,8663.38 28159.7,8663.18 28159.5,8663.01C28159.3,8662.83 28159,8662.7 28158.8,8662.59C28158.5,8662.49 28158.2,8662.44 28158,8662.44C28157.7,8662.44 28157.4,8662.49 28157.1,8662.59C28156.9,8662.69 28156.6,8662.82 28156.4,8663C28156.2,8663.17 28156.1,8663.37 28156,8663.6C28155.8,8663.83 28155.8,8664.07 28155.8,8664.34C28155.8,8664.6 28155.8,8664.84 28156,8665.06C28156.1,8665.28 28156.2,8665.48 28156.4,8665.66C28156.6,8665.83 28156.9,8665.96 28157.1,8666.06C28157.4,8666.16 28157.7,8666.21 28158,8666.21Z" style="fill:rgb(255,149,0);fill-rule:nonzero;"/>
                            </g>
                            <g>
                                <g transform="matrix(1,0,0,1,-3.63798e-12,-927.665)">
                                    <path d="M135.617,988.079L135.617,1031.1L157.65,1031.1C167.961,1031.1 174.59,1026.43 174.59,1019.07C174.59,1013.61 171.214,1009.31 165.936,1008.21C170.416,1006.92 173.239,1003.3 173.239,998.939C173.239,992.309 166.795,988.079 156.73,988.079L135.617,988.079ZM148.322,997.649L156.055,997.649C158.571,997.649 160.167,998.999 160.167,1001.21C160.167,1003.48 158.571,1004.96 156.055,1004.96L148.322,1004.96L148.322,997.649ZM148.322,1013.67L156.055,1013.67C159.307,1013.67 161.333,1015.14 161.333,1017.48C161.333,1019.99 159.307,1021.59 156.055,1021.59L148.322,1021.59L148.322,1013.67Z" style="fill:rgb(255,149,0);fill-rule:nonzero;"/>
                                </g>
                                <g transform="matrix(1,0,0,1,-3.63798e-12,-927.667)">
                                    <rect x="182.261" y="988.079" width="12.766" height="43.023" style="fill:rgb(255,149,0);"/>
                                </g>
                                <g transform="matrix(1,0,0,1,-3.63798e-12,-927.665)">
                                    <path d="M235.84,998.269L235.84,988.079L202.76,988.079L202.76,998.269L212.856,998.269L212.856,1031.1L225.683,1031.1L225.683,998.269L235.84,998.269Z" style="fill:rgb(255,149,0);fill-rule:nonzero;"/>
                                </g>
                                <g transform="matrix(1,0,0,1,-3.63798e-12,-927.483)">
                                    <path d="M263.5,987.527C250.182,987.527 240.362,996.797 240.362,1009.32C240.362,1022.02 249.998,1031.47 263.071,1031.47C269.576,1031.47 276.634,1028.22 281.299,1023.18L273.934,1015.33C270.988,1018.34 266.999,1020.3 263.685,1020.3C257.854,1020.3 253.435,1015.52 253.435,1009.19C253.435,1002.87 257.854,998.147 263.685,998.147C267.244,998.147 271.234,1000.42 273.934,1003.85L281.299,995.137C276.941,990.477 270.006,987.527 263.5,987.527Z" style="fill:rgb(255,149,0);fill-rule:nonzero;"/>
                                </g>
                                <g transform="matrix(1,0,0,1,-3.63798e-12,-927.483)">
                                    <path d="M307.935,987.527C294.433,987.527 284.49,996.737 284.49,1009.38C284.49,1022.08 294.433,1031.47 307.935,1031.47C321.437,1031.47 331.38,1022.02 331.38,1009.38C331.38,996.797 321.437,987.527 307.935,987.527ZM308.119,998.207C313.766,998.207 318.307,1002.93 318.307,1009.44C318.307,1015.95 313.766,1020.79 308.119,1020.79C302.473,1020.79 297.563,1015.95 297.563,1009.44C297.563,1002.93 302.411,998.207 308.119,998.207Z" style="fill:rgb(255,149,0);fill-rule:nonzero;"/>
                                </g>
                                <g transform="matrix(1,0,0,1,-3.63798e-12,-927.667)">
                                    <rect x="338.622" y="988.079" width="12.766" height="43.023" style="fill:rgb(255,149,0);"/>
                                </g>
                                <g transform="matrix(1,0,0,1,-3.63798e-12,-927.665)">
                                    <path d="M399.935,1031.1L399.935,988.079L388.274,988.079L388.274,1012.14L370.046,988.079L359.121,988.079L359.121,1031.1L370.843,1031.1L370.843,1007.16L389.071,1031.1L399.935,1031.1Z" style="fill:rgb(255,149,0);fill-rule:nonzero;"/>
                                </g>
                            </g>
                        </g>
                    </g>
                </g>
            </g>
        </g>
    </g>
</svg>
