<?xml version="1.0" encoding="UTF-8" standalone="no"?>
<!DOCTYPE svg PUBLIC "-//W3C//DTD SVG 1.1//EN" "http://www.w3.org/Graphics/SVG/1.1/DTD/svg11.dtd">
<svg width="100%" height="100%" viewBox="0 0 2671 457" version="1.1" xmlns="http://www.w3.org/2000/svg" xmlns:xlink="http://www.w3.org/1999/xlink" xml:space="preserve" xmlns:serif="http://www.serif.com/" style="fill-rule:evenodd;clip-rule:evenodd;stroke-linejoin:round;stroke-miterlimit:2;">
    <g transform="matrix(1,0,0,1,-2220.16,-1539.36)">
        <g transform="matrix(1,0,0,1,-2732.94,-1966.97)">
            <g transform="matrix(1,0,0,1,0.600703,347.969)">
                <g>
                    <g transform="matrix(1.19131,0,0,0.258508,-479.398,2603.35)">
                        <path d="M4942.97,2359.56C4942.97,2303.18 4938.11,2249.12 4929.46,2209.26C4920.81,2169.39 4909.08,2147 4896.85,2147L4605.72,2147C4593.49,2147 4581.76,2169.39 4573.11,2209.26C4564.46,2249.12 4559.6,2303.18 4559.6,2359.56L4559.6,3701.17C4559.6,3757.54 4564.46,3811.61 4573.11,3851.47C4581.76,3891.33 4593.49,3913.72 4605.72,3913.72C4679.47,3913.72 4823.1,3913.72 4896.85,3913.72C4909.08,3913.72 4920.81,3891.33 4929.46,3851.47C4938.11,3811.61 4942.97,3757.54 4942.97,3701.17L4942.97,2359.56Z" style="fill:rgb(80,51,176);"/>
                    </g>
                    <g transform="matrix(1.19131,0,0,0.258508,73.9728,2603.35)">
                        <path d="M4942.97,2359.56C4942.97,2303.18 4938.11,2249.12 4929.46,2209.26C4920.81,2169.39 4909.08,2147 4896.85,2147C4823.1,2147 4679.47,2147 4605.72,2147C4593.49,2147 4581.76,2169.39 4573.11,2209.26C4564.46,2249.12 4559.6,2303.18 4559.6,2359.56L4559.6,3701.17C4559.6,3757.54 4564.46,3811.61 4573.11,3851.47C4581.76,3891.33 4593.49,3913.72 4605.72,3913.72C4679.47,3913.72 4823.1,3913.72 4896.85,3913.72C4909.08,3913.72 4920.81,3891.33 4929.46,3851.47C4938.11,3811.61 4942.97,3757.54 4942.97,3701.17L4942.97,2359.56Z" style="fill:rgb(39,80,154);"/>
                    </g>
                    <g transform="matrix(1.19131,0,0,0.258508,627.343,2603.35)">
                        <path d="M4942.97,2359.56C4942.97,2303.18 4938.11,2249.12 4929.46,2209.26C4920.81,2169.39 4909.08,2147 4896.85,2147C4823.1,2147 4679.47,2147 4605.72,2147C4593.49,2147 4581.76,2169.39 4573.11,2209.26C4564.46,2249.12 4559.6,2303.18 4559.6,2359.56L4559.6,3701.17C4559.6,3757.54 4564.46,3811.61 4573.11,3851.47C4581.76,3891.33 4593.49,3913.72 4605.72,3913.72C4679.47,3913.72 4823.1,3913.72 4896.85,3913.72C4909.08,3913.72 4920.81,3891.33 4929.46,3851.47C4938.11,3811.61 4942.97,3757.54 4942.97,3701.17L4942.97,2359.56Z" style="fill:rgb(113,80,121);"/>
                    </g>
                    <g transform="matrix(1.19131,0,0,0.258508,1180.71,2603.35)">
                        <path d="M4942.97,2359.56C4942.97,2303.18 4938.11,2249.12 4929.46,2209.26C4920.81,2169.39 4909.08,2147 4896.85,2147C4823.1,2147 4679.47,2147 4605.72,2147C4593.49,2147 4581.76,2169.39 4573.11,2209.26C4564.46,2249.12 4559.6,2303.18 4559.6,2359.56L4559.6,3701.17C4559.6,3757.54 4564.46,3811.61 4573.11,3851.47C4581.76,3891.33 4593.49,3913.72 4605.72,3913.72C4679.47,3913.72 4823.1,3913.72 4896.85,3913.72C4909.08,3913.72 4920.81,3891.33 4929.46,3851.47C4938.11,3811.61 4942.97,3757.54 4942.97,3701.17L4942.97,2359.56Z" style="fill:rgb(218,64,74);"/>
                    </g>
                    <g transform="matrix(1.19131,0,0,0.258508,1734.08,2603.35)">
                        <path d="M4942.97,2359.56C4942.97,2303.18 4938.11,2249.12 4929.46,2209.26C4920.81,2169.39 4909.08,2147 4896.85,2147C4823.1,2147 4679.47,2147 4605.72,2147C4593.49,2147 4581.76,2169.39 4573.11,2209.26C4564.46,2249.12 4559.6,2303.18 4559.6,2359.56L4559.6,3701.17C4559.6,3757.54 4564.46,3811.61 4573.11,3851.47C4581.76,3891.33 4593.49,3913.72 4605.72,3913.72L4896.85,3913.72C4909.08,3913.72 4920.81,3891.33 4929.46,3851.47C4938.11,3811.61 4942.97,3757.54 4942.97,3701.17L4942.97,2359.56Z" style="fill:rgb(243,110,46);"/>
                    </g>
                </g>
                <g transform="matrix(1,0,0,1,-0.600703,-347.969)">
                    <g transform="matrix(1,0,0,1,2740.79,1995.14)">
                        <path d="M2384.4,1735.19C2382.63,1735.19 2381,1734.9 2379.5,1734.34C2377.99,1733.77 2376.69,1732.97 2375.59,1731.93C2374.49,1730.88 2373.63,1729.65 2373.01,1728.24C2372.4,1726.82 2372.1,1725.25 2372.1,1723.54C2372.1,1721.84 2372.4,1720.27 2373.01,1718.85C2373.63,1717.43 2374.49,1716.2 2375.59,1715.16C2376.7,1714.12 2378,1713.32 2379.51,1712.75C2381.01,1712.18 2382.64,1711.9 2384.41,1711.9C2386.47,1711.9 2388.32,1712.26 2389.95,1712.98C2391.59,1713.7 2392.95,1714.74 2394.03,1716.11L2390.01,1719.76C2389.29,1718.91 2388.5,1718.26 2387.62,1717.81C2386.75,1717.36 2385.78,1717.13 2384.72,1717.13C2383.8,1717.13 2382.96,1717.28 2382.2,1717.58C2381.44,1717.88 2380.79,1718.32 2380.24,1718.89C2379.68,1719.45 2379.26,1720.13 2378.95,1720.92C2378.64,1721.71 2378.49,1722.59 2378.49,1723.54C2378.49,1724.5 2378.64,1725.38 2378.95,1726.17C2379.26,1726.96 2379.68,1727.63 2380.24,1728.2C2380.79,1728.77 2381.44,1729.2 2382.2,1729.51C2382.96,1729.81 2383.8,1729.96 2384.72,1729.96C2385.78,1729.96 2386.75,1729.73 2387.62,1729.28C2388.5,1728.83 2389.29,1728.17 2390.01,1727.32L2394.03,1730.96C2392.95,1732.32 2391.59,1733.36 2389.95,1734.09C2388.32,1734.82 2386.47,1735.19 2384.4,1735.19Z" style="fill:white;fill-rule:nonzero;"/>
                        <path d="M2406.82,1735.19C2405.03,1735.19 2403.37,1734.9 2401.85,1734.32C2400.33,1733.75 2399.01,1732.93 2397.9,1731.88C2396.78,1730.84 2395.92,1729.6 2395.3,1728.18C2394.68,1726.77 2394.37,1725.22 2394.37,1723.53C2394.37,1721.85 2394.68,1720.31 2395.3,1718.9C2395.92,1717.49 2396.78,1716.26 2397.9,1715.21C2399.01,1714.15 2400.33,1713.34 2401.85,1712.76C2403.37,1712.19 2405.02,1711.9 2406.81,1711.9C2408.61,1711.9 2410.27,1712.19 2411.78,1712.76C2413.29,1713.34 2414.6,1714.15 2415.71,1715.2C2416.83,1716.25 2417.69,1717.48 2418.31,1718.89C2418.93,1720.3 2419.24,1721.85 2419.24,1723.54C2419.24,1725.22 2418.93,1726.77 2418.31,1728.19C2417.69,1729.61 2416.83,1730.85 2415.71,1731.89C2414.6,1732.94 2413.29,1733.75 2411.78,1734.33C2410.27,1734.9 2408.62,1735.19 2406.82,1735.19ZM2406.81,1729.96C2407.67,1729.96 2408.46,1729.81 2409.19,1729.5C2409.92,1729.2 2410.56,1728.77 2411.11,1728.21C2411.66,1727.64 2412.08,1726.97 2412.39,1726.18C2412.69,1725.39 2412.85,1724.51 2412.85,1723.54C2412.85,1722.57 2412.7,1721.69 2412.39,1720.9C2412.09,1720.12 2411.66,1719.45 2411.11,1718.88C2410.56,1718.32 2409.92,1717.89 2409.19,1717.59C2408.46,1717.28 2407.67,1717.13 2406.81,1717.13C2405.95,1717.13 2405.16,1717.28 2404.43,1717.59C2403.69,1717.89 2403.05,1718.32 2402.5,1718.88C2401.95,1719.45 2401.53,1720.12 2401.22,1720.91C2400.92,1721.69 2400.76,1722.57 2400.76,1723.54C2400.76,1724.51 2400.92,1725.39 2401.22,1726.18C2401.53,1726.97 2401.95,1727.64 2402.5,1728.2C2403.05,1728.77 2403.69,1729.2 2404.42,1729.51C2405.16,1729.81 2405.95,1729.96 2406.81,1729.96Z" style="fill:white;fill-rule:nonzero;"/>
                        <path d="M2422.28,1734.74L2422.28,1712.34L2427.49,1712.34L2436.75,1727.58L2434,1727.58L2443.04,1712.34L2448.26,1712.34L2448.31,1734.74L2442.47,1734.74L2442.42,1721.22L2443.42,1721.22L2436.67,1732.54L2433.86,1732.54L2426.91,1721.22L2428.11,1721.22L2428.11,1734.74L2422.28,1734.74Z" style="fill:white;fill-rule:nonzero;"/>
                        <rect x="2452.87" y="1712.34" width="6.34" height="22.4" style="fill:white;fill-rule:nonzero;"/>
                        <path d="M2462.02,1734.74L2462.02,1712.34L2467.23,1712.34L2479.57,1727.27L2477.11,1727.27L2477.11,1712.34L2483.32,1712.34L2483.32,1734.74L2478.1,1734.74L2465.76,1719.82L2468.23,1719.82L2468.23,1734.74L2462.02,1734.74Z" style="fill:white;fill-rule:nonzero;"/>
                        <path d="M2499.33,1735.19C2497.54,1735.19 2495.9,1734.9 2494.39,1734.34C2492.89,1733.77 2491.58,1732.97 2490.47,1731.93C2489.37,1730.88 2488.51,1729.65 2487.89,1728.24C2487.28,1726.82 2486.98,1725.25 2486.98,1723.54C2486.98,1721.84 2487.28,1720.27 2487.89,1718.85C2488.51,1717.43 2489.37,1716.2 2490.49,1715.16C2491.61,1714.12 2492.93,1713.32 2494.45,1712.75C2495.97,1712.18 2497.64,1711.9 2499.46,1711.9C2501.56,1711.9 2503.44,1712.25 2505.1,1712.95C2506.77,1713.65 2508.15,1714.66 2509.25,1715.98L2505.21,1719.63C2504.44,1718.8 2503.62,1718.17 2502.72,1717.75C2501.83,1717.34 2500.85,1717.13 2499.78,1717.13C2498.82,1717.13 2497.94,1717.28 2497.16,1717.58C2496.37,1717.88 2495.69,1718.32 2495.13,1718.89C2494.57,1719.45 2494.14,1720.13 2493.83,1720.91C2493.52,1721.69 2493.37,1722.57 2493.37,1723.54C2493.37,1724.48 2493.52,1725.35 2493.83,1726.13C2494.14,1726.92 2494.57,1727.6 2495.13,1728.17C2495.69,1728.74 2496.36,1729.18 2497.13,1729.49C2497.9,1729.8 2498.76,1729.96 2499.7,1729.96C2500.64,1729.96 2501.56,1729.8 2502.45,1729.49C2503.34,1729.18 2504.25,1728.65 2505.17,1727.9L2508.73,1732.34C2507.44,1733.26 2505.95,1733.97 2504.28,1734.46C2502.6,1734.94 2500.95,1735.19 2499.33,1735.19ZM2503.12,1731.53L2503.12,1723.07L2508.73,1723.07L2508.73,1732.34L2503.12,1731.53Z" style="fill:white;fill-rule:nonzero;"/>
                        <path d="M2401.5,1767.19C2399.67,1767.19 2397.9,1766.96 2396.21,1766.51C2394.51,1766.05 2393.13,1765.47 2392.07,1764.74L2394.15,1760.05C2395.16,1760.7 2396.32,1761.24 2397.63,1761.64C2398.95,1762.05 2400.25,1762.25 2401.54,1762.25C2402.43,1762.25 2403.13,1762.17 2403.66,1762.02C2404.18,1761.87 2404.57,1761.66 2404.81,1761.38C2405.05,1761.11 2405.18,1760.79 2405.18,1760.43C2405.18,1759.92 2404.95,1759.52 2404.49,1759.23C2404.03,1758.93 2403.42,1758.68 2402.66,1758.49C2401.91,1758.3 2401.09,1758.1 2400.18,1757.91C2399.28,1757.72 2398.38,1757.48 2397.47,1757.18C2396.56,1756.89 2395.73,1756.5 2394.98,1756.02C2394.23,1755.54 2393.62,1754.9 2393.16,1754.12C2392.7,1753.33 2392.47,1752.34 2392.47,1751.14C2392.47,1749.82 2392.83,1748.61 2393.57,1747.51C2394.3,1746.42 2395.4,1745.54 2396.87,1744.89C2398.34,1744.23 2400.18,1743.9 2402.39,1743.9C2403.85,1743.9 2405.28,1744.07 2406.7,1744.39C2408.12,1744.72 2409.39,1745.21 2410.49,1745.86L2408.56,1750.54C2407.49,1749.97 2406.43,1749.54 2405.39,1749.26C2404.34,1748.98 2403.33,1748.84 2402.34,1748.84C2401.47,1748.84 2400.76,1748.93 2400.23,1749.11C2399.7,1749.29 2399.32,1749.53 2399.08,1749.83C2398.85,1750.13 2398.73,1750.46 2398.73,1750.83C2398.73,1751.32 2398.96,1751.71 2399.42,1752C2399.88,1752.29 2400.49,1752.53 2401.24,1752.71C2401.99,1752.89 2402.83,1753.08 2403.73,1753.27C2404.64,1753.45 2405.55,1753.69 2406.45,1753.98C2407.35,1754.28 2408.18,1754.66 2408.93,1755.14C2409.68,1755.62 2410.29,1756.24 2410.75,1757.02C2411.21,1757.8 2411.44,1758.78 2411.44,1759.95C2411.44,1761.26 2411.07,1762.46 2410.34,1763.55C2409.6,1764.65 2408.5,1765.53 2407.03,1766.19C2405.57,1766.86 2403.72,1767.19 2401.5,1767.19Z" style="fill:white;fill-rule:nonzero;"/>
                        <path d="M2424.18,1767.19C2422.39,1767.19 2420.73,1766.9 2419.21,1766.32C2417.69,1765.75 2416.37,1764.93 2415.26,1763.88C2414.14,1762.84 2413.28,1761.6 2412.66,1760.18C2412.04,1758.77 2411.73,1757.22 2411.73,1755.53C2411.73,1753.85 2412.04,1752.31 2412.66,1750.9C2413.28,1749.49 2414.14,1748.26 2415.26,1747.21C2416.38,1746.15 2417.69,1745.34 2419.21,1744.76C2420.73,1744.19 2422.38,1743.9 2424.17,1743.9C2425.97,1743.9 2427.63,1744.19 2429.14,1744.76C2430.65,1745.34 2431.96,1746.15 2433.07,1747.2C2434.19,1748.25 2435.05,1749.48 2435.67,1750.89C2436.29,1752.3 2436.6,1753.85 2436.6,1755.53C2436.6,1757.22 2436.29,1758.77 2435.67,1760.19C2435.05,1761.61 2434.19,1762.85 2433.07,1763.89C2431.96,1764.94 2430.65,1765.75 2429.14,1766.33C2427.63,1766.9 2425.98,1767.19 2424.18,1767.19ZM2424.17,1761.96C2425.03,1761.96 2425.82,1761.81 2426.55,1761.5C2427.28,1761.2 2427.92,1760.77 2428.47,1760.21C2429.02,1759.64 2429.44,1758.97 2429.75,1758.18C2430.05,1757.39 2430.21,1756.51 2430.21,1755.54C2430.21,1754.57 2430.05,1753.69 2429.75,1752.9C2429.45,1752.12 2429.02,1751.44 2428.47,1750.88C2427.92,1750.32 2427.28,1749.89 2426.55,1749.59C2425.82,1749.28 2425.03,1749.13 2424.17,1749.13C2423.31,1749.13 2422.52,1749.28 2421.79,1749.59C2421.05,1749.89 2420.41,1750.32 2419.86,1750.88C2419.32,1751.45 2418.89,1752.12 2418.58,1752.91C2418.28,1753.69 2418.12,1754.57 2418.12,1755.54C2418.12,1756.51 2418.28,1757.39 2418.58,1758.18C2418.89,1758.97 2419.31,1759.64 2419.86,1760.2C2420.41,1760.77 2421.05,1761.2 2421.78,1761.51C2422.52,1761.81 2423.31,1761.96 2424.17,1761.96Z" style="fill:white;fill-rule:nonzero;"/>
                        <path d="M2450.94,1767.19C2449.14,1767.19 2447.49,1766.9 2445.96,1766.32C2444.44,1765.75 2443.12,1764.93 2442.01,1763.88C2440.9,1762.84 2440.03,1761.6 2439.41,1760.18C2438.79,1758.77 2438.48,1757.22 2438.48,1755.53C2438.48,1753.85 2438.79,1752.31 2439.41,1750.9C2440.03,1749.49 2440.9,1748.26 2442.01,1747.21C2443.13,1746.15 2444.44,1745.34 2445.96,1744.76C2447.48,1744.19 2449.13,1743.9 2450.92,1743.9C2452.72,1743.9 2454.38,1744.19 2455.89,1744.76C2457.4,1745.34 2458.71,1746.15 2459.83,1747.2C2460.94,1748.25 2461.8,1749.48 2462.43,1750.89C2463.04,1752.3 2463.35,1753.85 2463.35,1755.53C2463.35,1757.22 2463.04,1758.77 2462.43,1760.19C2461.8,1761.61 2460.94,1762.85 2459.83,1763.89C2458.71,1764.94 2457.4,1765.75 2455.89,1766.33C2454.38,1766.9 2452.73,1767.19 2450.94,1767.19ZM2450.92,1761.96C2451.78,1761.96 2452.57,1761.81 2453.3,1761.5C2454.03,1761.2 2454.67,1760.77 2455.22,1760.21C2455.77,1759.64 2456.2,1758.97 2456.5,1758.18C2456.81,1757.39 2456.96,1756.51 2456.96,1755.54C2456.96,1754.57 2456.81,1753.69 2456.5,1752.9C2456.2,1752.12 2455.77,1751.44 2455.22,1750.88C2454.68,1750.32 2454.04,1749.89 2453.3,1749.59C2452.57,1749.28 2451.78,1749.13 2450.92,1749.13C2450.07,1749.13 2449.27,1749.28 2448.54,1749.59C2447.81,1749.89 2447.16,1750.32 2446.62,1750.88C2446.07,1751.45 2445.64,1752.12 2445.33,1752.91C2445.03,1753.69 2444.88,1754.57 2444.88,1755.54C2444.88,1756.51 2445.03,1757.39 2445.33,1758.18C2445.64,1758.97 2446.07,1759.64 2446.61,1760.2C2447.16,1760.77 2447.8,1761.2 2448.54,1761.51C2449.27,1761.81 2450.06,1761.96 2450.92,1761.96Z" style="fill:white;fill-rule:nonzero;"/>
                        <path d="M2466.39,1766.74L2466.39,1744.34L2471.6,1744.34L2483.94,1759.27L2481.47,1759.27L2481.47,1744.34L2487.68,1744.34L2487.68,1766.74L2482.47,1766.74L2470.13,1751.82L2472.6,1751.82L2472.6,1766.74L2466.39,1766.74Z" style="fill:white;fill-rule:nonzero;"/>
                    </g>
                    <g transform="matrix(1,0,0,1,3294.16,1995.14)">
                        <path d="M2384.4,1735.19C2382.63,1735.19 2381,1734.9 2379.5,1734.34C2377.99,1733.77 2376.69,1732.97 2375.59,1731.93C2374.49,1730.88 2373.63,1729.65 2373.01,1728.24C2372.4,1726.82 2372.1,1725.25 2372.1,1723.54C2372.1,1721.84 2372.4,1720.27 2373.01,1718.85C2373.63,1717.43 2374.49,1716.2 2375.59,1715.16C2376.7,1714.12 2378,1713.32 2379.51,1712.75C2381.01,1712.18 2382.64,1711.9 2384.41,1711.9C2386.47,1711.9 2388.32,1712.26 2389.95,1712.98C2391.59,1713.7 2392.95,1714.74 2394.03,1716.11L2390.01,1719.76C2389.29,1718.91 2388.5,1718.26 2387.62,1717.81C2386.75,1717.36 2385.78,1717.13 2384.72,1717.13C2383.8,1717.13 2382.96,1717.28 2382.2,1717.58C2381.44,1717.88 2380.79,1718.32 2380.24,1718.89C2379.68,1719.45 2379.26,1720.13 2378.95,1720.92C2378.64,1721.71 2378.49,1722.59 2378.49,1723.54C2378.49,1724.5 2378.64,1725.38 2378.95,1726.17C2379.26,1726.96 2379.68,1727.63 2380.24,1728.2C2380.79,1728.77 2381.44,1729.2 2382.2,1729.51C2382.96,1729.81 2383.8,1729.96 2384.72,1729.96C2385.78,1729.96 2386.75,1729.73 2387.62,1729.28C2388.5,1728.83 2389.29,1728.17 2390.01,1727.32L2394.03,1730.96C2392.95,1732.32 2391.59,1733.36 2389.95,1734.09C2388.32,1734.82 2386.47,1735.19 2384.4,1735.19Z" style="fill:white;fill-rule:nonzero;"/>
                        <path d="M2406.82,1735.19C2405.03,1735.19 2403.37,1734.9 2401.85,1734.32C2400.33,1733.75 2399.01,1732.93 2397.9,1731.88C2396.78,1730.84 2395.92,1729.6 2395.3,1728.18C2394.68,1726.77 2394.37,1725.22 2394.37,1723.53C2394.37,1721.85 2394.68,1720.31 2395.3,1718.9C2395.92,1717.49 2396.78,1716.26 2397.9,1715.21C2399.01,1714.15 2400.33,1713.34 2401.85,1712.76C2403.37,1712.19 2405.02,1711.9 2406.81,1711.9C2408.61,1711.9 2410.27,1712.19 2411.78,1712.76C2413.29,1713.34 2414.6,1714.15 2415.71,1715.2C2416.83,1716.25 2417.69,1717.48 2418.31,1718.89C2418.93,1720.3 2419.24,1721.85 2419.24,1723.54C2419.24,1725.22 2418.93,1726.77 2418.31,1728.19C2417.69,1729.61 2416.83,1730.85 2415.71,1731.89C2414.6,1732.94 2413.29,1733.75 2411.78,1734.33C2410.27,1734.9 2408.62,1735.19 2406.82,1735.19ZM2406.81,1729.96C2407.67,1729.96 2408.46,1729.81 2409.19,1729.5C2409.92,1729.2 2410.56,1728.77 2411.11,1728.21C2411.66,1727.64 2412.08,1726.97 2412.39,1726.18C2412.69,1725.39 2412.85,1724.51 2412.85,1723.54C2412.85,1722.57 2412.7,1721.69 2412.39,1720.9C2412.09,1720.12 2411.66,1719.45 2411.11,1718.88C2410.56,1718.32 2409.92,1717.89 2409.19,1717.59C2408.46,1717.28 2407.67,1717.13 2406.81,1717.13C2405.95,1717.13 2405.16,1717.28 2404.43,1717.59C2403.69,1717.89 2403.05,1718.32 2402.5,1718.88C2401.95,1719.45 2401.53,1720.12 2401.22,1720.91C2400.92,1721.69 2400.76,1722.57 2400.76,1723.54C2400.76,1724.51 2400.92,1725.39 2401.22,1726.18C2401.53,1726.97 2401.95,1727.64 2402.5,1728.2C2403.05,1728.77 2403.69,1729.2 2404.42,1729.51C2405.16,1729.81 2405.95,1729.96 2406.81,1729.96Z" style="fill:white;fill-rule:nonzero;"/>
                        <path d="M2422.28,1734.74L2422.28,1712.34L2427.49,1712.34L2436.75,1727.58L2434,1727.58L2443.04,1712.34L2448.26,1712.34L2448.31,1734.74L2442.47,1734.74L2442.42,1721.22L2443.42,1721.22L2436.67,1732.54L2433.86,1732.54L2426.91,1721.22L2428.11,1721.22L2428.11,1734.74L2422.28,1734.74Z" style="fill:white;fill-rule:nonzero;"/>
                        <rect x="2452.87" y="1712.34" width="6.34" height="22.4" style="fill:white;fill-rule:nonzero;"/>
                        <path d="M2462.02,1734.74L2462.02,1712.34L2467.23,1712.34L2479.57,1727.27L2477.11,1727.27L2477.11,1712.34L2483.32,1712.34L2483.32,1734.74L2478.1,1734.74L2465.76,1719.82L2468.23,1719.82L2468.23,1734.74L2462.02,1734.74Z" style="fill:white;fill-rule:nonzero;"/>
                        <path d="M2499.33,1735.19C2497.54,1735.19 2495.9,1734.9 2494.39,1734.34C2492.89,1733.77 2491.58,1732.97 2490.47,1731.93C2489.37,1730.88 2488.51,1729.65 2487.89,1728.24C2487.28,1726.82 2486.98,1725.25 2486.98,1723.54C2486.98,1721.84 2487.28,1720.27 2487.89,1718.85C2488.51,1717.43 2489.37,1716.2 2490.49,1715.16C2491.61,1714.12 2492.93,1713.32 2494.45,1712.75C2495.97,1712.18 2497.64,1711.9 2499.46,1711.9C2501.56,1711.9 2503.44,1712.25 2505.1,1712.95C2506.77,1713.65 2508.15,1714.66 2509.25,1715.98L2505.21,1719.63C2504.44,1718.8 2503.62,1718.17 2502.72,1717.75C2501.83,1717.34 2500.85,1717.13 2499.78,1717.13C2498.82,1717.13 2497.94,1717.28 2497.16,1717.58C2496.37,1717.88 2495.69,1718.32 2495.13,1718.89C2494.57,1719.45 2494.14,1720.13 2493.83,1720.91C2493.52,1721.69 2493.37,1722.57 2493.37,1723.54C2493.37,1724.48 2493.52,1725.35 2493.83,1726.13C2494.14,1726.92 2494.57,1727.6 2495.13,1728.17C2495.69,1728.74 2496.36,1729.18 2497.13,1729.49C2497.9,1729.8 2498.76,1729.96 2499.7,1729.96C2500.64,1729.96 2501.56,1729.8 2502.45,1729.49C2503.34,1729.18 2504.25,1728.65 2505.17,1727.9L2508.73,1732.34C2507.44,1733.26 2505.95,1733.97 2504.28,1734.46C2502.6,1734.94 2500.95,1735.19 2499.33,1735.19ZM2503.12,1731.53L2503.12,1723.07L2508.73,1723.07L2508.73,1732.34L2503.12,1731.53Z" style="fill:white;fill-rule:nonzero;"/>
                        <path d="M2401.5,1767.19C2399.67,1767.19 2397.9,1766.96 2396.21,1766.51C2394.51,1766.05 2393.13,1765.47 2392.07,1764.74L2394.15,1760.05C2395.16,1760.7 2396.32,1761.24 2397.63,1761.64C2398.95,1762.05 2400.25,1762.25 2401.54,1762.25C2402.43,1762.25 2403.13,1762.17 2403.66,1762.02C2404.18,1761.87 2404.57,1761.66 2404.81,1761.38C2405.05,1761.11 2405.18,1760.79 2405.18,1760.43C2405.18,1759.92 2404.95,1759.52 2404.49,1759.23C2404.03,1758.93 2403.42,1758.68 2402.66,1758.49C2401.91,1758.3 2401.09,1758.1 2400.18,1757.91C2399.28,1757.72 2398.38,1757.48 2397.47,1757.18C2396.56,1756.89 2395.73,1756.5 2394.98,1756.02C2394.23,1755.54 2393.62,1754.9 2393.16,1754.12C2392.7,1753.33 2392.47,1752.34 2392.47,1751.14C2392.47,1749.82 2392.83,1748.61 2393.57,1747.51C2394.3,1746.42 2395.4,1745.54 2396.87,1744.89C2398.34,1744.23 2400.18,1743.9 2402.39,1743.9C2403.85,1743.9 2405.28,1744.07 2406.7,1744.39C2408.12,1744.72 2409.39,1745.21 2410.49,1745.86L2408.56,1750.54C2407.49,1749.97 2406.43,1749.54 2405.39,1749.26C2404.34,1748.98 2403.33,1748.84 2402.34,1748.84C2401.47,1748.84 2400.76,1748.93 2400.23,1749.11C2399.7,1749.29 2399.32,1749.53 2399.08,1749.83C2398.85,1750.13 2398.73,1750.46 2398.73,1750.83C2398.73,1751.32 2398.96,1751.71 2399.42,1752C2399.88,1752.29 2400.49,1752.53 2401.24,1752.71C2401.99,1752.89 2402.83,1753.08 2403.73,1753.27C2404.64,1753.45 2405.55,1753.69 2406.45,1753.98C2407.35,1754.28 2408.18,1754.66 2408.93,1755.14C2409.68,1755.62 2410.29,1756.24 2410.75,1757.02C2411.21,1757.8 2411.44,1758.78 2411.44,1759.95C2411.44,1761.26 2411.07,1762.46 2410.34,1763.55C2409.6,1764.65 2408.5,1765.53 2407.03,1766.19C2405.57,1766.86 2403.72,1767.19 2401.5,1767.19Z" style="fill:white;fill-rule:nonzero;"/>
                        <path d="M2424.18,1767.19C2422.39,1767.19 2420.73,1766.9 2419.21,1766.32C2417.69,1765.75 2416.37,1764.93 2415.26,1763.88C2414.14,1762.84 2413.28,1761.6 2412.66,1760.18C2412.04,1758.77 2411.73,1757.22 2411.73,1755.53C2411.73,1753.85 2412.04,1752.31 2412.66,1750.9C2413.28,1749.49 2414.14,1748.26 2415.26,1747.21C2416.38,1746.15 2417.69,1745.34 2419.21,1744.76C2420.73,1744.19 2422.38,1743.9 2424.17,1743.9C2425.97,1743.9 2427.63,1744.19 2429.14,1744.76C2430.65,1745.34 2431.96,1746.15 2433.07,1747.2C2434.19,1748.25 2435.05,1749.48 2435.67,1750.89C2436.29,1752.3 2436.6,1753.85 2436.6,1755.53C2436.6,1757.22 2436.29,1758.77 2435.67,1760.19C2435.05,1761.61 2434.19,1762.85 2433.07,1763.89C2431.96,1764.94 2430.65,1765.75 2429.14,1766.33C2427.63,1766.9 2425.98,1767.19 2424.18,1767.19ZM2424.17,1761.96C2425.03,1761.96 2425.82,1761.81 2426.55,1761.5C2427.28,1761.2 2427.92,1760.77 2428.47,1760.21C2429.02,1759.64 2429.44,1758.97 2429.75,1758.18C2430.05,1757.39 2430.21,1756.51 2430.21,1755.54C2430.21,1754.57 2430.05,1753.69 2429.75,1752.9C2429.45,1752.12 2429.02,1751.44 2428.47,1750.88C2427.92,1750.32 2427.28,1749.89 2426.55,1749.59C2425.82,1749.28 2425.03,1749.13 2424.17,1749.13C2423.31,1749.13 2422.52,1749.28 2421.79,1749.59C2421.05,1749.89 2420.41,1750.32 2419.86,1750.88C2419.32,1751.45 2418.89,1752.12 2418.58,1752.91C2418.28,1753.69 2418.12,1754.57 2418.12,1755.54C2418.12,1756.51 2418.28,1757.39 2418.58,1758.18C2418.89,1758.97 2419.31,1759.64 2419.86,1760.2C2420.41,1760.77 2421.05,1761.2 2421.78,1761.51C2422.52,1761.81 2423.31,1761.96 2424.17,1761.96Z" style="fill:white;fill-rule:nonzero;"/>
                        <path d="M2450.94,1767.19C2449.14,1767.19 2447.49,1766.9 2445.96,1766.32C2444.44,1765.75 2443.12,1764.93 2442.01,1763.88C2440.9,1762.84 2440.03,1761.6 2439.41,1760.18C2438.79,1758.77 2438.48,1757.22 2438.48,1755.53C2438.48,1753.85 2438.79,1752.31 2439.41,1750.9C2440.03,1749.49 2440.9,1748.26 2442.01,1747.21C2443.13,1746.15 2444.44,1745.34 2445.96,1744.76C2447.48,1744.19 2449.13,1743.9 2450.92,1743.9C2452.72,1743.9 2454.38,1744.19 2455.89,1744.76C2457.4,1745.34 2458.71,1746.15 2459.83,1747.2C2460.94,1748.25 2461.8,1749.48 2462.43,1750.89C2463.04,1752.3 2463.35,1753.85 2463.35,1755.53C2463.35,1757.22 2463.04,1758.77 2462.43,1760.19C2461.8,1761.61 2460.94,1762.85 2459.83,1763.89C2458.71,1764.94 2457.4,1765.75 2455.89,1766.33C2454.38,1766.9 2452.73,1767.19 2450.94,1767.19ZM2450.92,1761.96C2451.78,1761.96 2452.57,1761.81 2453.3,1761.5C2454.03,1761.2 2454.67,1760.77 2455.22,1760.21C2455.77,1759.64 2456.2,1758.97 2456.5,1758.18C2456.81,1757.39 2456.96,1756.51 2456.96,1755.54C2456.96,1754.57 2456.81,1753.69 2456.5,1752.9C2456.2,1752.12 2455.77,1751.44 2455.22,1750.88C2454.68,1750.32 2454.04,1749.89 2453.3,1749.59C2452.57,1749.28 2451.78,1749.13 2450.92,1749.13C2450.07,1749.13 2449.27,1749.28 2448.54,1749.59C2447.81,1749.89 2447.16,1750.32 2446.62,1750.88C2446.07,1751.45 2445.64,1752.12 2445.33,1752.91C2445.03,1753.69 2444.88,1754.57 2444.88,1755.54C2444.88,1756.51 2445.03,1757.39 2445.33,1758.18C2445.64,1758.97 2446.07,1759.64 2446.61,1760.2C2447.16,1760.77 2447.8,1761.2 2448.54,1761.51C2449.27,1761.81 2450.06,1761.96 2450.92,1761.96Z" style="fill:white;fill-rule:nonzero;"/>
                        <path d="M2466.39,1766.74L2466.39,1744.34L2471.6,1744.34L2483.94,1759.27L2481.47,1759.27L2481.47,1744.34L2487.68,1744.34L2487.68,1766.74L2482.47,1766.74L2470.13,1751.82L2472.6,1751.82L2472.6,1766.74L2466.39,1766.74Z" style="fill:white;fill-rule:nonzero;"/>
                    </g>
                    <g transform="matrix(1,0,0,1,3847.53,1995.14)">
                        <path d="M2384.4,1735.19C2382.63,1735.19 2381,1734.9 2379.5,1734.34C2377.99,1733.77 2376.69,1732.97 2375.59,1731.93C2374.49,1730.88 2373.63,1729.65 2373.01,1728.24C2372.4,1726.82 2372.1,1725.25 2372.1,1723.54C2372.1,1721.84 2372.4,1720.27 2373.01,1718.85C2373.63,1717.43 2374.49,1716.2 2375.59,1715.16C2376.7,1714.12 2378,1713.32 2379.51,1712.75C2381.01,1712.18 2382.64,1711.9 2384.41,1711.9C2386.47,1711.9 2388.32,1712.26 2389.95,1712.98C2391.59,1713.7 2392.95,1714.74 2394.03,1716.11L2390.01,1719.76C2389.29,1718.91 2388.5,1718.26 2387.62,1717.81C2386.75,1717.36 2385.78,1717.13 2384.72,1717.13C2383.8,1717.13 2382.96,1717.28 2382.2,1717.58C2381.44,1717.88 2380.79,1718.32 2380.24,1718.89C2379.68,1719.45 2379.26,1720.13 2378.95,1720.92C2378.64,1721.71 2378.49,1722.59 2378.49,1723.54C2378.49,1724.5 2378.64,1725.38 2378.95,1726.17C2379.26,1726.96 2379.68,1727.63 2380.24,1728.2C2380.79,1728.77 2381.44,1729.2 2382.2,1729.51C2382.96,1729.81 2383.8,1729.96 2384.72,1729.96C2385.78,1729.96 2386.75,1729.73 2387.62,1729.28C2388.5,1728.83 2389.29,1728.17 2390.01,1727.32L2394.03,1730.96C2392.95,1732.32 2391.59,1733.36 2389.95,1734.09C2388.32,1734.82 2386.47,1735.19 2384.4,1735.19Z" style="fill:white;fill-rule:nonzero;"/>
                        <path d="M2406.82,1735.19C2405.03,1735.19 2403.37,1734.9 2401.85,1734.32C2400.33,1733.75 2399.01,1732.93 2397.9,1731.88C2396.78,1730.84 2395.92,1729.6 2395.3,1728.18C2394.68,1726.77 2394.37,1725.22 2394.37,1723.53C2394.37,1721.85 2394.68,1720.31 2395.3,1718.9C2395.92,1717.49 2396.78,1716.26 2397.9,1715.21C2399.01,1714.15 2400.33,1713.34 2401.85,1712.76C2403.37,1712.19 2405.02,1711.9 2406.81,1711.9C2408.61,1711.9 2410.27,1712.19 2411.78,1712.76C2413.29,1713.34 2414.6,1714.15 2415.71,1715.2C2416.83,1716.25 2417.69,1717.48 2418.31,1718.89C2418.93,1720.3 2419.24,1721.85 2419.24,1723.54C2419.24,1725.22 2418.93,1726.77 2418.31,1728.19C2417.69,1729.61 2416.83,1730.85 2415.71,1731.89C2414.6,1732.94 2413.29,1733.75 2411.78,1734.33C2410.27,1734.9 2408.62,1735.19 2406.82,1735.19ZM2406.81,1729.96C2407.67,1729.96 2408.46,1729.81 2409.19,1729.5C2409.92,1729.2 2410.56,1728.77 2411.11,1728.21C2411.66,1727.64 2412.08,1726.97 2412.39,1726.18C2412.69,1725.39 2412.85,1724.51 2412.85,1723.54C2412.85,1722.57 2412.7,1721.69 2412.39,1720.9C2412.09,1720.12 2411.66,1719.45 2411.11,1718.88C2410.56,1718.32 2409.92,1717.89 2409.19,1717.59C2408.46,1717.28 2407.67,1717.13 2406.81,1717.13C2405.95,1717.13 2405.16,1717.28 2404.43,1717.59C2403.69,1717.89 2403.05,1718.32 2402.5,1718.88C2401.95,1719.45 2401.53,1720.12 2401.22,1720.91C2400.92,1721.69 2400.76,1722.57 2400.76,1723.54C2400.76,1724.51 2400.92,1725.39 2401.22,1726.18C2401.53,1726.97 2401.95,1727.64 2402.5,1728.2C2403.05,1728.77 2403.69,1729.2 2404.42,1729.51C2405.16,1729.81 2405.95,1729.96 2406.81,1729.96Z" style="fill:white;fill-rule:nonzero;"/>
                        <path d="M2422.28,1734.74L2422.28,1712.34L2427.49,1712.34L2436.75,1727.58L2434,1727.58L2443.04,1712.34L2448.26,1712.34L2448.31,1734.74L2442.47,1734.74L2442.42,1721.22L2443.42,1721.22L2436.67,1732.54L2433.86,1732.54L2426.91,1721.22L2428.11,1721.22L2428.11,1734.74L2422.28,1734.74Z" style="fill:white;fill-rule:nonzero;"/>
                        <rect x="2452.87" y="1712.34" width="6.34" height="22.4" style="fill:white;fill-rule:nonzero;"/>
                        <path d="M2462.02,1734.74L2462.02,1712.34L2467.23,1712.34L2479.57,1727.27L2477.11,1727.27L2477.11,1712.34L2483.32,1712.34L2483.32,1734.74L2478.1,1734.74L2465.76,1719.82L2468.23,1719.82L2468.23,1734.74L2462.02,1734.74Z" style="fill:white;fill-rule:nonzero;"/>
                        <path d="M2499.33,1735.19C2497.54,1735.19 2495.9,1734.9 2494.39,1734.34C2492.89,1733.77 2491.58,1732.97 2490.47,1731.93C2489.37,1730.88 2488.51,1729.65 2487.89,1728.24C2487.28,1726.82 2486.98,1725.25 2486.98,1723.54C2486.98,1721.84 2487.28,1720.27 2487.89,1718.85C2488.51,1717.43 2489.37,1716.2 2490.49,1715.16C2491.61,1714.12 2492.93,1713.32 2494.45,1712.75C2495.97,1712.18 2497.64,1711.9 2499.46,1711.9C2501.56,1711.9 2503.44,1712.25 2505.1,1712.95C2506.77,1713.65 2508.15,1714.66 2509.25,1715.98L2505.21,1719.63C2504.44,1718.8 2503.62,1718.17 2502.72,1717.75C2501.83,1717.34 2500.85,1717.13 2499.78,1717.13C2498.82,1717.13 2497.94,1717.28 2497.16,1717.58C2496.37,1717.88 2495.69,1718.32 2495.13,1718.89C2494.57,1719.45 2494.14,1720.13 2493.83,1720.91C2493.52,1721.69 2493.37,1722.57 2493.37,1723.54C2493.37,1724.48 2493.52,1725.35 2493.83,1726.13C2494.14,1726.92 2494.57,1727.6 2495.13,1728.17C2495.69,1728.74 2496.36,1729.18 2497.13,1729.49C2497.9,1729.8 2498.76,1729.96 2499.7,1729.96C2500.64,1729.96 2501.56,1729.8 2502.45,1729.49C2503.34,1729.18 2504.25,1728.65 2505.17,1727.9L2508.73,1732.34C2507.44,1733.26 2505.95,1733.97 2504.28,1734.46C2502.6,1734.94 2500.95,1735.19 2499.33,1735.19ZM2503.12,1731.53L2503.12,1723.07L2508.73,1723.07L2508.73,1732.34L2503.12,1731.53Z" style="fill:white;fill-rule:nonzero;"/>
                        <path d="M2401.5,1767.19C2399.67,1767.19 2397.9,1766.96 2396.21,1766.51C2394.51,1766.05 2393.13,1765.47 2392.07,1764.74L2394.15,1760.05C2395.16,1760.7 2396.32,1761.24 2397.63,1761.64C2398.95,1762.05 2400.25,1762.25 2401.54,1762.25C2402.43,1762.25 2403.13,1762.17 2403.66,1762.02C2404.18,1761.87 2404.57,1761.66 2404.81,1761.38C2405.05,1761.11 2405.18,1760.79 2405.18,1760.43C2405.18,1759.92 2404.95,1759.52 2404.49,1759.23C2404.03,1758.93 2403.42,1758.68 2402.66,1758.49C2401.91,1758.3 2401.09,1758.1 2400.18,1757.91C2399.28,1757.72 2398.38,1757.48 2397.47,1757.18C2396.56,1756.89 2395.73,1756.5 2394.98,1756.02C2394.23,1755.54 2393.62,1754.9 2393.16,1754.12C2392.7,1753.33 2392.47,1752.34 2392.47,1751.14C2392.47,1749.82 2392.83,1748.61 2393.57,1747.51C2394.3,1746.42 2395.4,1745.54 2396.87,1744.89C2398.34,1744.23 2400.18,1743.9 2402.39,1743.9C2403.85,1743.9 2405.28,1744.07 2406.7,1744.39C2408.12,1744.72 2409.39,1745.21 2410.49,1745.86L2408.56,1750.54C2407.49,1749.97 2406.43,1749.54 2405.39,1749.26C2404.34,1748.98 2403.33,1748.84 2402.34,1748.84C2401.47,1748.84 2400.76,1748.93 2400.23,1749.11C2399.7,1749.29 2399.32,1749.53 2399.08,1749.83C2398.85,1750.13 2398.73,1750.46 2398.73,1750.83C2398.73,1751.32 2398.96,1751.71 2399.42,1752C2399.88,1752.29 2400.49,1752.53 2401.24,1752.71C2401.99,1752.89 2402.83,1753.08 2403.73,1753.27C2404.64,1753.45 2405.55,1753.69 2406.45,1753.98C2407.35,1754.28 2408.18,1754.66 2408.93,1755.14C2409.68,1755.62 2410.29,1756.24 2410.75,1757.02C2411.21,1757.8 2411.44,1758.78 2411.44,1759.95C2411.44,1761.26 2411.07,1762.46 2410.34,1763.55C2409.6,1764.65 2408.5,1765.53 2407.03,1766.19C2405.57,1766.86 2403.72,1767.19 2401.5,1767.19Z" style="fill:white;fill-rule:nonzero;"/>
                        <path d="M2424.18,1767.19C2422.39,1767.19 2420.73,1766.9 2419.21,1766.32C2417.69,1765.75 2416.37,1764.93 2415.26,1763.88C2414.14,1762.84 2413.28,1761.6 2412.66,1760.18C2412.04,1758.77 2411.73,1757.22 2411.73,1755.53C2411.73,1753.85 2412.04,1752.31 2412.66,1750.9C2413.28,1749.49 2414.14,1748.26 2415.26,1747.21C2416.38,1746.15 2417.69,1745.34 2419.21,1744.76C2420.73,1744.19 2422.38,1743.9 2424.17,1743.9C2425.97,1743.9 2427.63,1744.19 2429.14,1744.76C2430.65,1745.34 2431.96,1746.15 2433.07,1747.2C2434.19,1748.25 2435.05,1749.48 2435.67,1750.89C2436.29,1752.3 2436.6,1753.85 2436.6,1755.53C2436.6,1757.22 2436.29,1758.77 2435.67,1760.19C2435.05,1761.61 2434.19,1762.85 2433.07,1763.89C2431.96,1764.94 2430.65,1765.75 2429.14,1766.33C2427.63,1766.9 2425.98,1767.19 2424.18,1767.19ZM2424.17,1761.96C2425.03,1761.96 2425.82,1761.81 2426.55,1761.5C2427.28,1761.2 2427.92,1760.77 2428.47,1760.21C2429.02,1759.64 2429.44,1758.97 2429.75,1758.18C2430.05,1757.39 2430.21,1756.51 2430.21,1755.54C2430.21,1754.57 2430.05,1753.69 2429.75,1752.9C2429.45,1752.12 2429.02,1751.44 2428.47,1750.88C2427.92,1750.32 2427.28,1749.89 2426.55,1749.59C2425.82,1749.28 2425.03,1749.13 2424.17,1749.13C2423.31,1749.13 2422.52,1749.28 2421.79,1749.59C2421.05,1749.89 2420.41,1750.32 2419.86,1750.88C2419.32,1751.45 2418.89,1752.12 2418.58,1752.91C2418.28,1753.69 2418.12,1754.57 2418.12,1755.54C2418.12,1756.51 2418.28,1757.39 2418.58,1758.18C2418.89,1758.97 2419.31,1759.64 2419.86,1760.2C2420.41,1760.77 2421.05,1761.2 2421.78,1761.51C2422.52,1761.81 2423.31,1761.96 2424.17,1761.96Z" style="fill:white;fill-rule:nonzero;"/>
                        <path d="M2450.94,1767.19C2449.14,1767.19 2447.49,1766.9 2445.96,1766.32C2444.44,1765.75 2443.12,1764.93 2442.01,1763.88C2440.9,1762.84 2440.03,1761.6 2439.41,1760.18C2438.79,1758.77 2438.48,1757.22 2438.48,1755.53C2438.48,1753.85 2438.79,1752.31 2439.41,1750.9C2440.03,1749.49 2440.9,1748.26 2442.01,1747.21C2443.13,1746.15 2444.44,1745.34 2445.96,1744.76C2447.48,1744.19 2449.13,1743.9 2450.92,1743.9C2452.72,1743.9 2454.38,1744.19 2455.89,1744.76C2457.4,1745.34 2458.71,1746.15 2459.83,1747.2C2460.94,1748.25 2461.8,1749.48 2462.43,1750.89C2463.04,1752.3 2463.35,1753.85 2463.35,1755.53C2463.35,1757.22 2463.04,1758.77 2462.43,1760.19C2461.8,1761.61 2460.94,1762.85 2459.83,1763.89C2458.71,1764.94 2457.4,1765.75 2455.89,1766.33C2454.38,1766.9 2452.73,1767.19 2450.94,1767.19ZM2450.92,1761.96C2451.78,1761.96 2452.57,1761.81 2453.3,1761.5C2454.03,1761.2 2454.67,1760.77 2455.22,1760.21C2455.77,1759.64 2456.2,1758.97 2456.5,1758.18C2456.81,1757.39 2456.96,1756.51 2456.96,1755.54C2456.96,1754.57 2456.81,1753.69 2456.5,1752.9C2456.2,1752.12 2455.77,1751.44 2455.22,1750.88C2454.68,1750.32 2454.04,1749.89 2453.3,1749.59C2452.57,1749.28 2451.78,1749.13 2450.92,1749.13C2450.07,1749.13 2449.27,1749.28 2448.54,1749.59C2447.81,1749.89 2447.16,1750.32 2446.62,1750.88C2446.07,1751.45 2445.64,1752.12 2445.33,1752.91C2445.03,1753.69 2444.88,1754.57 2444.88,1755.54C2444.88,1756.51 2445.03,1757.39 2445.33,1758.18C2445.64,1758.97 2446.07,1759.64 2446.61,1760.2C2447.16,1760.77 2447.8,1761.2 2448.54,1761.51C2449.27,1761.81 2450.06,1761.96 2450.92,1761.96Z" style="fill:white;fill-rule:nonzero;"/>
                        <path d="M2466.39,1766.74L2466.39,1744.34L2471.6,1744.34L2483.94,1759.27L2481.47,1759.27L2481.47,1744.34L2487.68,1744.34L2487.68,1766.74L2482.47,1766.74L2470.13,1751.82L2472.6,1751.82L2472.6,1766.74L2466.39,1766.74Z" style="fill:white;fill-rule:nonzero;"/>
                    </g>
                    <g transform="matrix(1,0,0,1,4400.9,1995.14)">
                        <path d="M2384.4,1735.19C2382.63,1735.19 2381,1734.9 2379.5,1734.34C2377.99,1733.77 2376.69,1732.97 2375.59,1731.93C2374.49,1730.88 2373.63,1729.65 2373.01,1728.24C2372.4,1726.82 2372.1,1725.25 2372.1,1723.54C2372.1,1721.84 2372.4,1720.27 2373.01,1718.85C2373.63,1717.43 2374.49,1716.2 2375.59,1715.16C2376.7,1714.12 2378,1713.32 2379.51,1712.75C2381.01,1712.18 2382.64,1711.9 2384.41,1711.9C2386.47,1711.9 2388.32,1712.26 2389.95,1712.98C2391.59,1713.7 2392.95,1714.74 2394.03,1716.11L2390.01,1719.76C2389.29,1718.91 2388.5,1718.26 2387.62,1717.81C2386.75,1717.36 2385.78,1717.13 2384.72,1717.13C2383.8,1717.13 2382.96,1717.28 2382.2,1717.58C2381.44,1717.88 2380.79,1718.32 2380.24,1718.89C2379.68,1719.45 2379.26,1720.13 2378.95,1720.92C2378.64,1721.71 2378.49,1722.59 2378.49,1723.54C2378.49,1724.5 2378.64,1725.38 2378.95,1726.17C2379.26,1726.96 2379.68,1727.63 2380.24,1728.2C2380.79,1728.77 2381.44,1729.2 2382.2,1729.51C2382.96,1729.81 2383.8,1729.96 2384.72,1729.96C2385.78,1729.96 2386.75,1729.73 2387.62,1729.28C2388.5,1728.83 2389.29,1728.17 2390.01,1727.32L2394.03,1730.96C2392.95,1732.32 2391.59,1733.36 2389.95,1734.09C2388.32,1734.82 2386.47,1735.19 2384.4,1735.19Z" style="fill:white;fill-rule:nonzero;"/>
                        <path d="M2406.82,1735.19C2405.03,1735.19 2403.37,1734.9 2401.85,1734.32C2400.33,1733.75 2399.01,1732.93 2397.9,1731.88C2396.78,1730.84 2395.92,1729.6 2395.3,1728.18C2394.68,1726.77 2394.37,1725.22 2394.37,1723.53C2394.37,1721.85 2394.68,1720.31 2395.3,1718.9C2395.92,1717.49 2396.78,1716.26 2397.9,1715.21C2399.01,1714.15 2400.33,1713.34 2401.85,1712.76C2403.37,1712.19 2405.02,1711.9 2406.81,1711.9C2408.61,1711.9 2410.27,1712.19 2411.78,1712.76C2413.29,1713.34 2414.6,1714.15 2415.71,1715.2C2416.83,1716.25 2417.69,1717.48 2418.31,1718.89C2418.93,1720.3 2419.24,1721.85 2419.24,1723.54C2419.24,1725.22 2418.93,1726.77 2418.31,1728.19C2417.69,1729.61 2416.83,1730.85 2415.71,1731.89C2414.6,1732.94 2413.29,1733.75 2411.78,1734.33C2410.27,1734.9 2408.62,1735.19 2406.82,1735.19ZM2406.81,1729.96C2407.67,1729.96 2408.46,1729.81 2409.19,1729.5C2409.92,1729.2 2410.56,1728.77 2411.11,1728.21C2411.66,1727.64 2412.08,1726.97 2412.39,1726.18C2412.69,1725.39 2412.85,1724.51 2412.85,1723.54C2412.85,1722.57 2412.7,1721.69 2412.39,1720.9C2412.09,1720.12 2411.66,1719.45 2411.11,1718.88C2410.56,1718.32 2409.92,1717.89 2409.19,1717.59C2408.46,1717.28 2407.67,1717.13 2406.81,1717.13C2405.95,1717.13 2405.16,1717.28 2404.43,1717.59C2403.69,1717.89 2403.05,1718.32 2402.5,1718.88C2401.95,1719.45 2401.53,1720.12 2401.22,1720.91C2400.92,1721.69 2400.76,1722.57 2400.76,1723.54C2400.76,1724.51 2400.92,1725.39 2401.22,1726.18C2401.53,1726.97 2401.95,1727.64 2402.5,1728.2C2403.05,1728.77 2403.69,1729.2 2404.42,1729.51C2405.16,1729.81 2405.95,1729.96 2406.81,1729.96Z" style="fill:white;fill-rule:nonzero;"/>
                        <path d="M2422.28,1734.74L2422.28,1712.34L2427.49,1712.34L2436.75,1727.58L2434,1727.58L2443.04,1712.34L2448.26,1712.34L2448.31,1734.74L2442.47,1734.74L2442.42,1721.22L2443.42,1721.22L2436.67,1732.54L2433.86,1732.54L2426.91,1721.22L2428.11,1721.22L2428.11,1734.74L2422.28,1734.74Z" style="fill:white;fill-rule:nonzero;"/>
                        <rect x="2452.87" y="1712.34" width="6.34" height="22.4" style="fill:white;fill-rule:nonzero;"/>
                        <path d="M2462.02,1734.74L2462.02,1712.34L2467.23,1712.34L2479.57,1727.27L2477.11,1727.27L2477.11,1712.34L2483.32,1712.34L2483.32,1734.74L2478.1,1734.74L2465.76,1719.82L2468.23,1719.82L2468.23,1734.74L2462.02,1734.74Z" style="fill:white;fill-rule:nonzero;"/>
                        <path d="M2499.33,1735.19C2497.54,1735.19 2495.9,1734.9 2494.39,1734.34C2492.89,1733.77 2491.58,1732.97 2490.47,1731.93C2489.37,1730.88 2488.51,1729.65 2487.89,1728.24C2487.28,1726.82 2486.98,1725.25 2486.98,1723.54C2486.98,1721.84 2487.28,1720.27 2487.89,1718.85C2488.51,1717.43 2489.37,1716.2 2490.49,1715.16C2491.61,1714.12 2492.93,1713.32 2494.45,1712.75C2495.97,1712.18 2497.64,1711.9 2499.46,1711.9C2501.56,1711.9 2503.44,1712.25 2505.1,1712.95C2506.77,1713.65 2508.15,1714.66 2509.25,1715.98L2505.21,1719.63C2504.44,1718.8 2503.62,1718.17 2502.72,1717.75C2501.83,1717.34 2500.85,1717.13 2499.78,1717.13C2498.82,1717.13 2497.94,1717.28 2497.16,1717.58C2496.37,1717.88 2495.69,1718.32 2495.13,1718.89C2494.57,1719.45 2494.14,1720.13 2493.83,1720.91C2493.52,1721.69 2493.37,1722.57 2493.37,1723.54C2493.37,1724.48 2493.52,1725.35 2493.83,1726.13C2494.14,1726.92 2494.57,1727.6 2495.13,1728.17C2495.69,1728.74 2496.36,1729.18 2497.13,1729.49C2497.9,1729.8 2498.76,1729.96 2499.7,1729.96C2500.64,1729.96 2501.56,1729.8 2502.45,1729.49C2503.34,1729.18 2504.25,1728.65 2505.17,1727.9L2508.73,1732.34C2507.44,1733.26 2505.95,1733.97 2504.28,1734.46C2502.6,1734.94 2500.95,1735.19 2499.33,1735.19ZM2503.12,1731.53L2503.12,1723.07L2508.73,1723.07L2508.73,1732.34L2503.12,1731.53Z" style="fill:white;fill-rule:nonzero;"/>
                        <path d="M2401.5,1767.19C2399.67,1767.19 2397.9,1766.96 2396.21,1766.51C2394.51,1766.05 2393.13,1765.47 2392.07,1764.74L2394.15,1760.05C2395.16,1760.7 2396.32,1761.24 2397.63,1761.64C2398.95,1762.05 2400.25,1762.25 2401.54,1762.25C2402.43,1762.25 2403.13,1762.17 2403.66,1762.02C2404.18,1761.87 2404.57,1761.66 2404.81,1761.38C2405.05,1761.11 2405.18,1760.79 2405.18,1760.43C2405.18,1759.92 2404.95,1759.52 2404.49,1759.23C2404.03,1758.93 2403.42,1758.68 2402.66,1758.49C2401.91,1758.3 2401.09,1758.1 2400.18,1757.91C2399.28,1757.72 2398.38,1757.48 2397.47,1757.18C2396.56,1756.89 2395.73,1756.5 2394.98,1756.02C2394.23,1755.54 2393.62,1754.9 2393.16,1754.12C2392.7,1753.33 2392.47,1752.34 2392.47,1751.14C2392.47,1749.82 2392.83,1748.61 2393.57,1747.51C2394.3,1746.42 2395.4,1745.54 2396.87,1744.89C2398.34,1744.23 2400.18,1743.9 2402.39,1743.9C2403.85,1743.9 2405.28,1744.07 2406.7,1744.39C2408.12,1744.72 2409.39,1745.21 2410.49,1745.86L2408.56,1750.54C2407.49,1749.97 2406.43,1749.54 2405.39,1749.26C2404.34,1748.98 2403.33,1748.84 2402.34,1748.84C2401.47,1748.84 2400.76,1748.93 2400.23,1749.11C2399.7,1749.29 2399.32,1749.53 2399.08,1749.83C2398.85,1750.13 2398.73,1750.46 2398.73,1750.83C2398.73,1751.32 2398.96,1751.71 2399.42,1752C2399.88,1752.29 2400.49,1752.53 2401.24,1752.71C2401.99,1752.89 2402.83,1753.08 2403.73,1753.27C2404.64,1753.45 2405.55,1753.69 2406.45,1753.98C2407.35,1754.28 2408.18,1754.66 2408.93,1755.14C2409.68,1755.62 2410.29,1756.24 2410.75,1757.02C2411.21,1757.8 2411.44,1758.78 2411.44,1759.95C2411.44,1761.26 2411.07,1762.46 2410.34,1763.55C2409.6,1764.65 2408.5,1765.53 2407.03,1766.19C2405.57,1766.86 2403.72,1767.19 2401.5,1767.19Z" style="fill:white;fill-rule:nonzero;"/>
                        <path d="M2424.18,1767.19C2422.39,1767.19 2420.73,1766.9 2419.21,1766.32C2417.69,1765.75 2416.37,1764.93 2415.26,1763.88C2414.14,1762.84 2413.28,1761.6 2412.66,1760.18C2412.04,1758.77 2411.73,1757.22 2411.73,1755.53C2411.73,1753.85 2412.04,1752.31 2412.66,1750.9C2413.28,1749.49 2414.14,1748.26 2415.26,1747.21C2416.38,1746.15 2417.69,1745.34 2419.21,1744.76C2420.73,1744.19 2422.38,1743.9 2424.17,1743.9C2425.97,1743.9 2427.63,1744.19 2429.14,1744.76C2430.65,1745.34 2431.96,1746.15 2433.07,1747.2C2434.19,1748.25 2435.05,1749.48 2435.67,1750.89C2436.29,1752.3 2436.6,1753.85 2436.6,1755.53C2436.6,1757.22 2436.29,1758.77 2435.67,1760.19C2435.05,1761.61 2434.19,1762.85 2433.07,1763.89C2431.96,1764.94 2430.65,1765.75 2429.14,1766.33C2427.63,1766.9 2425.98,1767.19 2424.18,1767.19ZM2424.17,1761.96C2425.03,1761.96 2425.82,1761.81 2426.55,1761.5C2427.28,1761.2 2427.92,1760.77 2428.47,1760.21C2429.02,1759.64 2429.44,1758.97 2429.75,1758.18C2430.05,1757.39 2430.21,1756.51 2430.21,1755.54C2430.21,1754.57 2430.05,1753.69 2429.75,1752.9C2429.45,1752.12 2429.02,1751.44 2428.47,1750.88C2427.92,1750.32 2427.28,1749.89 2426.55,1749.59C2425.82,1749.28 2425.03,1749.13 2424.17,1749.13C2423.31,1749.13 2422.52,1749.28 2421.79,1749.59C2421.05,1749.89 2420.41,1750.32 2419.86,1750.88C2419.32,1751.45 2418.89,1752.12 2418.58,1752.91C2418.28,1753.69 2418.12,1754.57 2418.12,1755.54C2418.12,1756.51 2418.28,1757.39 2418.58,1758.18C2418.89,1758.97 2419.31,1759.64 2419.86,1760.2C2420.41,1760.77 2421.05,1761.2 2421.78,1761.51C2422.52,1761.81 2423.31,1761.96 2424.17,1761.96Z" style="fill:white;fill-rule:nonzero;"/>
                        <path d="M2450.94,1767.19C2449.14,1767.19 2447.49,1766.9 2445.96,1766.32C2444.44,1765.75 2443.12,1764.93 2442.01,1763.88C2440.9,1762.84 2440.03,1761.6 2439.41,1760.18C2438.79,1758.77 2438.48,1757.22 2438.48,1755.53C2438.48,1753.85 2438.79,1752.31 2439.41,1750.9C2440.03,1749.49 2440.9,1748.26 2442.01,1747.21C2443.13,1746.15 2444.44,1745.34 2445.96,1744.76C2447.48,1744.19 2449.13,1743.9 2450.92,1743.9C2452.72,1743.9 2454.38,1744.19 2455.89,1744.76C2457.4,1745.34 2458.71,1746.15 2459.83,1747.2C2460.94,1748.25 2461.8,1749.48 2462.43,1750.89C2463.04,1752.3 2463.35,1753.85 2463.35,1755.53C2463.35,1757.22 2463.04,1758.77 2462.43,1760.19C2461.8,1761.61 2460.94,1762.85 2459.83,1763.89C2458.71,1764.94 2457.4,1765.75 2455.89,1766.33C2454.38,1766.9 2452.73,1767.19 2450.94,1767.19ZM2450.92,1761.96C2451.78,1761.96 2452.57,1761.81 2453.3,1761.5C2454.03,1761.2 2454.67,1760.77 2455.22,1760.21C2455.77,1759.64 2456.2,1758.97 2456.5,1758.18C2456.81,1757.39 2456.96,1756.51 2456.96,1755.54C2456.96,1754.57 2456.81,1753.69 2456.5,1752.9C2456.2,1752.12 2455.77,1751.44 2455.22,1750.88C2454.68,1750.32 2454.04,1749.89 2453.3,1749.59C2452.57,1749.28 2451.78,1749.13 2450.92,1749.13C2450.07,1749.13 2449.27,1749.28 2448.54,1749.59C2447.81,1749.89 2447.16,1750.32 2446.62,1750.88C2446.07,1751.45 2445.64,1752.12 2445.33,1752.91C2445.03,1753.69 2444.88,1754.57 2444.88,1755.54C2444.88,1756.51 2445.03,1757.39 2445.33,1758.18C2445.64,1758.97 2446.07,1759.64 2446.61,1760.2C2447.16,1760.77 2447.8,1761.2 2448.54,1761.51C2449.27,1761.81 2450.06,1761.96 2450.92,1761.96Z" style="fill:white;fill-rule:nonzero;"/>
                        <path d="M2466.39,1766.74L2466.39,1744.34L2471.6,1744.34L2483.94,1759.27L2481.47,1759.27L2481.47,1744.34L2487.68,1744.34L2487.68,1766.74L2482.47,1766.74L2470.13,1751.82L2472.6,1751.82L2472.6,1766.74L2466.39,1766.74Z" style="fill:white;fill-rule:nonzero;"/>
                    </g>
                    <g transform="matrix(1,0,0,1,4954.27,1995.14)">
                        <path d="M2384.4,1735.19C2382.63,1735.19 2381,1734.9 2379.5,1734.34C2377.99,1733.77 2376.69,1732.97 2375.59,1731.93C2374.49,1730.88 2373.63,1729.65 2373.01,1728.24C2372.4,1726.82 2372.1,1725.25 2372.1,1723.54C2372.1,1721.84 2372.4,1720.27 2373.01,1718.85C2373.63,1717.43 2374.49,1716.2 2375.59,1715.16C2376.7,1714.12 2378,1713.32 2379.51,1712.75C2381.01,1712.18 2382.64,1711.9 2384.41,1711.9C2386.47,1711.9 2388.32,1712.26 2389.95,1712.98C2391.59,1713.7 2392.95,1714.74 2394.03,1716.11L2390.01,1719.76C2389.29,1718.91 2388.5,1718.26 2387.62,1717.81C2386.75,1717.36 2385.78,1717.13 2384.72,1717.13C2383.8,1717.13 2382.96,1717.28 2382.2,1717.58C2381.44,1717.88 2380.79,1718.32 2380.24,1718.89C2379.68,1719.45 2379.26,1720.13 2378.95,1720.92C2378.64,1721.71 2378.49,1722.59 2378.49,1723.54C2378.49,1724.5 2378.64,1725.38 2378.95,1726.17C2379.26,1726.96 2379.68,1727.63 2380.24,1728.2C2380.79,1728.77 2381.44,1729.2 2382.2,1729.51C2382.96,1729.81 2383.8,1729.96 2384.72,1729.96C2385.78,1729.96 2386.75,1729.73 2387.62,1729.28C2388.5,1728.83 2389.29,1728.17 2390.01,1727.32L2394.03,1730.96C2392.95,1732.32 2391.59,1733.36 2389.95,1734.09C2388.32,1734.82 2386.47,1735.19 2384.4,1735.19Z" style="fill:white;fill-rule:nonzero;"/>
                        <path d="M2406.82,1735.19C2405.03,1735.19 2403.37,1734.9 2401.85,1734.32C2400.33,1733.75 2399.01,1732.93 2397.9,1731.88C2396.78,1730.84 2395.92,1729.6 2395.3,1728.18C2394.68,1726.77 2394.37,1725.22 2394.37,1723.53C2394.37,1721.85 2394.68,1720.31 2395.3,1718.9C2395.92,1717.49 2396.78,1716.26 2397.9,1715.21C2399.01,1714.15 2400.33,1713.34 2401.85,1712.76C2403.37,1712.19 2405.02,1711.9 2406.81,1711.9C2408.61,1711.9 2410.27,1712.19 2411.78,1712.76C2413.29,1713.34 2414.6,1714.15 2415.71,1715.2C2416.83,1716.25 2417.69,1717.48 2418.31,1718.89C2418.93,1720.3 2419.24,1721.85 2419.24,1723.54C2419.24,1725.22 2418.93,1726.77 2418.31,1728.19C2417.69,1729.61 2416.83,1730.85 2415.71,1731.89C2414.6,1732.94 2413.29,1733.75 2411.78,1734.33C2410.27,1734.9 2408.62,1735.19 2406.82,1735.19ZM2406.81,1729.96C2407.67,1729.96 2408.46,1729.81 2409.19,1729.5C2409.92,1729.2 2410.56,1728.77 2411.11,1728.21C2411.66,1727.64 2412.08,1726.97 2412.39,1726.18C2412.69,1725.39 2412.85,1724.51 2412.85,1723.54C2412.85,1722.57 2412.7,1721.69 2412.39,1720.9C2412.09,1720.12 2411.66,1719.45 2411.11,1718.88C2410.56,1718.32 2409.92,1717.89 2409.19,1717.59C2408.46,1717.28 2407.67,1717.13 2406.81,1717.13C2405.95,1717.13 2405.16,1717.28 2404.43,1717.59C2403.69,1717.89 2403.05,1718.32 2402.5,1718.88C2401.95,1719.45 2401.53,1720.12 2401.22,1720.91C2400.92,1721.69 2400.76,1722.57 2400.76,1723.54C2400.76,1724.51 2400.92,1725.39 2401.22,1726.18C2401.53,1726.97 2401.95,1727.64 2402.5,1728.2C2403.05,1728.77 2403.69,1729.2 2404.42,1729.51C2405.16,1729.81 2405.95,1729.96 2406.81,1729.96Z" style="fill:white;fill-rule:nonzero;"/>
                        <path d="M2422.28,1734.74L2422.28,1712.34L2427.49,1712.34L2436.75,1727.58L2434,1727.58L2443.04,1712.34L2448.26,1712.34L2448.31,1734.74L2442.47,1734.74L2442.42,1721.22L2443.42,1721.22L2436.67,1732.54L2433.86,1732.54L2426.91,1721.22L2428.11,1721.22L2428.11,1734.74L2422.28,1734.74Z" style="fill:white;fill-rule:nonzero;"/>
                        <rect x="2452.87" y="1712.34" width="6.34" height="22.4" style="fill:white;fill-rule:nonzero;"/>
                        <path d="M2462.02,1734.74L2462.02,1712.34L2467.23,1712.34L2479.57,1727.27L2477.11,1727.27L2477.11,1712.34L2483.32,1712.34L2483.32,1734.74L2478.1,1734.74L2465.76,1719.82L2468.23,1719.82L2468.23,1734.74L2462.02,1734.74Z" style="fill:white;fill-rule:nonzero;"/>
                        <path d="M2499.33,1735.19C2497.54,1735.19 2495.9,1734.9 2494.39,1734.34C2492.89,1733.77 2491.58,1732.97 2490.47,1731.93C2489.37,1730.88 2488.51,1729.65 2487.89,1728.24C2487.28,1726.82 2486.98,1725.25 2486.98,1723.54C2486.98,1721.84 2487.28,1720.27 2487.89,1718.85C2488.51,1717.43 2489.37,1716.2 2490.49,1715.16C2491.61,1714.12 2492.93,1713.32 2494.45,1712.75C2495.97,1712.18 2497.64,1711.9 2499.46,1711.9C2501.56,1711.9 2503.44,1712.25 2505.1,1712.95C2506.77,1713.65 2508.15,1714.66 2509.25,1715.98L2505.21,1719.63C2504.44,1718.8 2503.62,1718.17 2502.72,1717.75C2501.83,1717.34 2500.85,1717.13 2499.78,1717.13C2498.82,1717.13 2497.94,1717.28 2497.16,1717.58C2496.37,1717.88 2495.69,1718.32 2495.13,1718.89C2494.57,1719.45 2494.14,1720.13 2493.83,1720.91C2493.52,1721.69 2493.37,1722.57 2493.37,1723.54C2493.37,1724.48 2493.52,1725.35 2493.83,1726.13C2494.14,1726.92 2494.57,1727.6 2495.13,1728.17C2495.69,1728.74 2496.36,1729.18 2497.13,1729.49C2497.9,1729.8 2498.76,1729.96 2499.7,1729.96C2500.64,1729.96 2501.56,1729.8 2502.45,1729.49C2503.34,1729.18 2504.25,1728.65 2505.17,1727.9L2508.73,1732.34C2507.44,1733.26 2505.95,1733.97 2504.28,1734.46C2502.6,1734.94 2500.95,1735.19 2499.33,1735.19ZM2503.12,1731.53L2503.12,1723.07L2508.73,1723.07L2508.73,1732.34L2503.12,1731.53Z" style="fill:white;fill-rule:nonzero;"/>
                        <path d="M2401.5,1767.19C2399.67,1767.19 2397.9,1766.96 2396.21,1766.51C2394.51,1766.05 2393.13,1765.47 2392.07,1764.74L2394.15,1760.05C2395.16,1760.7 2396.32,1761.24 2397.63,1761.64C2398.95,1762.05 2400.25,1762.25 2401.54,1762.25C2402.43,1762.25 2403.13,1762.17 2403.66,1762.02C2404.18,1761.87 2404.57,1761.66 2404.81,1761.38C2405.05,1761.11 2405.18,1760.79 2405.18,1760.43C2405.18,1759.92 2404.95,1759.52 2404.49,1759.23C2404.03,1758.93 2403.42,1758.68 2402.66,1758.49C2401.91,1758.3 2401.09,1758.1 2400.18,1757.91C2399.28,1757.72 2398.38,1757.48 2397.47,1757.18C2396.56,1756.89 2395.73,1756.5 2394.98,1756.02C2394.23,1755.54 2393.62,1754.9 2393.16,1754.12C2392.7,1753.33 2392.47,1752.34 2392.47,1751.14C2392.47,1749.82 2392.83,1748.61 2393.57,1747.51C2394.3,1746.42 2395.4,1745.54 2396.87,1744.89C2398.34,1744.23 2400.18,1743.9 2402.39,1743.9C2403.85,1743.9 2405.28,1744.07 2406.7,1744.39C2408.12,1744.72 2409.39,1745.21 2410.49,1745.86L2408.56,1750.54C2407.49,1749.97 2406.43,1749.54 2405.39,1749.26C2404.34,1748.98 2403.33,1748.84 2402.34,1748.84C2401.47,1748.84 2400.76,1748.93 2400.23,1749.11C2399.7,1749.29 2399.32,1749.53 2399.08,1749.83C2398.85,1750.13 2398.73,1750.46 2398.73,1750.83C2398.73,1751.32 2398.96,1751.71 2399.42,1752C2399.88,1752.29 2400.49,1752.53 2401.24,1752.71C2401.99,1752.89 2402.83,1753.08 2403.73,1753.27C2404.64,1753.45 2405.55,1753.69 2406.45,1753.98C2407.35,1754.28 2408.18,1754.66 2408.93,1755.14C2409.68,1755.62 2410.29,1756.24 2410.75,1757.02C2411.21,1757.8 2411.44,1758.78 2411.44,1759.95C2411.44,1761.26 2411.07,1762.46 2410.34,1763.55C2409.6,1764.65 2408.5,1765.53 2407.03,1766.19C2405.57,1766.86 2403.72,1767.19 2401.5,1767.19Z" style="fill:white;fill-rule:nonzero;"/>
                        <path d="M2424.18,1767.19C2422.39,1767.19 2420.73,1766.9 2419.21,1766.32C2417.69,1765.75 2416.37,1764.93 2415.26,1763.88C2414.14,1762.84 2413.28,1761.6 2412.66,1760.18C2412.04,1758.77 2411.73,1757.22 2411.73,1755.53C2411.73,1753.85 2412.04,1752.31 2412.66,1750.9C2413.28,1749.49 2414.14,1748.26 2415.26,1747.21C2416.38,1746.15 2417.69,1745.34 2419.21,1744.76C2420.73,1744.19 2422.38,1743.9 2424.17,1743.9C2425.97,1743.9 2427.63,1744.19 2429.14,1744.76C2430.65,1745.34 2431.96,1746.15 2433.07,1747.2C2434.19,1748.25 2435.05,1749.48 2435.67,1750.89C2436.29,1752.3 2436.6,1753.85 2436.6,1755.53C2436.6,1757.22 2436.29,1758.77 2435.67,1760.19C2435.05,1761.61 2434.19,1762.85 2433.07,1763.89C2431.96,1764.94 2430.65,1765.75 2429.14,1766.33C2427.63,1766.9 2425.98,1767.19 2424.18,1767.19ZM2424.17,1761.96C2425.03,1761.96 2425.82,1761.81 2426.55,1761.5C2427.28,1761.2 2427.92,1760.77 2428.47,1760.21C2429.02,1759.64 2429.44,1758.97 2429.75,1758.18C2430.05,1757.39 2430.21,1756.51 2430.21,1755.54C2430.21,1754.57 2430.05,1753.69 2429.75,1752.9C2429.45,1752.12 2429.02,1751.44 2428.47,1750.88C2427.92,1750.32 2427.28,1749.89 2426.55,1749.59C2425.82,1749.28 2425.03,1749.13 2424.17,1749.13C2423.31,1749.13 2422.52,1749.28 2421.79,1749.59C2421.05,1749.89 2420.41,1750.32 2419.86,1750.88C2419.32,1751.45 2418.89,1752.12 2418.58,1752.91C2418.28,1753.69 2418.12,1754.57 2418.12,1755.54C2418.12,1756.51 2418.28,1757.39 2418.58,1758.18C2418.89,1758.97 2419.31,1759.64 2419.86,1760.2C2420.41,1760.77 2421.05,1761.2 2421.78,1761.51C2422.52,1761.81 2423.31,1761.96 2424.17,1761.96Z" style="fill:white;fill-rule:nonzero;"/>
                        <path d="M2450.94,1767.19C2449.14,1767.19 2447.49,1766.9 2445.96,1766.32C2444.44,1765.75 2443.12,1764.93 2442.01,1763.88C2440.9,1762.84 2440.03,1761.6 2439.41,1760.18C2438.79,1758.77 2438.48,1757.22 2438.48,1755.53C2438.48,1753.85 2438.79,1752.31 2439.41,1750.9C2440.03,1749.49 2440.9,1748.26 2442.01,1747.21C2443.13,1746.15 2444.44,1745.34 2445.96,1744.76C2447.48,1744.19 2449.13,1743.9 2450.92,1743.9C2452.72,1743.9 2454.38,1744.19 2455.89,1744.76C2457.4,1745.34 2458.71,1746.15 2459.83,1747.2C2460.94,1748.25 2461.8,1749.48 2462.43,1750.89C2463.04,1752.3 2463.35,1753.85 2463.35,1755.53C2463.35,1757.22 2463.04,1758.77 2462.43,1760.19C2461.8,1761.61 2460.94,1762.85 2459.83,1763.89C2458.71,1764.94 2457.4,1765.75 2455.89,1766.33C2454.38,1766.9 2452.73,1767.19 2450.94,1767.19ZM2450.92,1761.96C2451.78,1761.96 2452.57,1761.81 2453.3,1761.5C2454.03,1761.2 2454.67,1760.77 2455.22,1760.21C2455.77,1759.64 2456.2,1758.97 2456.5,1758.18C2456.81,1757.39 2456.96,1756.51 2456.96,1755.54C2456.96,1754.57 2456.81,1753.69 2456.5,1752.9C2456.2,1752.12 2455.77,1751.44 2455.22,1750.88C2454.68,1750.32 2454.04,1749.89 2453.3,1749.59C2452.57,1749.28 2451.78,1749.13 2450.92,1749.13C2450.07,1749.13 2449.27,1749.28 2448.54,1749.59C2447.81,1749.89 2447.16,1750.32 2446.62,1750.88C2446.07,1751.45 2445.64,1752.12 2445.33,1752.91C2445.03,1753.69 2444.88,1754.57 2444.88,1755.54C2444.88,1756.51 2445.03,1757.39 2445.33,1758.18C2445.64,1758.97 2446.07,1759.64 2446.61,1760.2C2447.16,1760.77 2447.8,1761.2 2448.54,1761.51C2449.27,1761.81 2450.06,1761.96 2450.92,1761.96Z" style="fill:white;fill-rule:nonzero;"/>
                        <path d="M2466.39,1766.74L2466.39,1744.34L2471.6,1744.34L2483.94,1759.27L2481.47,1759.27L2481.47,1744.34L2487.68,1744.34L2487.68,1766.74L2482.47,1766.74L2470.13,1751.82L2472.6,1751.82L2472.6,1766.74L2466.39,1766.74Z" style="fill:white;fill-rule:nonzero;"/>
                    </g>
                </g>
            </g>
        </g>
    </g>
</svg>
