<?xml version="1.0" encoding="UTF-8" standalone="no"?>
<!DOCTYPE svg PUBLIC "-//W3C//DTD SVG 1.1//EN" "http://www.w3.org/Graphics/SVG/1.1/DTD/svg11.dtd">
<svg width="100%" height="100%" viewBox="0 0 2081 210" version="1.1" xmlns="http://www.w3.org/2000/svg" xmlns:xlink="http://www.w3.org/1999/xlink" xml:space="preserve" xmlns:serif="http://www.serif.com/" style="fill-rule:evenodd;clip-rule:evenodd;stroke-linejoin:round;stroke-miterlimit:2;">
    <g transform="matrix(1,0,0,1,560,-16832.6)">
        <g transform="matrix(1.73417,0,0,1.73417,-560,16832.6)">
            <g transform="matrix(1,0,0,1,0,118.457)">
                <path d="M0,-107.382C2.776,-109.949 5.79,-109.465 8.732,-107.864C12.238,-105.956 15.69,-103.936 19.075,-101.822C32.486,-93.444 45.861,-85.009 59.252,-76.599C60.097,-76.068 60.988,-75.605 61.807,-75.038C65.084,-72.764 68.001,-72.909 71.378,-75.341C80.967,-82.247 90.567,-89.161 100.705,-95.258C105.267,-98.002 109.954,-100.539 114.612,-103.12C117.139,-104.52 119.904,-105.15 122.776,-105.02C125.776,-104.885 126.635,-104.112 126.962,-101.185C127.145,-99.547 127.051,-97.857 126.898,-96.207C125.605,-82.218 126.527,-68.278 127.785,-54.346C128.083,-51.037 128.299,-47.727 128.883,-44.431C129.491,-41.001 127.783,-39.275 124.371,-39.839C122.479,-40.152 120.769,-39.834 118.961,-39.68C115.145,-39.356 113.46,-40.721 112.755,-44.457C111.324,-52.046 111.651,-59.72 111.804,-67.367C111.961,-75.185 111.763,-83.017 112.548,-90.818C112.645,-91.782 112.445,-92.776 112.358,-94.13C109.184,-93.335 106.845,-91.503 104.475,-89.82C96.99,-84.508 90.28,-78.258 83.423,-72.189C77.692,-67.117 71.905,-62.121 65.581,-57.467C48.726,-66.126 33.837,-77.684 17.755,-87.425C16.696,-85.451 17.372,-83.863 17.625,-82.275C21.005,-60.987 22.138,-39.586 20.874,-18.064C20.559,-12.699 19.655,-7.476 17.108,-2.67C16.045,-0.664 15.099,1.499 12.838,2.567C11.466,1.598 11.928,0.347 11.924,-0.698C11.899,-6.694 12.03,-12.69 11.961,-18.685C11.679,-43.061 8.59,-67.111 3.36,-90.898C2.296,-95.738 1.848,-100.724 0,-105.382L0,-107.382Z" style="fill:rgb(199,113,23);fill-rule:nonzero;"/>
            </g>
            <g transform="matrix(1,0,0,1,1200,97.2622)">
                <path d="M0,-6.187C-1.638,-5.113 -0.904,-3.594 -0.858,-2.133C-0.766,0.845 -1.602,1.782 -4.583,1.876C-7.744,1.975 -10.913,1.777 -14.077,1.792C-39.901,1.913 -65.734,1.662 -91.544,2.334C-107.349,2.746 -123.178,2.372 -138.971,3.473C-141.508,3.65 -144.326,4.484 -146.872,2.165C-146.606,0.117 -146.537,-2.082 -146.981,-4.356C-147.715,-8.12 -146.64,-9.117 -142.851,-9.129C-122.209,-9.193 -101.567,-9.154 -80.926,-9.351C-58.447,-9.566 -35.969,-10 -13.491,-10.337C-11.826,-10.362 -10.153,-10.288 -8.495,-10.415C-5.135,-10.671 -2.272,-9.736 0,-7.187L0,-6.187Z" style="fill:rgb(199,113,23);fill-rule:nonzero;"/>
            </g>
            <g transform="matrix(1,0,0,1,785.017,47.1746)">
                <path d="M0,8.197C-0.15,12.604 -0.148,16.653 0.569,20.613C14.443,21.76 38.597,14.694 43.007,8.197L0,8.197ZM-61.184,8.618C-46.504,17.49 -30.1,19.759 -13.162,21.348C-12.869,16.888 -12.743,12.954 -13.245,9.077C-17.379,7.571 -46.282,7.026 -61.184,8.618M-2.746,-20.558C-2.311,-15.067 -1.873,-9.54 -1.411,-3.717L46.536,-3.717C40.851,-13.441 12.71,-23.069 -2.746,-20.558M-12.419,-21.109C-22.371,-21.28 -31.738,-20.077 -40.915,-17.536C-47.213,-15.793 -53.202,-13.284 -58.21,-8.923C-59.759,-7.573 -61.59,-6.332 -62,-3.99C-55.155,-2.78 -16.167,-2.971 -12.419,-4.272L-12.419,-21.109ZM-80.968,41.621C-58.669,41.918 -36.555,42.265 -14.58,41.979C-13.287,38.428 -13.287,38.428 -13.712,34.042C-17.221,33.715 -20.829,33.368 -24.439,33.043C-37.074,31.902 -49.545,29.991 -61.384,25.136C-71.239,21.096 -75.792,17.212 -81.156,8.235C-83.499,7.391 -86.422,8.696 -88.999,6.559C-88.185,4.667 -88.724,2.749 -89.447,0.728C-90.513,-2.255 -89.115,-3.945 -85.887,-4.051C-84.56,-4.095 -83.231,-4.099 -81.904,-4.139C-81.749,-4.143 -81.598,-4.263 -81.109,-4.474C-77.726,-12.541 -70.487,-16.675 -62.739,-19.926C-51.455,-24.66 -39.561,-27.105 -27.398,-28.253C-22.46,-28.719 -17.516,-29.121 -12.329,-29.574C-11.789,-35.217 -11.261,-40.739 -10.645,-47.174C-4.813,-42.147 -5.339,-35.538 -3.297,-29.402C1.742,-29.131 7.017,-28.876 12.258,-28.283C23.736,-26.985 34.936,-24.587 45.538,-19.928C52.777,-16.747 59.652,-12.96 63.047,-5.164C63.797,-3.44 65.267,-3.331 66.776,-3.256C70.004,-3.095 73.02,-2.409 75.66,0.097C75.132,1.637 74.015,2.961 74.893,4.994C75.751,6.981 74.27,8.535 71.598,8.873C69.469,9.141 67.279,8.926 65.117,8.926C63.777,8.927 62.473,8.913 61.543,10.198C54.055,20.551 42.905,24.819 31.308,28.328C22.665,30.943 13.804,32.352 4.82,33.071C3.84,33.149 2.866,33.289 1.605,33.433C0.881,36.299 1.124,38.965 2.097,41.533C4.044,42.406 5.902,42.062 7.706,42.065C26.034,42.096 44.362,42.084 62.69,42.096C64.684,42.097 66.686,41.965 68.651,42.519C72.057,43.478 72.499,44.139 72.202,48.053C72.189,48.216 72.1,48.386 72.126,48.538C72.429,50.286 73.386,52.062 71.636,53.648C69.734,55.371 67.549,54.516 65.441,54.459C58.783,54.276 52.125,53.953 45.467,53.952C5.314,53.942 -34.839,54.007 -74.993,54.046C-76.159,54.047 -77.329,54.099 -78.491,54.02C-81.659,53.803 -81.832,53.635 -81.492,50.09C-81.389,49.028 -81.771,48.144 -81.905,47.175C-82.151,45.382 -82.573,43.537 -80.968,41.621" style="fill:rgb(199,113,23);fill-rule:nonzero;"/>
            </g>
            <g transform="matrix(1,0,0,1,549.995,99.5877)">
                <path d="M0,-77.063C4.93,-74.952 9.31,-73.046 13.713,-71.197C21.535,-67.911 29.367,-64.648 37.206,-61.401C38.559,-60.84 40.077,-59.872 41.363,-61.285C43.816,-63.982 45.256,-67.223 44.569,-70.883C43.914,-74.375 41.449,-75.961 37.902,-76.604C28.663,-78.279 19.371,-78.502 10.037,-78.285C6.899,-78.213 3.734,-78.359 0,-77.063M43.011,-47.654C37.396,-48.795 31.931,-50.735 26.64,-53.128C11.466,-59.989 -3.997,-66.097 -19.907,-71.025C-25.446,-72.74 -31.057,-74.269 -36.88,-74.597C-37.827,-69.754 -37.811,-69.699 -33.12,-68.208C-10.123,-60.896 12.661,-52.986 34.942,-43.695C50.625,-37.155 66.013,-30.014 80.293,-20.701C81.686,-19.793 83.025,-18.801 84.372,-17.824C88.964,-14.495 90.956,-10.435 89.63,-4.468C88.259,1.707 88.906,8.133 88.988,14.459C89.015,16.584 89.316,18.739 88.693,20.825C83.836,20.154 81.724,18.237 81.201,13.618C80.659,8.826 80.011,3.98 80.209,-0.81C80.373,-4.808 78.695,-6.841 75.514,-8.644C63.767,-15.302 51.55,-20.984 39.181,-26.342C19.779,-34.746 -0.015,-42.102 -20.323,-48.023C-25.573,-49.554 -30.839,-51.069 -36.403,-51.899C-37.18,-49.457 -36.88,-47.109 -36.641,-44.848C-35.819,-37.077 -35.56,-29.255 -34.169,-21.529C-33.558,-18.135 -33.542,-14.562 -34.607,-11.131C-35.749,-7.455 -37.231,-6.12 -40,-6.36C-42.585,-6.585 -43.413,-7.729 -43.899,-11.755C-43.959,-12.249 -43.997,-12.745 -44.04,-13.185C-44.632,-14.234 -45.519,-13.621 -46.272,-13.707C-49.794,-14.11 -50.664,-14.827 -50.672,-18.422C-50.684,-24.409 -50.343,-30.395 -50.257,-36.383C-50.184,-41.378 -50.218,-46.376 -50.286,-51.372C-50.349,-55.98 -50.367,-56.075 -54.96,-57.533C-62.411,-59.899 -69.904,-62.133 -77.384,-64.407C-84.273,-66.502 -84.553,-67.298 -81.635,-73.737C-79.281,-78.931 -75.849,-81.869 -69.768,-81.83C-64.161,-81.793 -58.549,-82.605 -53.35,-83.01C-51.96,-84.371 -52.424,-85.539 -52.542,-86.672C-52.749,-88.657 -52.945,-90.644 -53.119,-92.632C-53.287,-94.55 -53.14,-96.39 -51.018,-97.211C-49.269,-97.888 -47.654,-97.465 -46.611,-95.898C-45.76,-94.619 -44.517,-94.32 -43.221,-94.093C-36.418,-92.9 -30.221,-90.067 -24.048,-87.138C-21.796,-86.069 -19.463,-85.167 -17.163,-84.2C-14.345,-83.015 -11.483,-82.847 -8.394,-83.048C7.371,-84.074 23.154,-85.438 38.898,-82.61C43.268,-81.825 47.33,-80.495 50.339,-77.071C52.836,-74.231 54.425,-71.04 53.403,-67.05C52.098,-61.957 46.963,-52.235 43.011,-47.654" style="fill:rgb(199,113,23);fill-rule:nonzero;"/>
            </g>
            <g transform="matrix(1,0,0,1,1111.75,67.3242)">
                <path d="M0,-12.193C-13.807,-12.193 -27.613,-12.194 -41.42,-12.192C-42.918,-12.191 -44.42,-12.101 -45.913,-12.18C-48.071,-12.295 -49.77,-13.237 -50.563,-15.351C-51.381,-17.535 -49.166,-17.993 -48.164,-19.242C-48.931,-20.535 -51.051,-20.246 -51.369,-21.994C-51.662,-23.606 -51.064,-24.893 -49.758,-26.434C-43.385,-25.969 -36.769,-25.961 -30.147,-26.131C-9.35,-26.667 11.449,-27.091 32.247,-27.555C33.079,-27.574 33.912,-27.563 34.745,-27.554C43.09,-27.464 46.651,-23.041 45.045,-14.587C24.293,-9.171 2.629,-7.686 -17.965,-1.131C-9.522,-1.437 -1.105,-1.129 7.274,-1.59C18.916,-2.232 30.56,-2.182 42.204,-2.403C51.518,-2.581 60.837,-2.295 70.148,-2.978C72.82,-3.174 75.953,-3.997 77.839,-0.885C79.891,2.499 80.902,6.131 80.147,10.087C79.686,12.508 77.934,13.121 75.681,13.09C67.856,12.982 60.03,12.941 52.205,12.886C27.063,12.709 1.918,12.405 -23.218,13.143C-31.521,13.387 -39.802,14.318 -48.097,14.884C-55.381,15.381 -55.945,14.584 -54.574,7.584C-54.021,4.76 -52.627,3.304 -50.017,2.349C-39.064,-1.658 -27.758,-4.422 -16.505,-7.375C-10.907,-8.843 -5.295,-10.26 0.31,-11.701C0.207,-11.865 0.103,-12.029 0,-12.193" style="fill:rgb(199,113,23);fill-rule:nonzero;"/>
            </g>
            <g transform="matrix(1,0,0,1,224.794,63.9352)">
                <path d="M0,-11.737C-14.47,-11.737 -28.94,-11.737 -43.41,-11.736C-44.574,-11.736 -45.749,-11.624 -46.899,-11.749C-48.836,-11.958 -50.35,-12.882 -51.148,-14.759C-52.051,-16.879 -49.968,-17.496 -49.102,-18.71C-52.499,-21.637 -52.499,-21.637 -50.452,-26.075C-43.064,-25.085 -35.452,-25.719 -27.836,-25.735C-9.686,-25.771 8.439,-26.74 26.579,-27.083C29.409,-27.137 32.247,-26.98 35.07,-27.128C40.17,-27.393 42.714,-25.61 44.787,-19.665C46.26,-15.438 45.196,-14.079 40.836,-13.085C27.857,-10.128 14.663,-8.351 1.614,-5.787C-3.606,-4.761 -8.815,-3.659 -13.985,-2.412C-15.882,-1.954 -17.939,-1.722 -19.867,-0.065C-9.641,-1.266 0.29,-1.114 10.194,-1.585C21.33,-2.115 32.494,-2.049 43.646,-2.239C44.645,-2.256 45.645,-2.23 46.643,-2.267C49.225,-2.363 51.968,-3.471 54.051,-0.828C56.684,2.513 58.617,6.171 58.823,10.476C58.932,12.755 57.546,14.004 54.961,14.041C51.302,14.093 47.633,14.012 43.981,13.785C29.675,12.899 15.355,13.342 1.041,13.228C-15.782,13.095 -32.576,13.62 -49.311,15.474C-50.292,15.583 -51.309,15.656 -52.279,15.522C-55.515,15.073 -56.214,14.055 -55.625,10.804C-55.447,9.825 -54.991,8.87 -54.964,7.895C-54.887,5.11 -53.302,3.721 -50.847,2.949C-45.616,1.303 -40.446,-0.563 -35.16,-2.008C-23.469,-5.205 -11.722,-8.197 0.003,-11.273C0.002,-11.427 0.001,-11.582 0,-11.737" style="fill:rgb(199,113,23);fill-rule:nonzero;"/>
            </g>
            <g transform="matrix(1,0,0,1,919.025,78.0137)">
                <path d="M0,-39.825C0,-30.87 -0.054,-22.238 0.016,-13.608C0.077,-6.12 0.076,1.374 0.885,8.837C1.16,11.374 1.459,13.975 -2.217,14.455C-3.251,14.59 -3.566,15.641 -4.06,16.56C-6.002,20.174 -10.425,20.432 -12.963,17.184C-14.531,15.177 -15.278,13.062 -15.11,10.309C-14.376,-1.671 -14.814,-13.653 -15.769,-25.613C-16.339,-32.748 -16.039,-39.919 -16.826,-47.054C-17.079,-49.351 -18.167,-51.444 -17.886,-53.884C-17.392,-58.185 -16.122,-59.733 -11.632,-59.982C-6.678,-60.257 -1.831,-59.114 2.163,-56.363C13.582,-48.497 25.976,-42.386 38.045,-35.686C51.278,-28.34 64.801,-21.477 76.943,-12.314C77.043,-12.239 77.267,-12.326 77.553,-12.346C78.52,-13.587 78.127,-15.112 78.116,-16.517C78.033,-27.34 77.886,-38.162 77.768,-48.984C77.756,-50.15 77.752,-51.319 77.836,-52.481C78.069,-55.71 78.813,-56.255 81.913,-55.46C82.711,-55.256 83.467,-54.881 84.18,-54.608C85.205,-55.118 84.987,-56.03 85.079,-56.78C85.277,-58.392 85.774,-59.902 87.651,-59.856C89.556,-59.81 90.696,-58.409 90.916,-56.622C91.323,-53.325 91.637,-50.002 91.74,-46.683C92.163,-33.037 91.356,-19.38 92.113,-5.734C92.39,-0.737 93.356,4.154 94.075,9.087C94.355,11.013 96.141,12.086 96.469,14.507C93.468,16.108 90.448,18.025 86.755,18.165C83.703,18.28 81.851,16.331 80.706,13.74C80.178,12.544 79.782,11.206 79.705,9.91C79.323,3.534 75.657,-0.798 70.991,-4.571C62.653,-11.314 53.279,-16.382 43.807,-21.261C31.227,-27.74 18.267,-33.402 5.198,-38.813C3.842,-39.375 2.501,-40.099 0,-39.825" style="fill:rgb(199,113,23);fill-rule:nonzero;"/>
            </g>
            <g transform="matrix(1,0,0,1,444.965,16.4835)">
                <path d="M0,63.898C-4.482,67.363 -9.476,67.399 -14.637,66.227C-16.739,65.75 -18.784,65.025 -20.86,64.431C-21.66,64.202 -22.488,63.808 -23.279,63.861C-27.787,64.165 -32.465,65.334 -35.82,60.859C-39.295,60.492 -42.761,59.949 -46.245,59.792C-56.22,59.34 -66.185,58.442 -76.186,58.854C-80.506,59.032 -84.82,59.349 -89.139,59.561C-90.633,59.635 -92.168,59.791 -93.623,59.546C-96.9,58.993 -98.277,56.384 -97.119,53.284C-95.678,49.427 -94.465,48.761 -90.102,48.385C-75.162,47.096 -60.148,47.878 -45.209,46.668C-44.283,46.593 -43.228,46.98 -42.155,45.669C-51.989,34.365 -61.867,23.012 -72.079,11.274C-87.888,31.681 -103.892,51.528 -118.569,72.073C-121.413,71.064 -121.592,69.433 -121.458,67.7C-121.301,65.673 -120.556,63.824 -119.577,62.058C-117.387,58.109 -114.625,54.562 -111.872,51.005C-101.682,37.837 -91.451,24.701 -81.358,11.459C-78.032,7.095 -75.053,2.464 -71.963,-2.077C-68.083,-7.781 -63.507,-8.175 -59.138,-2.801C-53.573,4.046 -48.282,11.115 -42.852,18.072C-31.647,32.428 -19.279,45.661 -5.188,57.252C-3.065,58.999 -0.525,60.55 0,63.898" style="fill:rgb(199,113,23);fill-rule:nonzero;"/>
            </g>
            <g transform="matrix(1,0,0,1,196,97.791)">
                <path d="M0,-11.747C28.122,-12.174 56.237,-13.055 84.364,-13.049C85.862,-13.049 87.369,-13.12 88.856,-12.984C92.845,-12.618 93.58,-11.594 93.433,-7.385C93.363,-5.367 94.918,-3.139 92.462,-1.502C90.604,-0.263 88.56,-0.88 86.618,-0.938C66.656,-1.526 46.706,-0.641 26.753,-0.415C10.631,-0.231 -5.483,0.717 -21.601,1.322C-22.599,1.359 -23.598,1.37 -24.597,1.37C-29.558,1.373 -29.494,1.37 -29.52,-3.68C-29.528,-5.316 -30.074,-6.943 -30.197,-8.587C-30.364,-10.818 -29.381,-11.927 -26.967,-11.877C-20.976,-11.751 -14.982,-11.775 -8.989,-11.749C-5.993,-11.736 -2.996,-11.747 0,-11.747" style="fill:rgb(199,113,23);fill-rule:nonzero;"/>
            </g>
            <g transform="matrix(1,0,0,1,1153.73,18.913)">
                <path d="M0,13.483C-1.422,14.492 -2.974,14.012 -4.416,13.965C-20.059,13.457 -35.693,14.17 -51.321,14.52C-62.298,14.765 -73.278,15.152 -84.261,15.29C-85.917,15.31 -87.591,15.436 -89.207,14.853C-91.919,13.874 -92.415,13.035 -92.124,9.759C-92.11,9.597 -92.036,9.439 -92.029,9.277C-91.767,3.052 -91.767,3.032 -85.48,3.053C-66.652,3.116 -47.894,1.72 -29.137,0.327C-20.842,-0.289 -12.553,-1 -4.26,-1.641C-0.226,-1.953 0.843,-0.745 -0.822,2.855C-1.935,5.262 -2.044,7.193 -0.498,9.329C0.402,10.573 0.82,12.006 0,13.483" style="fill:rgb(199,113,23);fill-rule:nonzero;"/>
            </g>
            <g transform="matrix(1,0,0,1,266.213,16.0649)">
                <path d="M0,13.39C-0.852,14.15 -1.708,14.041 -2.52,14.024C-16.664,13.732 -30.813,13.83 -44.942,14.361C-58.075,14.855 -71.206,15.063 -84.343,15.188C-85.672,15.201 -87.027,15.255 -88.326,15.034C-91.529,14.489 -92.478,13.092 -92.245,9.609C-91.794,2.853 -91.795,2.926 -84.797,3.008C-70.983,3.17 -57.208,2.334 -43.442,1.275C-30.18,0.254 -16.915,-0.716 -3.647,-1.646C-0.526,-1.865 0.94,-0.322 -0.538,2.07C-2.494,5.237 -1.54,7.632 -0.023,10.314C0.458,11.164 0.79,12.169 0,13.39" style="fill:rgb(199,113,23);fill-rule:nonzero;"/>
            </g>
        </g>
    </g>
</svg>
