<?xml version="1.0" encoding="UTF-8" standalone="no"?>
<!DOCTYPE svg PUBLIC "-//W3C//DTD SVG 1.1//EN" "http://www.w3.org/Graphics/SVG/1.1/DTD/svg11.dtd">
<svg width="100%" height="100%" viewBox="0 0 100 100" version="1.1" xmlns="http://www.w3.org/2000/svg" xmlns:xlink="http://www.w3.org/1999/xlink" xml:space="preserve" xmlns:serif="http://www.serif.com/" style="fill-rule:evenodd;clip-rule:evenodd;stroke-linejoin:round;stroke-miterlimit:2;">
    <g transform="matrix(1,0,0,1,-23175.9,0)">
        <g>
            <g>
                <g transform="matrix(4.16667,0,0,4.16667,23175.9,0)">
                    <path d="M11,13.44L11,11.374L13,11.374L13,13.44L11,13.44ZM13,14.4L13,16L11,16L11,14.4L13,14.4Z" style="fill:rgb(5,5,5);"/>
                </g>
                <g transform="matrix(1.1709,0,0,1.1709,-3968.77,-6.63957)">
                    <path d="M23216,42C23216,37.033 23220.3,33 23225.5,33C23230.7,33 23235,37.033 23235,42C23235,46.967 23230.7,51 23225.5,51C23224.6,51 23223,50.685 23223,50.685C23223,50.685 23223.2,48.349 23221.9,46.145L23225.5,46.145C23227.9,46.145 23229.9,44.288 23229.9,42C23229.9,39.712 23227.9,37.855 23225.5,37.855C23223.1,37.855 23221.1,39.712 23221.1,42L23216,42Z"/>
                </g>
            </g>
            <g transform="matrix(4.16667,0,0,4.16667,23175.9,0)">
                <path d="M12,20C7.59,20 4,16.41 4,12C4,7.59 7.59,4 12,4C16.41,4 20,7.59 20,12C20,16.41 16.41,20 12,20M12,22C17.52,22 22,17.52 22,12C22,6.48 17.52,2 12,2C6.48,2 2,6.48 2,12C2,17.52 6.48,22 12,22" style="fill:rgb(5,5,5);fill-rule:nonzero;"/>
                <rect x="0" y="0" width="24" height="24" style="fill:none;"/>
            </g>
        </g>
    </g>
</svg>
