<?xml version="1.0" encoding="UTF-8" standalone="no"?>
<!DOCTYPE svg PUBLIC "-//W3C//DTD SVG 1.1//EN" "http://www.w3.org/Graphics/SVG/1.1/DTD/svg11.dtd">
<svg width="100%" height="100%" viewBox="0 0 100 100" version="1.1" xmlns="http://www.w3.org/2000/svg" xmlns:xlink="http://www.w3.org/1999/xlink" xml:space="preserve" xmlns:serif="http://www.serif.com/" style="fill-rule:evenodd;clip-rule:evenodd;stroke-linejoin:round;stroke-miterlimit:2;">
    <g transform="matrix(1,0,0,1,-23054.5,0)">
        <g>
            <g transform="matrix(4.16667,0,0,4.16667,23054.5,0)">
                <path d="M11,13.44L11,7.92L13,7.92L13,13.44L11,13.44ZM13,14.4L13,16L11,16L11,14.4L13,14.4Z" style="fill:rgb(5,5,5);"/>
            </g>
            <g transform="matrix(4.16667,0,0,4.16667,23054.5,0)">
                <path d="M12,20C7.59,20 4,16.41 4,12C4,7.59 7.59,4 12,4C16.41,4 20,7.59 20,12C20,16.41 16.41,20 12,20M12,22C17.52,22 22,17.52 22,12C22,6.48 17.52,2 12,2C6.48,2 2,6.48 2,12C2,17.52 6.48,22 12,22" style="fill:rgb(5,5,5);fill-rule:nonzero;"/>
                <rect x="0" y="0" width="24" height="24" style="fill:none;"/>
            </g>
        </g>
    </g>
</svg>
