<?xml version="1.0" encoding="UTF-8" standalone="no"?>
<!DOCTYPE svg PUBLIC "-//W3C//DTD SVG 1.1//EN" "http://www.w3.org/Graphics/SVG/1.1/DTD/svg11.dtd">
<svg width="100%" height="100%" viewBox="0 0 2382 650" version="1.1" xmlns="http://www.w3.org/2000/svg" xmlns:xlink="http://www.w3.org/1999/xlink" xml:space="preserve" xmlns:serif="http://www.serif.com/" style="fill-rule:evenodd;clip-rule:evenodd;stroke-linejoin:round;stroke-miterlimit:1.41421;">
    <g transform="matrix(1,0,0,1,-348.359,-9137.2)">
        <g transform="matrix(1,0,0,1,0,7962)">
            <g transform="matrix(1.51567,0,0,1.51567,-734.271,-773.51)">
                <g>
                    <path d="M2084.33,1714.29L2000.2,1714.29L2085.11,1567.93L1964.18,1361.48L2048.85,1361.48C2075.04,1405.56 2101.24,1449.65 2127.44,1493.73L2201.8,1361.48L2285.71,1361.48L2084.33,1714.29ZM868.412,1551.41L903.214,1610.82L896.08,1616.2C895.093,1616.93 895.094,1616.92 894.1,1617.65C891.382,1619.58 888.615,1621.44 885.771,1623.19C880.213,1626.6 874.408,1629.61 868.413,1632.18C862.075,1634.89 855.524,1637.11 848.841,1638.81C842.226,1640.49 835.482,1641.65 828.69,1642.32C822.739,1642.9 816.754,1643.09 810.777,1642.93C796.074,1642.55 781.283,1639.99 767.762,1634.05C765.509,1633.06 763.297,1631.98 761.135,1630.81C758.264,1629.25 755.482,1627.53 752.813,1625.64C749.642,1623.41 746.631,1620.95 743.812,1618.28C739.619,1614.32 735.859,1609.9 732.587,1605.15C730.804,1602.56 729.165,1599.88 727.67,1597.11C726.454,1594.86 725.333,1592.56 724.304,1590.22C717.984,1575.85 715.189,1560.14 714.478,1544.52C714.35,1541.72 714.296,1538.92 714.29,1536.12L714.29,1285.71L788.623,1285.71L788.623,1361.88L880.565,1361.88L880.565,1432.67L788.623,1432.67C788.623,1467.14 788.488,1501.6 788.626,1536.06C788.678,1540.23 788.986,1544.4 789.807,1548.49C790.332,1551.11 791.063,1553.69 792.1,1556.15C793.064,1558.43 794.298,1560.62 795.879,1562.54C796.642,1563.46 797.484,1564.32 798.397,1565.1C798.996,1565.6 799.624,1566.08 800.278,1566.51C804.377,1569.24 809.327,1570.42 814.182,1570.79C815.098,1570.86 816.015,1570.9 816.933,1570.92C818.126,1570.94 819.32,1570.92 820.512,1570.87C822.05,1570.8 823.585,1570.67 825.112,1570.48C827.094,1570.24 829.065,1569.9 831.015,1569.47C833.638,1568.89 836.225,1568.15 838.761,1567.27C839.908,1566.87 841.046,1566.44 842.172,1565.98L842.171,1565.98C842.171,1565.98 854.035,1561.63 868.412,1551.41ZM1039.55,1356.67C1042.07,1356.69 1044.59,1356.75 1047.11,1356.89C1052.36,1357.16 1057.61,1357.7 1062.81,1358.5C1075.8,1360.51 1088.54,1364.2 1100.55,1369.56C1108.5,1373.11 1116.12,1377.39 1123.28,1382.34C1131.06,1387.72 1138.29,1393.9 1144.81,1400.75C1156.93,1413.49 1166.55,1428.56 1173.07,1444.89C1176.59,1453.7 1179.21,1462.87 1180.92,1472.2C1182.59,1481.27 1183.4,1490.48 1183.4,1499.7C1183.4,1510.44 1182.31,1521.19 1180.04,1531.69C1177.44,1543.79 1173.29,1555.55 1167.66,1566.57C1161.12,1579.38 1152.58,1591.14 1142.42,1601.32C1134.29,1609.45 1125.15,1616.56 1115.27,1622.44C1105.7,1628.14 1095.46,1632.7 1084.83,1636.03C1070.19,1640.63 1054.87,1642.89 1039.55,1642.98C1022.4,1643.08 1005.23,1640.46 988.996,1634.92C976.311,1630.59 964.234,1624.5 953.268,1616.78C941.081,1608.22 930.303,1597.67 921.485,1585.66C912.724,1573.73 905.925,1560.39 901.328,1546.32C896.615,1531.9 894.23,1516.75 894.05,1501.58C893.937,1492.05 894.685,1482.5 896.345,1473.11C898.099,1463.18 900.873,1453.44 904.655,1444.1C910.603,1429.41 919.051,1415.76 929.595,1403.93C936.26,1396.45 943.745,1389.7 951.87,1383.85C959.147,1378.6 966.934,1374.06 975.078,1370.3C987.54,1364.53 1000.82,1360.6 1014.39,1358.5C1019.28,1357.75 1024.2,1357.23 1029.14,1356.94C1031.34,1356.81 1033.54,1356.73 1035.74,1356.69C1037.01,1356.67 1038.28,1356.66 1039.55,1356.67ZM1271.56,1638.17L1196.86,1638.17L1196.86,1361.48L1271.05,1361.48L1271.05,1372.57C1271.6,1372.24 1272.16,1371.93 1272.72,1371.62C1273.49,1371.19 1273.49,1371.19 1274.26,1370.77C1275.8,1369.96 1277.35,1369.17 1278.92,1368.42C1282.03,1366.94 1285.2,1365.61 1288.43,1364.42C1303.54,1358.85 1319.7,1356.45 1335.77,1356.68C1347.14,1356.84 1358.5,1358.27 1369.49,1361.17C1383.37,1364.85 1396.62,1370.92 1408.21,1379.42C1411.89,1382.12 1415.39,1385.06 1418.68,1388.21C1420.33,1389.79 1421.91,1391.42 1423.46,1393.09L1423.7,1393.37C1424,1393.04 1424.3,1392.72 1424.6,1392.4C1425.34,1391.62 1425.34,1391.62 1426.09,1390.85C1427.59,1389.34 1429.11,1387.87 1430.69,1386.44C1434.29,1383.19 1438.11,1380.19 1442.12,1377.46C1455.16,1368.59 1470.06,1362.67 1485.48,1359.51C1491.59,1358.26 1497.78,1357.43 1504,1357.01C1506.73,1356.82 1509.47,1356.72 1512.21,1356.67L1513.32,1356.67L1513.46,1356.67L1513.69,1356.67L1513.9,1356.67L1514.09,1356.67C1514.88,1356.66 1515.68,1356.67 1516.48,1356.68C1527.84,1356.84 1539.2,1358.27 1550.19,1361.17C1556.86,1362.94 1563.39,1365.26 1569.66,1368.14L1570.02,1368.3L1570.19,1368.38L1570.41,1368.49L1570.57,1368.56C1572.63,1369.53 1574.67,1370.56 1576.67,1371.65C1586.04,1376.76 1594.67,1383.23 1602.12,1390.89C1602.9,1391.7 1603.67,1392.52 1604.42,1393.35C1604.71,1393.03 1605.01,1392.72 1605.3,1392.4C1606.04,1391.62 1606.04,1391.62 1606.79,1390.85C1608.29,1389.34 1609.81,1387.87 1611.39,1386.44C1614.99,1383.19 1618.82,1380.19 1622.83,1377.46C1636.13,1368.41 1651.36,1362.44 1667.12,1359.32C1672.92,1358.18 1678.8,1357.41 1684.7,1357.01C1686.13,1356.91 1687.56,1356.83 1688.99,1356.78L1689.27,1356.77L1689.77,1356.75L1689.83,1356.75L1689.91,1356.75L1690.78,1356.72L1691.71,1356.7L1691.88,1356.69L1691.96,1356.69L1692.29,1356.68L1692.47,1356.68L1692.91,1356.67L1693.35,1356.67L1693.79,1356.67L1694.5,1356.67L1694.6,1356.67L1694.69,1356.67L1695.3,1356.67L1695.75,1356.67L1696.29,1356.67L1696.7,1356.68L1696.81,1356.68L1697.84,1356.7C1698.29,1356.71 1698.74,1356.72 1699.19,1356.73L1699.39,1356.74L1699.73,1356.75L1700,1356.76L1700.26,1356.77C1703.07,1356.87 1705.88,1357.04 1708.68,1357.3C1716.86,1358.06 1724.97,1359.51 1732.88,1361.74C1741.82,1364.26 1750.49,1367.78 1758.6,1372.33C1767.5,1377.32 1775.7,1383.57 1782.82,1390.89C1783.54,1391.63 1784.25,1392.38 1784.94,1393.14C1785.17,1392.9 1785.4,1392.65 1785.63,1392.4C1786.37,1391.62 1786.37,1391.62 1787.12,1390.85C1788.62,1389.34 1790.14,1387.87 1791.72,1386.44C1795.32,1383.19 1799.15,1380.19 1803.15,1377.46C1816.46,1368.41 1831.69,1362.44 1847.45,1359.32C1853.25,1358.18 1859.13,1357.41 1865.03,1357.01C1867.76,1356.82 1870.5,1356.72 1873.24,1356.67C1874.37,1356.66 1875.49,1356.66 1876.62,1356.67C1880.76,1356.72 1884.89,1356.92 1889.01,1357.3C1897.19,1358.06 1905.3,1359.51 1913.21,1361.74C1922.15,1364.26 1930.82,1367.78 1938.93,1372.33C1947.83,1377.32 1956.03,1383.57 1963.15,1390.89C1967.99,1395.87 1972.32,1401.34 1976.07,1407.18C1980.9,1414.73 1984.75,1422.88 1987.57,1431.38C1990.28,1439.53 1992.06,1447.97 1992.98,1456.51C1993.47,1461.08 1993.71,1465.68 1993.75,1470.28L1993.75,1471.03L1993.75,1638.17L1919.31,1638.17C1919.31,1586.3 1919.53,1534.44 1919.31,1482.57C1919.29,1481.68 1919.29,1481.68 1919.27,1480.79C1919.22,1479.07 1919.14,1477.35 1919,1475.64C1918.87,1474.02 1918.69,1472.41 1918.46,1470.81C1917.26,1462.4 1914.65,1453.98 1909.68,1447.01C1909.04,1446.11 1908.36,1445.24 1907.64,1444.4C1906.3,1442.82 1904.83,1441.35 1903.25,1440.02C1902.21,1439.14 1901.12,1438.32 1899.99,1437.56C1893.43,1433.14 1885.67,1430.85 1877.88,1429.89C1875.23,1429.57 1872.57,1429.4 1869.9,1429.35C1865.25,1429.26 1860.59,1429.59 1856.01,1430.46C1851.39,1431.34 1846.86,1432.75 1842.58,1434.74C1837.4,1437.14 1832.61,1440.37 1828.52,1444.36C1825.35,1447.46 1822.61,1451 1820.39,1454.84C1818.12,1458.77 1816.4,1463.01 1815.21,1467.39C1813.7,1472.97 1813.06,1478.74 1813.04,1484.52L1813.04,1638.17L1738.6,1638.17C1738.6,1586.3 1738.83,1534.44 1738.6,1482.57C1738.57,1480.54 1738.5,1478.51 1738.35,1476.48C1738.24,1474.84 1738.07,1473.21 1737.86,1471.59C1736.68,1462.63 1733.93,1453.64 1728.49,1446.32C1727.78,1445.36 1727.03,1444.44 1726.23,1443.56C1724.91,1442.09 1723.48,1440.73 1721.94,1439.48C1718.46,1436.66 1714.48,1434.5 1710.28,1432.94C1706.12,1431.4 1701.75,1430.44 1697.35,1429.89C1694.72,1429.57 1692.08,1429.4 1689.43,1429.35C1688.89,1429.34 1688.35,1429.33 1687.81,1429.33C1683.74,1429.35 1679.68,1429.7 1675.68,1430.46C1671.06,1431.34 1666.53,1432.75 1662.25,1434.74C1657.08,1437.14 1652.28,1440.37 1648.19,1444.36C1645.02,1447.46 1642.28,1451 1640.06,1454.84C1637.79,1458.77 1636.07,1463.01 1634.88,1467.39C1633.43,1472.74 1632.78,1478.27 1632.72,1483.81L1632.72,1638.17L1558.27,1638.17C1558.27,1586.3 1558.5,1534.44 1558.27,1482.57C1558.24,1480.54 1558.17,1478.51 1558.02,1476.48C1557.9,1474.84 1557.74,1473.21 1557.53,1471.59C1556.94,1467.13 1555.96,1462.65 1554.45,1458.38L1554.41,1458.25L1554.19,1457.66L1554.09,1457.37L1553.92,1456.94L1553.76,1456.54L1553.65,1456.26L1553.43,1455.73L1553.38,1455.6C1552.08,1452.49 1550.47,1449.52 1548.48,1446.78C1547.84,1445.89 1547.15,1445.02 1546.44,1444.19C1545.09,1442.62 1543.6,1441.17 1542.01,1439.84C1540.96,1438.97 1539.87,1438.16 1538.73,1437.4C1532.22,1433.09 1524.54,1430.84 1516.85,1429.89C1514.2,1429.57 1511.54,1429.4 1508.87,1429.35C1508.35,1429.34 1507.83,1429.33 1507.31,1429.33C1503.26,1429.35 1499.21,1429.7 1495.23,1430.46C1490.39,1431.38 1485.66,1432.89 1481.21,1435.01C1476.07,1437.47 1471.32,1440.77 1467.29,1444.8C1464.07,1448.02 1461.32,1451.7 1459.12,1455.69C1457.03,1459.49 1455.44,1463.55 1454.33,1467.74C1452.88,1473.22 1452.27,1478.87 1452.26,1484.52L1452.26,1638.17L1377.56,1638.17L1377.57,1638.14C1377.57,1586.29 1377.79,1534.43 1377.57,1482.57C1377.54,1480.54 1377.47,1478.51 1377.32,1476.47C1377.2,1474.84 1377.04,1473.21 1376.83,1471.59C1375.66,1462.72 1372.95,1453.82 1367.62,1446.54C1366.86,1445.51 1366.06,1444.51 1365.2,1443.56C1363.88,1442.09 1362.45,1440.73 1360.91,1439.48C1357.18,1436.47 1352.89,1434.21 1348.37,1432.63C1344.47,1431.27 1340.41,1430.4 1336.31,1429.89C1333.69,1429.57 1331.05,1429.4 1328.4,1429.35C1323.75,1429.26 1319.1,1429.59 1314.53,1430.46C1309.9,1431.34 1305.37,1432.75 1301.1,1434.74C1295.82,1437.18 1290.95,1440.49 1286.81,1444.58C1283.42,1447.93 1280.54,1451.79 1278.27,1455.98C1276.25,1459.69 1274.71,1463.66 1273.63,1467.74C1272.18,1473.21 1271.57,1478.86 1271.56,1484.51L1271.56,1638.17ZM1038.72,1428.05C1078.33,1428.05 1110.49,1460.21 1110.49,1499.83C1110.49,1539.44 1078.33,1571.6 1038.72,1571.6C999.108,1571.6 966.948,1539.44 966.948,1499.83C966.948,1460.21 999.108,1428.05 1038.72,1428.05Z" style="fill:rgb(255,143,0);"/>
                </g>
            </g>
        </g>
    </g>
</svg>
