<?xml version="1.0" encoding="UTF-8" standalone="no"?>
<!DOCTYPE svg PUBLIC "-//W3C//DTD SVG 1.1//EN" "http://www.w3.org/Graphics/SVG/1.1/DTD/svg11.dtd">
<svg width="100%" height="100%" viewBox="0 0 769 914" version="1.1" xmlns="http://www.w3.org/2000/svg" xmlns:xlink="http://www.w3.org/1999/xlink" xml:space="preserve" xmlns:serif="http://www.serif.com/" style="fill-rule:evenodd;clip-rule:evenodd;stroke-linejoin:round;stroke-miterlimit:2;">
    <g transform="matrix(1,0,0,1,-3158.3,3712)">
        <g transform="matrix(4.16667,0,0,4.16667,3148.75,-3728.06)">
            <g transform="matrix(1,0,0,1,57.006,65.2561)">
                <path d="M0,96.597C1.432,94.1 -1.376,76.123 -3.392,73.466C-3.103,76.301 -2.864,78.945 -2.553,81.581C-2.372,83.113 -2.079,84.632 -1.83,86.156C-1.504,88.149 -1.184,90.143 -0.838,92.133C-0.592,93.55 -0.309,94.96 0,96.597M-31.419,35.039C-32.31,36.044 -33.068,36.888 -33.813,37.742C-36.931,41.31 -40.185,44.724 -44.317,47.159C-45.095,47.617 -44.707,48.01 -44.271,48.46C-40.954,51.88 -37.639,55.302 -34.35,58.749C-33.387,59.758 -32.507,60.846 -31.419,62.095L-31.419,35.039ZM83.636,-7.663C83.362,-6.963 83.117,-6.584 83.071,-6.182C82.809,-3.894 82.578,-1.603 82.368,0.69C82.122,3.375 81.908,6.063 81.677,8.749C81.667,8.867 81.614,8.98 81.593,9.097C81.234,11.115 80.951,13.151 80.499,15.148C79.963,17.522 79.44,19.923 78.605,22.199C78.079,23.631 76.91,24.65 75.086,24.522C73.346,24.4 72.231,23.475 71.713,21.949C71.02,19.91 70.349,17.832 70,15.717C69.463,12.466 69.05,9.178 68.874,5.89C68.648,1.666 68.705,-2.573 68.65,-6.805C68.633,-8.151 68.647,-9.498 68.647,-10.844C68.296,-10.673 68.172,-10.474 68.14,-10.261C67.887,-8.575 67.605,-6.893 67.421,-5.199C67.147,-2.676 66.947,-0.144 66.713,2.385C66.691,2.623 66.65,2.859 66.619,3.096C66.248,5.959 65.812,8.814 65.524,11.685C65.234,14.575 65.117,17.483 64.875,20.379C64.699,22.479 64.488,24.578 64.212,26.667C63.952,28.632 63.483,30.573 63.294,32.542C63.067,34.922 62.469,37.158 61.389,39.283C60.745,40.552 59.776,41.328 58.333,41.391C56.941,41.453 55.732,40.854 55.132,39.676C54.482,38.401 53.961,36.962 53.812,35.55C53.444,32.064 53.272,28.554 53.116,25.049C53.019,22.856 53.093,20.655 53.091,18.457L53.091,16.524C52.476,19.074 52.092,21.615 51.828,24.169C51.525,27.094 51.33,30.03 51.087,32.961C51.077,33.08 51.053,33.198 51.038,33.317C50.682,36.188 50.29,39.056 49.982,41.932C49.723,44.346 49.643,46.781 49.331,49.187C49.119,50.822 48.709,52.442 48.267,54.035C47.722,55.995 46.087,56.608 45.033,56.524C43.354,56.391 42.053,55.064 41.808,53.317C41.41,50.484 40.975,47.653 40.713,44.806C40.402,41.436 40.242,38.051 40.045,34.67C39.783,30.173 39.55,25.673 39.299,21.175C39.296,21.13 39.21,21.089 38.996,20.893C38.878,21.842 38.759,22.654 38.679,23.471C38.613,24.145 38.641,24.831 38.542,25.5C38.211,27.733 37.777,29.953 37.5,32.193C37.048,35.854 36.637,39.521 36.303,43.194C36.004,46.486 35.736,49.786 35.624,53.088C35.371,60.511 35.273,67.94 34.979,75.361C34.937,76.42 34.332,77.584 33.661,78.447C33.235,78.995 32.142,79.424 31.462,79.297C29.471,78.927 28.376,77.431 28.01,75.519C27.518,72.949 27.165,70.352 26.781,67.762C26.531,66.07 26.342,64.37 26.107,62.676C25.765,60.203 25.327,57.741 25.074,55.259C24.754,52.134 24.58,48.994 24.341,45.861C24.325,45.662 24.279,45.466 24.257,45.268C23.887,41.832 23.521,38.395 23.147,34.96C23.066,34.21 22.96,33.464 22.831,32.452C22.478,34.213 22.104,35.635 21.919,37.081C21.463,40.659 21.044,44.242 20.703,47.832C20.421,50.805 20.249,53.789 20.067,56.77C19.888,59.717 19.637,62.667 19.631,65.615C19.619,71.403 19.746,77.192 19.836,82.979C19.856,84.256 20.012,85.532 20.011,86.809C20.011,88.39 18.78,90.062 17.556,90.279C15.992,90.556 14.84,89.889 14.109,88.065C13.749,87.166 13.624,86.163 13.466,85.195C13.096,82.925 12.659,80.657 12.45,78.37C12.119,74.756 11.937,71.128 11.719,67.505C11.36,61.574 11.041,55.641 10.669,49.712C10.497,46.973 10.24,44.239 10.016,41.504C10.003,41.347 9.937,41.195 9.907,41.039C9.553,39.218 9.259,37.384 8.832,35.581C8.432,33.898 7.938,32.234 7.394,30.592C7.112,29.737 6.488,29.554 5.914,30.362C4.221,32.746 2.424,35.073 0.94,37.582C-0.848,40.604 -2.197,43.889 -4.037,46.875C-5.549,49.33 -5.924,51.833 -5.514,54.565C-5.322,55.844 -4.901,56.98 -3.825,57.864C-3.103,58.457 -2.432,59.222 -2.007,60.048C-0.529,62.917 0.954,65.796 2.199,68.77C3.17,71.089 3.869,73.533 4.541,75.963C5.068,77.865 5.439,79.819 5.753,81.771C6.204,84.582 6.761,87.403 6.877,90.236C7.064,94.808 7.143,99.399 6.294,103.946C5.945,105.813 5.856,107.729 5.504,109.595C5.28,110.785 4.886,111.97 4.391,113.077C3.886,114.207 3.156,115.225 1.782,115.485C-0.817,115.976 -2.811,114.708 -3.64,112.012C-4.321,109.797 -5.017,107.586 -5.65,105.357C-6.243,103.269 -6.856,101.178 -7.289,99.053C-7.811,96.489 -8.151,93.888 -8.573,91.303C-9.121,87.947 -9.743,84.6 -10.198,81.231C-10.56,78.555 -10.717,75.852 -10.966,73.161C-10.988,72.923 -11.019,72.685 -11.046,72.447C-11.412,69.248 -11.863,66.056 -12.101,62.848C-12.195,61.586 -12.402,60.668 -13.605,60.016C-15.095,59.209 -15.622,57.131 -14.647,55.539C-13.168,53.124 -13.054,50.548 -13.433,47.855C-13.797,45.26 -14.109,42.658 -14.429,40.058C-14.676,38.051 -14.871,36.038 -15.146,34.035C-15.344,32.585 -15.619,31.145 -15.888,29.706C-16.216,27.953 -16.584,26.208 -16.914,24.456C-17.185,23.014 -17.399,21.562 -17.691,20.126C-17.819,19.495 -18.079,18.891 -18.368,17.999C-19.318,19.247 -20,20.369 -20.9,21.275C-22.332,22.716 -22.74,24.543 -22.896,26.382C-23.238,30.396 -23.525,34.424 -23.576,38.449C-23.718,49.574 -23.974,60.704 -22.497,71.787C-22.238,73.728 -22.013,75.585 -21.186,77.396C-20.372,79.177 -19.885,81.105 -19.182,82.94C-18.845,83.819 -18.703,84.633 -19.345,85.389C-20.305,86.521 -20.212,87.801 -19.934,89.11C-19.836,89.573 -19.621,90.009 -19.513,90.47C-19.037,92.498 -18.658,94.553 -18.096,96.556C-17.425,98.945 -16.641,101.305 -15.837,103.653C-14.83,106.592 -13.916,109.578 -12.669,112.415C-10.85,116.552 -8.948,120.672 -6.755,124.618C-4.146,129.313 -1.303,133.889 1.65,138.376C3.925,141.832 6.652,144.962 9.868,147.616C13.249,150.406 17.609,150.598 21.129,148.167C25.463,145.174 28.662,141.113 31.495,136.795C34.257,132.586 36.765,128.206 39.261,123.831C43.15,117.01 46.83,110.07 50.788,103.291C55.468,95.278 60.277,87.339 65.163,79.45C70.162,71.378 75.724,63.692 81.609,56.239C85.166,51.733 88.895,47.385 93.211,43.589C95.488,41.587 97.98,39.885 101.254,40.056C101.391,40.063 101.534,39.946 101.767,39.848C101.492,36.745 101.261,33.653 100.932,30.571C100.621,27.655 100.167,24.755 99.851,21.84C99.62,19.708 99.423,17.564 99.361,15.421C99.175,8.995 99.06,2.566 98.923,-3.862C98.904,-4.75 98.92,-5.638 98.92,-6.623C98.699,-6.477 98.584,-6.431 98.512,-6.348C98.122,-5.898 97.782,-5.394 97.351,-4.988C94.995,-2.77 92.623,-0.598 88.953,-1.947C87.162,-2.606 85.849,-3.78 84.899,-5.399C84.515,-6.053 84.158,-6.724 83.636,-7.663M-21.339,11.528C-20.158,10.731 -19.364,9.92 -18.405,9.602C-15.892,8.767 -13.898,10.06 -12.957,12.376C-11.906,14.961 -11.161,17.682 -10.442,20.386C-9.772,22.902 -9.268,25.465 -8.775,28.023C-8.46,29.654 -8.284,31.313 -8.068,32.963C-7.809,34.931 -7.584,36.903 -7.319,38.87C-7.278,39.169 -7.094,39.448 -6.82,40.122C-6.468,39.508 -6.278,39.152 -6.065,38.811C-4.069,35.601 -2.162,32.33 -0.033,29.212C1.094,27.561 2.411,25.91 3.995,24.732C6.461,22.898 9.647,23.626 11.563,26.153C13.242,28.366 14.127,30.943 14.703,33.634C15.17,35.82 15.632,38.007 16.083,40.132C16.223,39.465 16.453,38.701 16.533,37.921C16.788,35.43 16.926,32.925 17.23,30.44C17.474,28.44 17.917,26.464 18.228,24.47C18.52,22.594 18.684,20.696 19.038,18.832C19.278,17.57 19.665,16.32 20.138,15.124C20.606,13.94 21.701,13.34 22.89,13.4C24.207,13.467 25.413,14.186 25.903,15.444C26.523,17.039 26.915,18.731 27.309,20.404C27.716,22.135 28.048,23.886 28.336,25.64C28.619,27.364 28.851,29.099 29.023,30.837C29.279,33.414 29.427,36.002 29.688,38.579C29.88,40.467 30.181,42.345 30.572,44.255C30.727,42.241 30.834,40.221 31.047,38.213C31.32,35.645 31.677,33.086 31.999,30.523C32.211,28.828 32.442,27.134 32.632,25.437C32.893,23.11 33.074,20.774 33.378,18.454C33.681,16.139 34.093,13.839 34.458,11.532C34.483,11.374 34.527,11.219 34.541,11.061C34.792,8.254 34.96,5.437 35.316,2.644C35.533,0.938 35.911,-0.774 36.459,-2.402C36.844,-3.547 37.869,-4.213 39.172,-4.158C40.485,-4.103 41.671,-3.53 42.14,-2.345C42.918,-0.378 43.661,1.665 43.969,3.742C44.553,7.673 44.811,11.651 45.217,15.608C45.48,18.182 45.767,20.753 46.037,23.269C46.158,22.815 46.386,22.255 46.447,21.677C46.71,19.184 46.885,16.681 47.168,14.191C47.454,11.666 47.829,9.152 48.166,6.633C48.188,6.475 48.229,6.319 48.244,6.16C48.488,3.552 48.676,0.937 48.987,-1.663C49.278,-4.101 49.718,-6.521 50.049,-8.954C50.161,-9.782 50.061,-10.641 50.195,-11.462C50.507,-13.362 50.788,-15.279 51.303,-17.127C51.676,-18.467 52.966,-18.774 54.202,-18.715C55.615,-18.647 56.689,-17.876 57.155,-16.532C57.644,-15.12 58.1,-13.671 58.325,-12.2C58.666,-9.961 58.895,-7.694 58.997,-5.431C59.248,0.191 59.399,5.817 59.599,11.441C59.608,11.692 59.705,11.939 59.761,12.189C59.871,12.193 59.981,12.197 60.092,12.201C60.183,11.404 60.268,10.607 60.367,9.812C60.731,6.866 61.105,3.921 61.466,0.975C61.655,-0.564 61.835,-2.103 62.001,-3.644C62.231,-5.776 62.395,-7.917 62.68,-10.042C62.958,-12.116 63.351,-14.175 63.697,-16.241C63.73,-16.437 63.795,-16.629 63.82,-16.826C64.068,-18.785 64.259,-20.753 64.567,-22.703C64.929,-24.999 65.284,-27.306 65.846,-29.557C66.232,-31.102 67.238,-32.29 68.899,-32.738C69.591,-32.925 71.605,-31.91 72.149,-31.079C73.33,-29.272 73.732,-27.215 73.993,-25.131C75.207,-15.44 75.02,-5.692 75.18,4.043C75.211,5.942 75.596,7.834 75.922,9.736C76.12,7.59 76.285,5.439 76.525,3.298C76.818,0.692 77.174,-1.906 77.505,-4.508C77.525,-4.666 77.574,-4.821 77.588,-4.979C77.814,-7.51 77.975,-10.048 78.278,-12.569C78.555,-14.884 78.983,-17.18 79.345,-19.485C79.358,-19.564 79.379,-19.642 79.387,-19.721C79.634,-22.242 79.842,-24.767 80.137,-27.283C80.441,-29.874 80.804,-32.46 81.191,-35.041C81.347,-36.083 81.501,-37.158 81.887,-38.125C82.711,-40.187 85.902,-40.067 87.025,-38.034C87.462,-37.243 87.694,-36.252 87.728,-35.34C87.99,-28.476 88.073,-21.602 88.457,-14.745C88.573,-12.661 89.332,-10.578 90.028,-8.574C90.582,-6.98 91.21,-6.895 92.396,-8.121C93.55,-9.313 94.777,-10.526 95.575,-11.951C96.775,-14.092 97.738,-16.386 98.602,-18.689C99.689,-21.587 99.751,-24.669 99.805,-27.729C99.881,-32.042 99.903,-36.356 100.028,-40.667C100.134,-44.335 100.163,-48.022 100.586,-51.658C100.885,-54.222 100.899,-56.905 102.243,-59.287C103.035,-60.691 104.255,-61.391 105.741,-61.401C107.438,-61.412 108.914,-60.087 109.293,-58.37C109.583,-57.062 109.787,-55.715 109.836,-54.378C109.92,-52.104 109.983,-49.814 109.815,-47.549C109.587,-44.461 109.056,-41.396 108.794,-38.309C108.319,-32.721 107.698,-27.128 107.586,-21.528C107.385,-11.503 107.454,-1.471 107.54,8.557C107.574,12.581 107.889,16.607 108.185,20.624C108.506,24.991 108.933,29.35 109.35,33.71C109.683,37.195 110.122,40.67 110.404,44.159C110.492,45.243 110.487,46.475 110.063,47.436C108.782,50.342 106.324,50.965 103.326,49.344C102.873,49.099 102.452,48.795 101.998,48.55C100.986,48.006 99.979,47.852 99.07,48.749C96.267,51.513 93.243,54.092 90.729,57.098C86.864,61.72 83.158,66.504 79.737,71.462C75.23,77.995 70.904,84.665 66.794,91.455C62.026,99.329 57.567,107.391 52.993,115.383C48.974,122.406 45.009,129.46 40.968,136.47C38.222,141.234 35.043,145.704 31.256,149.702C28.17,152.961 24.758,155.892 20.32,157.04C18.236,157.58 16.102,158.009 13.754,157.597C7.673,156.531 3.571,152.735 -0.267,148.396C-3.612,144.614 -6.508,140.51 -9.08,136.175C-11.219,132.571 -13.385,128.98 -15.392,125.302C-16.775,122.767 -17.978,120.125 -19.13,117.474C-20.35,114.665 -21.478,111.811 -22.527,108.933C-23.336,106.716 -23.951,104.428 -24.668,102.177C-25.216,100.46 -25.851,98.769 -26.333,97.034C-26.85,95.17 -27.27,93.276 -27.668,91.381C-28.245,88.633 -28.798,85.88 -29.294,83.116C-29.609,81.366 -29.967,79.598 -30.009,77.831C-30.071,75.254 -30.898,73.129 -32.497,71.084C-37.577,64.586 -43.018,58.436 -49.151,52.914C-50.421,51.77 -51.83,50.781 -53.124,49.662C-54.532,48.443 -55.084,46.796 -54.464,45.404C-53.805,43.926 -52.489,43.321 -50.927,43.141C-48.836,42.9 -47.237,41.626 -45.623,40.45C-40.284,36.56 -36.321,31.362 -32.266,26.256C-31.821,25.695 -31.296,25.166 -30.989,24.534C-30.586,23.707 -30.22,22.813 -30.089,21.912C-29.637,18.777 -29.294,15.627 -28.907,12.483C-28.713,10.907 -28.524,9.331 -28.314,7.757C-27.902,4.683 -27.558,1.597 -27.034,-1.458C-26.601,-3.979 -25.961,-6.466 -25.391,-8.963C-24.954,-10.88 -24.702,-12.876 -23.977,-14.68C-22.872,-17.428 -22.263,-20.508 -19.68,-22.456C-19.053,-22.929 -18.44,-23.429 -17.766,-23.824C-17.502,-23.979 -16.969,-24.026 -16.776,-23.864C-16.534,-23.661 -16.364,-23.163 -16.424,-22.841C-16.965,-19.933 -17.581,-17.038 -18.138,-14.133C-18.406,-12.736 -18.631,-11.329 -18.809,-9.918C-19.068,-7.873 -19.237,-5.816 -19.501,-3.771C-19.78,-1.604 -20.173,0.549 -20.431,2.718C-20.77,5.584 -21.027,8.459 -21.339,11.528" style="fill:rgb(35,31,32);fill-rule:nonzero;"/>
            </g>
            <g transform="matrix(1,0,0,1,172.892,71.2538)">
                <path d="M0,18.27C0.382,15.832 0.757,13.169 1.229,10.523C1.588,8.505 1.953,6.475 2.529,4.514C3.167,2.341 4.023,0.231 4.831,-1.888C5.405,-3.396 5.962,-4.923 6.699,-6.352C7.462,-7.832 8.51,-9.033 10.128,-9.814C11.362,-10.41 12.238,-9.824 12.922,-9.275C13.519,-8.797 13.786,-7.747 13.921,-6.905C14.027,-6.243 13.514,-5.714 13.008,-5.138C12.054,-4.051 11.306,-2.7 10.776,-1.34C9.733,1.336 8.844,4.077 7.996,6.823C7.428,8.664 7.059,10.567 6.565,12.432C6.256,13.598 5.866,14.743 5.539,15.905C5.264,16.88 4.918,17.853 4.797,18.85C4.527,21.084 4.318,23.33 4.213,25.577C4.178,26.319 4.579,27.074 4.688,27.836C4.723,28.076 4.501,28.535 4.316,28.584C3.972,28.674 3.425,28.68 3.213,28.469C1.766,27.033 1.235,25.234 0.665,23.242C0.207,21.641 -0.033,21.641 0,18.27" style="fill:rgb(35,31,32);fill-rule:nonzero;"/>
            </g>
        </g>
    </g>
</svg>
