<?xml version="1.0" encoding="UTF-8" standalone="no"?>
<!DOCTYPE svg PUBLIC "-//W3C//DTD SVG 1.1//EN" "http://www.w3.org/Graphics/SVG/1.1/DTD/svg11.dtd">
<svg width="100%" height="100%" viewBox="0 0 3099 846" version="1.1" xmlns="http://www.w3.org/2000/svg" xmlns:xlink="http://www.w3.org/1999/xlink" xml:space="preserve" xmlns:serif="http://www.serif.com/" style="fill-rule:evenodd;clip-rule:evenodd;stroke-linejoin:round;stroke-miterlimit:2;">
    <g transform="matrix(1,0,0,1,6531.9,-14248.7)">
        <g transform="matrix(5.75625,0,0,5.75625,-37159.7,14398.1)">
            <g>
                <path d="M5790.12,120.857L5761.3,120.857L5790.39,70.716L5748.96,-0.008L5777.97,-0.008C5786.94,15.094 5795.91,30.196 5804.89,45.298L5830.36,-0.008L5859.11,-0.008L5790.12,120.857ZM5346.25,0.131L5377.74,0.131L5377.74,24.382L5346.25,24.382C5346.25,36.189 5346.2,47.994 5346.25,59.799C5346.27,61.227 5346.37,62.655 5346.65,64.057C5346.83,64.953 5347.08,65.838 5347.44,66.681C5347.77,67.464 5348.19,68.212 5348.73,68.869C5348.99,69.185 5349.28,69.48 5349.6,69.745C5349.8,69.92 5350.02,70.081 5350.24,70.23C5351.64,71.165 5353.34,71.568 5355,71.697C5355.32,71.721 5355.63,71.736 5355.94,71.742C5356.35,71.749 5356.76,71.743 5357.17,71.724C5357.7,71.7 5358.22,71.655 5358.75,71.591C5359.43,71.507 5360.1,71.39 5360.77,71.243C5361.67,71.045 5362.55,70.792 5363.42,70.49C5363.82,70.353 5364.2,70.206 5364.59,70.049L5364.59,70.049C5364.59,70.049 5368.65,68.56 5373.58,65.056L5385.5,85.409L5383.06,87.251C5382.72,87.501 5382.72,87.501 5382.38,87.749C5381.45,88.412 5380.5,89.049 5379.53,89.648C5377.62,90.816 5375.63,91.847 5373.58,92.727C5371.41,93.657 5369.16,94.416 5366.88,94.997C5364.61,95.572 5362.3,95.972 5359.97,96.2C5357.93,96.399 5355.88,96.465 5353.84,96.411C5348.8,96.279 5343.73,95.404 5339.1,93.368C5338.33,93.029 5337.57,92.659 5336.83,92.257C5335.85,91.723 5334.89,91.133 5333.98,90.488C5332.89,89.723 5331.86,88.88 5330.9,87.967C5329.46,86.609 5328.17,85.096 5327.05,83.468C5326.44,82.581 5325.88,81.66 5325.36,80.713C5324.95,79.943 5324.57,79.155 5324.21,78.354C5322.05,73.428 5321.09,68.047 5320.85,62.696C5320.8,61.737 5320.78,60.778 5320.78,59.818L5320.78,-25.966L5346.25,-25.966L5346.25,0.131ZM5432.21,-1.657C5433.07,-1.649 5433.93,-1.626 5434.8,-1.581C5436.6,-1.486 5438.39,-1.303 5440.18,-1.027C5444.63,-0.34 5448.99,0.924 5453.1,2.762C5455.83,3.978 5458.44,5.443 5460.89,7.139C5463.56,8.982 5466.03,11.098 5468.27,13.446C5472.42,17.811 5475.71,22.971 5477.95,28.567C5479.15,31.586 5480.05,34.725 5480.64,37.922C5481.21,41.028 5481.49,44.185 5481.49,47.342C5481.49,51.023 5481.11,54.704 5480.34,58.303C5479.44,62.448 5478.02,66.477 5476.09,70.252C5473.85,74.638 5470.93,78.669 5467.45,82.154C5464.66,84.94 5461.53,87.374 5458.15,89.391C5454.87,91.345 5451.36,92.905 5447.72,94.047C5442.71,95.621 5437.46,96.398 5432.21,96.428C5426.33,96.462 5420.45,95.565 5414.89,93.667C5410.54,92.184 5406.41,90.095 5402.65,87.453C5398.47,84.517 5394.78,80.905 5391.76,76.791C5388.76,72.703 5386.43,68.135 5384.86,63.315C5383.24,58.373 5382.42,53.184 5382.36,47.987C5382.32,44.721 5382.58,41.45 5383.15,38.232C5383.75,34.833 5384.7,31.495 5386,28.295C5388.03,23.264 5390.93,18.587 5394.54,14.533C5396.82,11.971 5399.39,9.661 5402.17,7.654C5404.66,5.856 5407.33,4.302 5410.12,3.012C5414.39,1.039 5418.94,-0.309 5423.59,-1.027C5425.26,-1.286 5426.95,-1.464 5428.64,-1.563C5429.4,-1.607 5430.15,-1.634 5430.9,-1.649C5431.34,-1.655 5431.77,-1.658 5432.21,-1.657ZM5511.69,94.779L5486.1,94.779L5486.1,-0.008L5511.51,-0.008L5511.51,3.79C5511.7,3.679 5511.89,3.572 5512.09,3.464C5512.35,3.319 5512.35,3.319 5512.61,3.176C5513.14,2.897 5513.67,2.626 5514.21,2.369C5515.27,1.863 5516.36,1.407 5517.47,0.999C5522.64,-0.908 5528.18,-1.731 5533.69,-1.652C5537.58,-1.597 5541.47,-1.109 5545.24,-0.112C5549.99,1.146 5554.53,3.225 5558.5,6.139C5559.76,7.063 5560.96,8.069 5562.09,9.15C5562.65,9.689 5563.19,10.249 5563.72,10.822L5563.81,10.916C5563.91,10.805 5564.01,10.695 5564.12,10.585C5564.37,10.318 5564.37,10.318 5564.62,10.055C5565.14,9.538 5565.66,9.031 5566.2,8.543C5567.43,7.43 5568.74,6.403 5570.12,5.468C5574.59,2.428 5579.69,0.402 5584.97,-0.682C5587.06,-1.111 5589.19,-1.394 5591.32,-1.54C5592.25,-1.605 5593.19,-1.639 5594.13,-1.654L5594.51,-1.656L5594.56,-1.656L5594.64,-1.656L5594.71,-1.657L5594.77,-1.656C5595.04,-1.658 5595.32,-1.656 5595.59,-1.652C5599.48,-1.597 5603.38,-1.109 5607.14,-0.112C5609.43,0.492 5611.66,1.287 5613.81,2.273L5613.93,2.329L5613.99,2.357L5614.07,2.392L5614.12,2.418C5614.83,2.749 5615.52,3.101 5616.21,3.475C5619.42,5.226 5622.38,7.443 5624.93,10.068C5625.2,10.344 5625.46,10.624 5625.72,10.909C5625.82,10.8 5625.92,10.693 5626.02,10.585C5626.27,10.318 5626.27,10.319 5626.53,10.055C5627.04,9.538 5627.56,9.031 5628.11,8.543C5629.34,7.43 5630.65,6.403 5632.02,5.468C5636.58,2.367 5641.8,0.321 5647.19,-0.746C5649.18,-1.139 5651.2,-1.402 5653.22,-1.54C5653.71,-1.574 5654.2,-1.599 5654.69,-1.618L5654.78,-1.622L5654.96,-1.628L5654.98,-1.628L5655,-1.629L5655.3,-1.639L5655.62,-1.646L5655.68,-1.647L5655.71,-1.648L5655.82,-1.65L5655.88,-1.651L5656.03,-1.654L5656.18,-1.654L5656.33,-1.656L5656.58,-1.656L5656.61,-1.657L5656.64,-1.657L5656.85,-1.657L5657,-1.655L5657.19,-1.655L5657.33,-1.652L5657.37,-1.652L5657.72,-1.646C5657.88,-1.643 5658.03,-1.639 5658.18,-1.634L5658.25,-1.632L5658.37,-1.628L5658.46,-1.625L5658.55,-1.622C5659.51,-1.588 5660.47,-1.529 5661.44,-1.44C5664.23,-1.181 5667.02,-0.683 5669.72,0.08C5672.79,0.943 5675.76,2.149 5678.53,3.708C5681.58,5.42 5684.39,7.558 5686.83,10.067C5687.08,10.321 5687.32,10.579 5687.56,10.84C5687.64,10.755 5687.72,10.67 5687.8,10.585C5688.05,10.318 5688.05,10.319 5688.31,10.055C5688.82,9.538 5689.34,9.031 5689.88,8.543C5691.11,7.43 5692.43,6.403 5693.8,5.468C5698.36,2.367 5703.57,0.321 5708.97,-0.746C5710.96,-1.139 5712.97,-1.402 5714.99,-1.54C5715.93,-1.605 5716.87,-1.639 5717.81,-1.654C5718.19,-1.657 5718.58,-1.658 5718.97,-1.655C5720.38,-1.637 5721.8,-1.57 5723.21,-1.44C5726.01,-1.181 5728.79,-0.683 5731.5,0.08C5734.56,0.943 5737.53,2.149 5740.31,3.708C5743.36,5.42 5746.17,7.558 5748.61,10.067C5750.27,11.773 5751.75,13.646 5753.03,15.649C5754.69,18.233 5756.01,21.028 5756.98,23.939C5757.9,26.73 5758.51,29.623 5758.83,32.546C5759,34.113 5759.08,35.688 5759.09,37.264L5759.09,37.523L5759.09,94.779L5733.59,94.779C5733.59,77.011 5733.67,59.243 5733.59,41.475C5733.58,41.169 5733.58,41.169 5733.58,40.864C5733.56,40.275 5733.53,39.687 5733.48,39.1C5733.44,38.547 5733.38,37.995 5733.3,37.445C5732.89,34.564 5731.99,31.682 5730.29,29.292C5730.07,28.984 5729.84,28.686 5729.59,28.398C5729.13,27.857 5728.63,27.355 5728.09,26.897C5727.73,26.597 5727.36,26.315 5726.97,26.055C5724.73,24.542 5722.07,23.757 5719.4,23.43C5718.49,23.319 5717.58,23.259 5716.66,23.242C5715.07,23.211 5713.47,23.324 5711.91,23.622C5710.32,23.924 5708.77,24.409 5707.31,25.088C5705.53,25.91 5703.89,27.019 5702.49,28.386C5701.4,29.447 5700.46,30.658 5699.7,31.974C5698.93,33.321 5698.34,34.774 5697.93,36.274C5697.41,38.187 5697.19,40.163 5697.19,42.142L5697.19,94.779L5671.68,94.779C5671.68,77.011 5671.76,59.243 5671.68,41.475C5671.67,40.778 5671.65,40.082 5671.6,39.387C5671.56,38.828 5671.5,38.269 5671.43,37.713C5671.02,34.645 5670.08,31.563 5668.22,29.055C5667.98,28.729 5667.72,28.413 5667.45,28.111C5666.99,27.607 5666.5,27.14 5665.98,26.715C5664.78,25.748 5663.42,25.008 5661.98,24.475C5660.56,23.946 5659.06,23.615 5657.55,23.429C5656.65,23.319 5655.75,23.259 5654.84,23.242C5654.65,23.238 5654.47,23.236 5654.28,23.237C5652.89,23.242 5651.5,23.361 5650.13,23.622C5648.55,23.924 5646.99,24.409 5645.53,25.088C5643.76,25.91 5642.11,27.019 5640.71,28.386C5639.62,29.447 5638.69,30.658 5637.93,31.974C5637.15,33.321 5636.56,34.774 5636.15,36.274C5635.65,38.109 5635.43,40.002 5635.41,41.9L5635.41,94.779L5609.91,94.779C5609.91,77.011 5609.98,59.243 5609.91,41.475C5609.9,40.778 5609.87,40.082 5609.82,39.387C5609.78,38.828 5609.73,38.269 5609.65,37.713C5609.45,36.185 5609.12,34.652 5608.6,33.189L5608.58,33.144L5608.51,32.94L5608.47,32.843L5608.42,32.696L5608.36,32.556L5608.32,32.46L5608.25,32.279L5608.23,32.236C5607.79,31.171 5607.23,30.153 5606.55,29.213C5606.33,28.908 5606.1,28.612 5605.85,28.327C5605.39,27.79 5604.88,27.291 5604.34,26.838C5603.98,26.539 5603.6,26.26 5603.21,26.002C5600.98,24.523 5598.35,23.753 5595.72,23.43C5594.81,23.319 5593.9,23.259 5592.98,23.242C5592.81,23.238 5592.63,23.236 5592.45,23.237C5591.06,23.243 5589.68,23.362 5588.31,23.622C5586.65,23.938 5585.03,24.454 5583.51,25.183C5581.75,26.025 5580.12,27.154 5578.74,28.536C5577.64,29.639 5576.69,30.899 5575.94,32.265C5575.23,33.567 5574.68,34.96 5574.3,36.396C5573.81,38.27 5573.6,40.206 5573.59,42.142L5573.59,94.779L5548,94.779L5548,94.769C5548,77.005 5548.08,59.24 5548,41.476C5547.99,40.779 5547.97,40.082 5547.92,39.386C5547.88,38.827 5547.82,38.269 5547.75,37.713C5547.35,34.676 5546.42,31.626 5544.6,29.131C5544.34,28.778 5544.06,28.437 5543.77,28.111C5543.32,27.607 5542.82,27.14 5542.3,26.715C5541.02,25.681 5539.55,24.907 5538,24.366C5536.66,23.9 5535.27,23.602 5533.87,23.429C5532.97,23.319 5532.07,23.259 5531.16,23.242C5529.57,23.211 5527.97,23.324 5526.41,23.622C5524.82,23.924 5523.27,24.409 5521.81,25.088C5520,25.925 5518.33,27.061 5516.91,28.461C5515.75,29.609 5514.76,30.929 5513.98,32.364C5513.29,33.637 5512.77,34.996 5512.4,36.396C5511.9,38.269 5511.69,40.205 5511.69,42.14L5511.69,94.779ZM5431.92,22.798C5445.49,22.798 5456.51,33.816 5456.51,47.386C5456.51,60.956 5445.49,71.974 5431.92,71.974C5418.35,71.974 5407.34,60.956 5407.34,47.386C5407.34,33.816 5418.35,22.798 5431.92,22.798Z" style="fill:rgb(255,0,211);"/>
            </g>
        </g>
    </g>
</svg>
