<?xml version="1.0" encoding="UTF-8" standalone="no"?>
<!DOCTYPE svg PUBLIC "-//W3C//DTD SVG 1.1//EN" "http://www.w3.org/Graphics/SVG/1.1/DTD/svg11.dtd">
<svg width="100%" height="100%" viewBox="0 0 391 261" version="1.1" xmlns="http://www.w3.org/2000/svg" xmlns:xlink="http://www.w3.org/1999/xlink" xml:space="preserve" xmlns:serif="http://www.serif.com/" style="fill-rule:evenodd;clip-rule:evenodd;stroke-linejoin:round;stroke-miterlimit:2;">
    <g transform="matrix(1,0,0,1,-47340,-14172.8)">
        <g transform="matrix(1,0,0,1,-9033.41,2525.81)">
            <g transform="matrix(0.837089,0,0,0.837089,20047.1,3637.97)">
                <path d="M43427.1,9754.06L43396,9754.06L43396,9723L43427.1,9723L43427.1,9754.06ZM43427.1,9723L43427.1,9660.88L43458.1,9660.88L43458.1,9629.81L43489.2,9629.81L43489.2,9598.75L43520.2,9598.75L43520.2,9567.69L43582.4,9567.69L43582.4,9598.75L43613.4,9598.75L43613.4,9567.69L43675.6,9567.69L43675.6,9598.75L43706.6,9598.75L43706.6,9629.81L43737.7,9629.81L43737.7,9598.75L43768.8,9598.75L43768.8,9567.69L43861.9,9567.69L43861.9,9598.75L43830.9,9598.75L43830.9,9629.81L43799.8,9629.81L43799.8,9660.88L43768.8,9660.88L43768.8,9691.94L43706.6,9691.94L43706.6,9785.13L43675.6,9785.13L43675.6,9754.06L43644.5,9754.06L43644.5,9723L43520.2,9723L43520.2,9816.19L43551.3,9816.19L43551.3,9878.32L43520.2,9878.32L43520.2,9847.25L43489.2,9847.25L43489.2,9754.06L43458.1,9754.06L43458.1,9723L43427.1,9723ZM43458.1,9754.06L43458.1,9785.13L43427.1,9785.13L43427.1,9754.06L43458.1,9754.06ZM43644.5,9754.06L43644.5,9878.32L43613.4,9878.32L43613.4,9754.06L43644.5,9754.06ZM43427.1,9785.13L43427.1,9878.32L43396,9878.32L43396,9785.13L43427.1,9785.13ZM43737.7,9847.25L43768.8,9847.25L43768.8,9878.32L43737.7,9878.32L43737.7,9847.25ZM43706.6,9785.13L43737.7,9785.13L43737.7,9847.25L43706.6,9847.25L43706.6,9785.13Z"/>
            </g>
        </g>
    </g>
</svg>
