<?xml version="1.0" encoding="UTF-8" standalone="no"?>
<!DOCTYPE svg PUBLIC "-//W3C//DTD SVG 1.1//EN" "http://www.w3.org/Graphics/SVG/1.1/DTD/svg11.dtd">
<svg width="100%" height="100%" viewBox="0 0 162 11" version="1.1" xmlns="http://www.w3.org/2000/svg" xmlns:xlink="http://www.w3.org/1999/xlink" xml:space="preserve" xmlns:serif="http://www.serif.com/" style="fill-rule:evenodd;clip-rule:evenodd;stroke-linecap:round;stroke-miterlimit:50;">
    <g transform="matrix(1,0,0,1,-2828.95,-735.542)">
        <g transform="matrix(6.99014,0,0,5.39069,-16871.7,408.856)">
            <g transform="matrix(1,0,0,1,0,-5.41258)">
                <g transform="matrix(0.143059,0,0,0.185505,2405.67,-13.2939)">
                    <g>
                        <g transform="matrix(0.941909,0,0,0.941909,245.208,25.6798)">
                            <g transform="matrix(0.0243271,0,0,0.0393374,2601.51,-767.591)">
                                <g transform="matrix(1.76105,0,0,1.08907,2749.43,30462)">
                                    <g>
                                        <path d="M5511.69,94.779L5486.1,94.779L5486.1,-0.008L5511.51,-0.008L5511.51,3.79C5511.7,3.679 5511.89,3.572 5512.09,3.464C5512.35,3.319 5512.35,3.319 5512.61,3.176C5513.14,2.897 5513.67,2.626 5514.21,2.369C5515.27,1.863 5516.36,1.407 5517.47,0.999C5522.64,-0.908 5528.18,-1.731 5533.69,-1.652C5537.58,-1.597 5541.47,-1.109 5545.24,-0.112C5549.99,1.146 5554.53,3.225 5558.5,6.139C5559.76,7.063 5560.96,8.069 5562.09,9.15C5562.65,9.689 5563.19,10.249 5563.72,10.822L5563.81,10.916C5563.91,10.805 5564.01,10.695 5564.12,10.585C5564.37,10.318 5564.37,10.318 5564.62,10.055C5565.14,9.538 5565.66,9.031 5566.2,8.543C5567.43,7.43 5568.74,6.403 5570.12,5.468C5574.59,2.428 5579.69,0.402 5584.97,-0.682C5587.06,-1.111 5589.19,-1.394 5591.32,-1.54C5592.25,-1.605 5593.19,-1.639 5594.13,-1.654L5594.51,-1.656L5594.56,-1.656L5594.64,-1.656L5594.71,-1.657L5594.77,-1.656C5595.04,-1.658 5595.32,-1.656 5595.59,-1.652C5599.48,-1.597 5603.38,-1.109 5607.14,-0.112C5609.43,0.492 5611.66,1.287 5613.81,2.273L5613.93,2.329L5613.99,2.357L5614.07,2.392L5614.12,2.418C5614.83,2.749 5615.52,3.101 5616.21,3.475C5619.42,5.226 5622.38,7.443 5624.93,10.068C5625.2,10.344 5625.46,10.624 5625.72,10.909C5625.82,10.8 5625.92,10.693 5626.02,10.585C5626.27,10.318 5626.27,10.319 5626.53,10.055C5627.04,9.538 5627.56,9.031 5628.11,8.543C5629.34,7.43 5630.65,6.403 5632.02,5.468C5636.58,2.367 5641.8,0.321 5647.19,-0.746C5649.18,-1.139 5651.2,-1.402 5653.22,-1.54C5653.71,-1.574 5654.2,-1.599 5654.69,-1.618L5654.78,-1.622L5654.96,-1.628L5654.98,-1.628L5655,-1.629L5655.3,-1.639L5655.62,-1.646L5655.68,-1.647L5655.71,-1.648L5655.82,-1.65L5655.88,-1.651L5656.03,-1.654L5656.18,-1.654L5656.33,-1.656L5656.58,-1.656L5656.61,-1.657L5656.64,-1.657L5656.85,-1.657L5657,-1.655L5657.19,-1.655L5657.33,-1.652L5657.37,-1.652L5657.72,-1.646C5657.88,-1.643 5658.03,-1.639 5658.18,-1.634L5658.25,-1.632L5658.37,-1.628L5658.46,-1.625L5658.55,-1.622C5659.51,-1.588 5660.47,-1.529 5661.44,-1.44C5664.23,-1.181 5667.02,-0.683 5669.72,0.08C5672.79,0.943 5675.76,2.149 5678.53,3.708C5681.58,5.42 5684.39,7.558 5686.83,10.067C5687.08,10.321 5687.32,10.579 5687.56,10.84C5687.64,10.755 5687.72,10.67 5687.8,10.585C5688.05,10.318 5688.05,10.319 5688.31,10.055C5688.82,9.538 5689.34,9.031 5689.88,8.543C5691.11,7.43 5692.43,6.403 5693.8,5.468C5698.36,2.367 5703.57,0.321 5708.97,-0.746C5710.96,-1.139 5712.97,-1.402 5714.99,-1.54C5715.93,-1.605 5716.87,-1.639 5717.81,-1.654C5718.19,-1.657 5718.58,-1.658 5718.97,-1.655C5720.38,-1.637 5721.8,-1.57 5723.21,-1.44C5726.01,-1.181 5728.79,-0.683 5731.5,0.08C5734.56,0.943 5737.53,2.149 5740.31,3.708C5743.36,5.42 5746.17,7.558 5748.61,10.067C5750.27,11.773 5751.75,13.646 5753.03,15.649C5754.69,18.233 5756.01,21.028 5756.98,23.939C5757.9,26.73 5758.51,29.623 5758.83,32.546C5759,34.113 5759.08,35.688 5759.09,37.264L5759.09,37.523L5759.09,94.779L5733.59,94.779C5733.59,77.011 5733.67,59.243 5733.59,41.475C5733.58,41.169 5733.58,41.169 5733.58,40.864C5733.56,40.275 5733.53,39.687 5733.48,39.1C5733.44,38.547 5733.38,37.995 5733.3,37.445C5732.89,34.564 5731.99,31.682 5730.29,29.292C5730.07,28.984 5729.84,28.686 5729.59,28.398C5729.13,27.857 5728.63,27.355 5728.09,26.897C5727.73,26.597 5727.36,26.315 5726.97,26.055C5724.73,24.542 5722.07,23.757 5719.4,23.43C5718.49,23.319 5717.58,23.259 5716.66,23.242C5715.07,23.211 5713.47,23.324 5711.91,23.622C5710.32,23.924 5708.77,24.409 5707.31,25.088C5705.53,25.91 5703.89,27.019 5702.49,28.386C5701.4,29.447 5700.46,30.658 5699.7,31.974C5698.93,33.321 5698.34,34.774 5697.93,36.274C5697.41,38.187 5697.19,40.163 5697.19,42.142L5697.19,94.779L5671.68,94.779C5671.68,77.011 5671.76,59.243 5671.68,41.475C5671.67,40.778 5671.65,40.082 5671.6,39.387C5671.56,38.828 5671.5,38.269 5671.43,37.713C5671.02,34.645 5670.08,31.563 5668.22,29.055C5667.98,28.729 5667.72,28.413 5667.45,28.111C5666.99,27.607 5666.5,27.14 5665.98,26.715C5664.78,25.748 5663.42,25.008 5661.98,24.475C5660.56,23.946 5659.06,23.615 5657.55,23.429C5656.65,23.319 5655.75,23.259 5654.84,23.242C5654.65,23.238 5654.47,23.236 5654.28,23.237C5652.89,23.242 5651.5,23.361 5650.13,23.622C5648.55,23.924 5646.99,24.409 5645.53,25.088C5643.76,25.91 5642.11,27.019 5640.71,28.386C5639.62,29.447 5638.69,30.658 5637.93,31.974C5637.15,33.321 5636.56,34.774 5636.15,36.274C5635.65,38.109 5635.43,40.002 5635.41,41.9L5635.41,94.779L5609.91,94.779C5609.91,77.011 5609.98,59.243 5609.91,41.475C5609.9,40.778 5609.87,40.082 5609.82,39.387C5609.78,38.828 5609.73,38.269 5609.65,37.713C5609.45,36.185 5609.12,34.652 5608.6,33.189L5608.58,33.144L5608.51,32.94L5608.47,32.843L5608.42,32.696L5608.36,32.556L5608.32,32.46L5608.25,32.279L5608.23,32.236C5607.79,31.171 5607.23,30.153 5606.55,29.213C5606.33,28.908 5606.1,28.612 5605.85,28.327C5605.39,27.79 5604.88,27.291 5604.34,26.838C5603.98,26.539 5603.6,26.26 5603.21,26.002C5600.98,24.523 5598.35,23.753 5595.72,23.43C5594.81,23.319 5593.9,23.259 5592.98,23.242C5592.81,23.238 5592.63,23.236 5592.45,23.237C5591.06,23.243 5589.68,23.362 5588.31,23.622C5586.65,23.938 5585.03,24.454 5583.51,25.183C5581.75,26.025 5580.12,27.154 5578.74,28.536C5577.64,29.639 5576.69,30.899 5575.94,32.265C5575.23,33.567 5574.68,34.96 5574.3,36.396C5573.81,38.27 5573.6,40.206 5573.59,42.142L5573.59,94.779L5548,94.779L5548,94.769C5548,77.005 5548.08,59.24 5548,41.476C5547.99,40.779 5547.97,40.082 5547.92,39.386C5547.88,38.827 5547.82,38.269 5547.75,37.713C5547.35,34.676 5546.42,31.626 5544.6,29.131C5544.34,28.778 5544.06,28.437 5543.77,28.111C5543.32,27.607 5542.82,27.14 5542.3,26.715C5541.02,25.681 5539.55,24.907 5538,24.366C5536.66,23.9 5535.27,23.602 5533.87,23.429C5532.97,23.319 5532.07,23.259 5531.16,23.242C5529.57,23.211 5527.97,23.324 5526.41,23.622C5524.82,23.924 5523.27,24.409 5521.81,25.088C5520,25.925 5518.33,27.061 5516.91,28.461C5515.75,29.609 5514.76,30.929 5513.98,32.364C5513.29,33.637 5512.77,34.996 5512.4,36.396C5511.9,38.269 5511.69,40.205 5511.69,42.14L5511.69,94.779Z"/>
                                        <clipPath id="_clip1">
                                            <path d="M5511.69,94.779L5486.1,94.779L5486.1,-0.008L5511.51,-0.008L5511.51,3.79C5511.7,3.679 5511.89,3.572 5512.09,3.464C5512.35,3.319 5512.35,3.319 5512.61,3.176C5513.14,2.897 5513.67,2.626 5514.21,2.369C5515.27,1.863 5516.36,1.407 5517.47,0.999C5522.64,-0.908 5528.18,-1.731 5533.69,-1.652C5537.58,-1.597 5541.47,-1.109 5545.24,-0.112C5549.99,1.146 5554.53,3.225 5558.5,6.139C5559.76,7.063 5560.96,8.069 5562.09,9.15C5562.65,9.689 5563.19,10.249 5563.72,10.822L5563.81,10.916C5563.91,10.805 5564.01,10.695 5564.12,10.585C5564.37,10.318 5564.37,10.318 5564.62,10.055C5565.14,9.538 5565.66,9.031 5566.2,8.543C5567.43,7.43 5568.74,6.403 5570.12,5.468C5574.59,2.428 5579.69,0.402 5584.97,-0.682C5587.06,-1.111 5589.19,-1.394 5591.32,-1.54C5592.25,-1.605 5593.19,-1.639 5594.13,-1.654L5594.51,-1.656L5594.56,-1.656L5594.64,-1.656L5594.71,-1.657L5594.77,-1.656C5595.04,-1.658 5595.32,-1.656 5595.59,-1.652C5599.48,-1.597 5603.38,-1.109 5607.14,-0.112C5609.43,0.492 5611.66,1.287 5613.81,2.273L5613.93,2.329L5613.99,2.357L5614.07,2.392L5614.12,2.418C5614.83,2.749 5615.52,3.101 5616.21,3.475C5619.42,5.226 5622.38,7.443 5624.93,10.068C5625.2,10.344 5625.46,10.624 5625.72,10.909C5625.82,10.8 5625.92,10.693 5626.02,10.585C5626.27,10.318 5626.27,10.319 5626.53,10.055C5627.04,9.538 5627.56,9.031 5628.11,8.543C5629.34,7.43 5630.65,6.403 5632.02,5.468C5636.58,2.367 5641.8,0.321 5647.19,-0.746C5649.18,-1.139 5651.2,-1.402 5653.22,-1.54C5653.71,-1.574 5654.2,-1.599 5654.69,-1.618L5654.78,-1.622L5654.96,-1.628L5654.98,-1.628L5655,-1.629L5655.3,-1.639L5655.62,-1.646L5655.68,-1.647L5655.71,-1.648L5655.82,-1.65L5655.88,-1.651L5656.03,-1.654L5656.18,-1.654L5656.33,-1.656L5656.58,-1.656L5656.61,-1.657L5656.64,-1.657L5656.85,-1.657L5657,-1.655L5657.19,-1.655L5657.33,-1.652L5657.37,-1.652L5657.72,-1.646C5657.88,-1.643 5658.03,-1.639 5658.18,-1.634L5658.25,-1.632L5658.37,-1.628L5658.46,-1.625L5658.55,-1.622C5659.51,-1.588 5660.47,-1.529 5661.44,-1.44C5664.23,-1.181 5667.02,-0.683 5669.72,0.08C5672.79,0.943 5675.76,2.149 5678.53,3.708C5681.58,5.42 5684.39,7.558 5686.83,10.067C5687.08,10.321 5687.32,10.579 5687.56,10.84C5687.64,10.755 5687.72,10.67 5687.8,10.585C5688.05,10.318 5688.05,10.319 5688.31,10.055C5688.82,9.538 5689.34,9.031 5689.88,8.543C5691.11,7.43 5692.43,6.403 5693.8,5.468C5698.36,2.367 5703.57,0.321 5708.97,-0.746C5710.96,-1.139 5712.97,-1.402 5714.99,-1.54C5715.93,-1.605 5716.87,-1.639 5717.81,-1.654C5718.19,-1.657 5718.58,-1.658 5718.97,-1.655C5720.38,-1.637 5721.8,-1.57 5723.21,-1.44C5726.01,-1.181 5728.79,-0.683 5731.5,0.08C5734.56,0.943 5737.53,2.149 5740.31,3.708C5743.36,5.42 5746.17,7.558 5748.61,10.067C5750.27,11.773 5751.75,13.646 5753.03,15.649C5754.69,18.233 5756.01,21.028 5756.98,23.939C5757.9,26.73 5758.51,29.623 5758.83,32.546C5759,34.113 5759.08,35.688 5759.09,37.264L5759.09,37.523L5759.09,94.779L5733.59,94.779C5733.59,77.011 5733.67,59.243 5733.59,41.475C5733.58,41.169 5733.58,41.169 5733.58,40.864C5733.56,40.275 5733.53,39.687 5733.48,39.1C5733.44,38.547 5733.38,37.995 5733.3,37.445C5732.89,34.564 5731.99,31.682 5730.29,29.292C5730.07,28.984 5729.84,28.686 5729.59,28.398C5729.13,27.857 5728.63,27.355 5728.09,26.897C5727.73,26.597 5727.36,26.315 5726.97,26.055C5724.73,24.542 5722.07,23.757 5719.4,23.43C5718.49,23.319 5717.58,23.259 5716.66,23.242C5715.07,23.211 5713.47,23.324 5711.91,23.622C5710.32,23.924 5708.77,24.409 5707.31,25.088C5705.53,25.91 5703.89,27.019 5702.49,28.386C5701.4,29.447 5700.46,30.658 5699.7,31.974C5698.93,33.321 5698.34,34.774 5697.93,36.274C5697.41,38.187 5697.19,40.163 5697.19,42.142L5697.19,94.779L5671.68,94.779C5671.68,77.011 5671.76,59.243 5671.68,41.475C5671.67,40.778 5671.65,40.082 5671.6,39.387C5671.56,38.828 5671.5,38.269 5671.43,37.713C5671.02,34.645 5670.08,31.563 5668.22,29.055C5667.98,28.729 5667.72,28.413 5667.45,28.111C5666.99,27.607 5666.5,27.14 5665.98,26.715C5664.78,25.748 5663.42,25.008 5661.98,24.475C5660.56,23.946 5659.06,23.615 5657.55,23.429C5656.65,23.319 5655.75,23.259 5654.84,23.242C5654.65,23.238 5654.47,23.236 5654.28,23.237C5652.89,23.242 5651.5,23.361 5650.13,23.622C5648.55,23.924 5646.99,24.409 5645.53,25.088C5643.76,25.91 5642.11,27.019 5640.71,28.386C5639.62,29.447 5638.69,30.658 5637.93,31.974C5637.15,33.321 5636.56,34.774 5636.15,36.274C5635.65,38.109 5635.43,40.002 5635.41,41.9L5635.41,94.779L5609.91,94.779C5609.91,77.011 5609.98,59.243 5609.91,41.475C5609.9,40.778 5609.87,40.082 5609.82,39.387C5609.78,38.828 5609.73,38.269 5609.65,37.713C5609.45,36.185 5609.12,34.652 5608.6,33.189L5608.58,33.144L5608.51,32.94L5608.47,32.843L5608.42,32.696L5608.36,32.556L5608.32,32.46L5608.25,32.279L5608.23,32.236C5607.79,31.171 5607.23,30.153 5606.55,29.213C5606.33,28.908 5606.1,28.612 5605.85,28.327C5605.39,27.79 5604.88,27.291 5604.34,26.838C5603.98,26.539 5603.6,26.26 5603.21,26.002C5600.98,24.523 5598.35,23.753 5595.72,23.43C5594.81,23.319 5593.9,23.259 5592.98,23.242C5592.81,23.238 5592.63,23.236 5592.45,23.237C5591.06,23.243 5589.68,23.362 5588.31,23.622C5586.65,23.938 5585.03,24.454 5583.51,25.183C5581.75,26.025 5580.12,27.154 5578.74,28.536C5577.64,29.639 5576.69,30.899 5575.94,32.265C5575.23,33.567 5574.68,34.96 5574.3,36.396C5573.81,38.27 5573.6,40.206 5573.59,42.142L5573.59,94.779L5548,94.779L5548,94.769C5548,77.005 5548.08,59.24 5548,41.476C5547.99,40.779 5547.97,40.082 5547.92,39.386C5547.88,38.827 5547.82,38.269 5547.75,37.713C5547.35,34.676 5546.42,31.626 5544.6,29.131C5544.34,28.778 5544.06,28.437 5543.77,28.111C5543.32,27.607 5542.82,27.14 5542.3,26.715C5541.02,25.681 5539.55,24.907 5538,24.366C5536.66,23.9 5535.27,23.602 5533.87,23.429C5532.97,23.319 5532.07,23.259 5531.16,23.242C5529.57,23.211 5527.97,23.324 5526.41,23.622C5524.82,23.924 5523.27,24.409 5521.81,25.088C5520,25.925 5518.33,27.061 5516.91,28.461C5515.75,29.609 5514.76,30.929 5513.98,32.364C5513.29,33.637 5512.77,34.996 5512.4,36.396C5511.9,38.269 5511.69,40.205 5511.69,42.14L5511.69,94.779Z"/>
                                        </clipPath>
                                        <g clip-path="url(#_clip1)">
                                            <g transform="matrix(0.596662,0,0,0.596662,-2004.46,-18239.4)">
                                                <circle cx="12975.1" cy="30801.6" r="79.909" style="fill:none;stroke:black;stroke-width:0.75px;stroke-dasharray:0.37,3.73,0,0;stroke-dashoffset:0.75;"/>
                                            </g>
                                        </g>
                                    </g>
                                </g>
                                <g transform="matrix(1.27342,0,0,0.787508,-3429.83,6235.53)">
                                    <g transform="matrix(287.854,0,0,273.663,12816.2,30894.5)">
                                        <path d="M0.005,-0L0.157,-0L0.22,-0.102C0.23,-0.12 0.239,-0.137 0.247,-0.155L0.251,-0.155C0.256,-0.142 0.264,-0.124 0.276,-0.103L0.339,-0L0.495,-0L0.486,-0L0.324,-0.244L0.488,-0.479L0.338,-0.479L0.28,-0.378C0.271,-0.362 0.263,-0.345 0.256,-0.33L0.253,-0.33C0.246,-0.344 0.237,-0.366 0.227,-0.381L0.166,-0.479L0.015,-0.479L0.179,-0.242L0.005,-0Z" style="fill-rule:nonzero;"/>
                                    </g>
                                    <g transform="matrix(287.854,0,0,273.663,12952.1,30894.5)">
                                        <path d="M0.005,-0L0.157,-0L0.22,-0.102C0.23,-0.12 0.239,-0.137 0.247,-0.155L0.251,-0.155C0.256,-0.142 0.264,-0.124 0.276,-0.103L0.339,-0L0.495,-0L0.324,-0.244L0.488,-0.479L0.338,-0.479L0.28,-0.378C0.271,-0.362 0.263,-0.345 0.256,-0.33L0.253,-0.33C0.246,-0.344 0.237,-0.366 0.227,-0.381L0.166,-0.479L0.015,-0.479L0.179,-0.242L0.014,-0L0.005,-0Z" style="fill-rule:nonzero;"/>
                                    </g>
                                    <g transform="matrix(287.854,0,0,273.663,13077.4,30894.5)">
                                        <rect x="0.062" y="-0.479" width="0.135" height="0.479" style="fill-rule:nonzero;"/>
                                    </g>
                                </g>
                            </g>
                            <g transform="matrix(1,0,0,1,4.58126,0)">
                                <g transform="matrix(1.15095,0,0,1.15095,-337.004,-465.106)">
                                    <g transform="matrix(5.33146,0,0,5.33146,2831.01,781.769)">
                                        <path d="M0.048,-0.32C0.048,-0.096 0.137,0.056 0.249,0.168L0.317,0.107C0.213,-0.007 0.146,-0.141 0.146,-0.32C0.146,-0.498 0.213,-0.632 0.317,-0.746L0.249,-0.808C0.137,-0.696 0.048,-0.544 0.048,-0.32Z" style="fill-rule:nonzero;"/>
                                    </g>
                                    <g transform="matrix(5.33146,0,0,5.33146,2842.31,781.769)">
                                        <path d="M0.173,-0.398C0.17,-0.409 0.168,-0.422 0.168,-0.434C0.168,-0.495 0.202,-0.542 0.271,-0.542C0.336,-0.542 0.369,-0.5 0.369,-0.453C0.369,-0.408 0.347,-0.374 0.292,-0.341L0.185,-0.277C0.069,-0.207 0.033,-0.114 0.032,-0L0.512,-0L0.512,-0.119L0.201,-0.119C0.211,-0.144 0.232,-0.162 0.257,-0.178L0.382,-0.254C0.462,-0.303 0.508,-0.371 0.508,-0.455C0.508,-0.568 0.419,-0.664 0.274,-0.664C0.123,-0.664 0.037,-0.561 0.037,-0.447C0.037,-0.431 0.04,-0.411 0.042,-0.402L0.173,-0.398Z" style="fill-rule:nonzero;"/>
                                    </g>
                                    <g transform="matrix(5.33146,0,0,5.33146,2845.11,781.769)">
                                        <path d="M0.324,-0L0.324,-0.649L0.205,-0.649C0.192,-0.581 0.126,-0.528 0.031,-0.527L0.031,-0.434L0.187,-0.434L0.187,-0L0.324,-0Z" style="fill-rule:nonzero;"/>
                                    </g>
                                    <g transform="matrix(5.33146,0,0,5.33146,2847.11,781.769)">
                                        <path d="M0.269,-0.32C0.269,-0.544 0.181,-0.696 0.068,-0.808L0,-0.746C0.105,-0.632 0.171,-0.498 0.171,-0.32C0.171,-0.141 0.105,-0.007 0,0.107L0.068,0.168C0.181,0.056 0.269,-0.096 0.269,-0.32Z" style="fill-rule:nonzero;"/>
                                    </g>
                                </g>
                                <g transform="matrix(1.30043,0,0,1.30043,-952.454,-130.209)">
                                    <g>
                                        <g transform="matrix(0.108494,0,0,0.175437,1593.82,-4949.9)">
                                            <g transform="matrix(0.169421,0,-0.0448716,0.104774,13737.7,27941.7)">
                                                <rect x="1595.71" y="26138.1" width="149.087" height="36.857"/>
                                            </g>
                                            <g transform="matrix(0.156763,0.0261554,-0.044131,0.101157,13715.5,27986.8)">
                                                <path d="M1744.99,26138.8L1596.32,26140.6L1596.32,26177.5L1744.99,26175.6L1744.99,26138.8Z"/>
                                            </g>
                                            <g transform="matrix(0.156763,0.0261554,-0.044131,0.101157,13711.7,27991.7)">
                                                <path d="M1750.59,26138.1L1615.54,26135.6L1615.54,26172.5L1750.59,26175L1750.59,26138.1Z"/>
                                            </g>
                                            <g transform="matrix(0.156763,0.0261554,-0.044131,0.101157,13709.5,27997.6)">
                                                <path d="M1779.69,26129.7L1609.94,26127.4L1609.94,26164.2L1779.69,26166.5L1779.69,26129.7Z"/>
                                            </g>
                                            <g transform="matrix(0.856062,0,0,0.529406,1776.48,14315.1)">
                                                <path d="M12864.1,30914.2L12865.9,30907.6L12885.6,30916.2L12883.2,30925L12864.6,30916.8L12864.6,30932.7L12856.5,30932.7L12856.5,30898.7L12864.6,30898.7L12864.6,30910.1L12863.6,30913.7L12864.1,30914.2Z"/>
                                            </g>
                                        </g>
                                    </g>
                                </g>
                            </g>
                        </g>
                        <g transform="matrix(1,0,0,1,19.1991,0)">
                            <g>
                                <g transform="matrix(0.256971,0,0,0.256971,2603.1,377.573)">
                                    <path d="M1631.94,202.243C1625.04,202.243 1619.44,207.846 1619.44,214.747C1619.44,221.648 1625.04,227.251 1631.94,227.251C1631.94,227.251 1631.94,232.433 1631.94,232.433C1622.18,232.433 1614.26,224.508 1614.26,214.747C1614.26,204.985 1622.18,197.06 1631.94,197.06L1631.94,202.243Z"/>
                                </g>
                                <g transform="matrix(0.256971,0,0,0.256971,2603.1,377.573)">
                                    <path d="M1637.38,217.24C1638.53,222.948 1643.58,227.251 1649.63,227.251C1649.63,227.251 1649.63,232.433 1649.63,232.433C1639.87,232.433 1631.94,224.508 1631.94,214.747C1631.94,204.985 1639.87,197.06 1649.63,197.06L1649.63,202.243C1643.52,202.243 1638.42,206.638 1637.34,212.438L1649.63,212.438L1649.63,217.24L1637.38,217.24Z"/>
                                </g>
                            </g>
                            <g transform="matrix(0.00976877,0,0,0.00976877,3030.52,367.198)">
                                <g transform="matrix(0.604968,0,0,0.604968,15148.2,361.403)">
                                    <path d="M-28286.2,9610.91C-28280,9610.92 -28273.9,9610.99 -28267.7,9611.12C-28255.4,9611.4 -28243.1,9611.92 -28230.9,9612.7C-28197.4,9614.82 -28164.1,9618.84 -28131.1,9624.74C-28096.4,9630.93 -28062.2,9639.21 -28028.5,9649.51C-27994.4,9659.94 -27961,9672.45 -27928.5,9686.93C-27883.7,9706.88 -27840.5,9730.58 -27799.6,9757.69C-27757.9,9785.35 -27718.5,9816.55 -27682,9850.84C-27645.2,9885.39 -27611.4,9923.07 -27581,9963.35C-27550.7,10003.4 -27523.8,10046.1 -27500.8,10090.8C-27481.4,10128.3 -27464.7,10167.2 -27450.9,10207.1C-27437.4,10246.2 -27426.6,10286.4 -27418.8,10327.1C-27408,10382.7 -27402.7,10439.3 -27402.7,10495.9C-27402.7,10536.3 -27405.4,10576.8 -27410.9,10616.8C-27416.9,10660.9 -27426.3,10704.6 -27438.9,10747.2C-27452.1,10791.7 -27468.8,10835.2 -27488.8,10877C-27511.5,10924.4 -27538.4,10969.8 -27569.1,11012.4C-27600.2,11055.5 -27635.1,11095.8 -27673.3,11132.7C-27713.2,11171.2 -27756.7,11205.9 -27803,11236.3C-27848.5,11266.2 -27896.8,11291.9 -27947,11312.9C-28002.3,11336 -28060,11353.4 -28118.9,11364.8C-28174,11375.5 -28230.1,11380.8 -28286.2,11380.9C-28342.4,11381 -28398.6,11375.8 -28453.7,11365.3C-28512.6,11354.1 -28570.4,11336.9 -28625.8,11313.9C-28676.1,11293.1 -28724.5,11267.5 -28770.1,11237.8C-28816.5,11207.5 -28860.1,11172.9 -28900,11134.6C-28938.4,11097.8 -28973.4,11057.6 -29004.6,11014.6C-29035.5,10972 -29062.5,10926.8 -29085.3,10879.4C-29105.5,10837.7 -29122.3,10794.3 -29135.6,10749.8C-29148.4,10707.2 -29157.9,10663.7 -29164.1,10619.6C-29169.8,10578.6 -29172.7,10537.3 -29172.7,10495.9C-29172.7,10440.2 -29167.5,10384.5 -29157.1,10329.8C-29149.3,10289.1 -29138.7,10248.9 -29125.2,10209.6C-29111.6,10169.7 -29095,10130.7 -29075.8,10093.2C-29052.9,10048.4 -29026.1,10005.7 -28995.9,9965.47C-28965.4,9924.75 -28931.3,9886.66 -28894.3,9851.75C-28857.8,9817.41 -28818.5,9786.15 -28776.8,9758.43C-28735.9,9731.26 -28692.8,9707.5 -28648,9687.48C-28615.5,9672.95 -28582.1,9660.39 -28548.1,9649.92C-28514.5,9639.56 -28480.2,9631.23 -28445.6,9624.98C-28412.6,9619.03 -28379.3,9614.97 -28345.9,9612.79C-28333.6,9611.99 -28321.3,9611.45 -28309.1,9611.16C-28302.9,9611.01 -28296.7,9610.93 -28290.5,9610.91C-28289.1,9610.91 -28287.7,9610.9 -28286.2,9610.91ZM-28288.9,9723.82C-28305.5,9723.86 -28322,9724.4 -28338.5,9725.47C-28367.7,9727.37 -28396.8,9730.91 -28425.5,9736.1C-28455.7,9741.55 -28485.6,9748.81 -28514.9,9757.83C-28544.5,9766.97 -28573.6,9777.91 -28602,9790.57C-28642.8,9808.82 -28682,9830.64 -28719.1,9855.69C-28752.8,9878.44 -28784.6,9903.83 -28814.3,9931.56C-28847.9,9962.95 -28878.8,9997.34 -28906.3,10034.2C-28930.5,10066.5 -28952.1,10100.7 -28971,10136.4C-28989.2,10171 -29004.9,10207 -29017.6,10243.9C-29028.9,10276.6 -29038,10310 -29044.8,10343.8C-29054.7,10393.5 -29059.7,10444.1 -29059.7,10494.6C-29059.8,10531.2 -29057.3,10567.7 -29052.2,10603.9C-29046.5,10644.7 -29037.5,10685 -29025.4,10724.3C-29014.2,10760.2 -29000.4,10795.4 -28984.1,10829.4C-28963.3,10872.8 -28938.3,10914.2 -28909.8,10953C-28883.4,10988.8 -28854,11022.3 -28821.9,11053.1C-28787,11086.6 -28749,11116.8 -28708.4,11143.2C-28668.6,11169.1 -28626.5,11191.4 -28582.6,11209.6C-28535,11229.3 -28485.5,11244.2 -28435,11253.9C-28386.1,11263.4 -28336.2,11268.1 -28286.4,11268C-28237.4,11267.9 -28188.4,11263.2 -28140.3,11253.9C-28089,11244 -28038.8,11228.8 -27990.6,11208.7C-27946,11190.1 -27903.3,11167.2 -27863,11140.6C-27823.3,11114.4 -27786,11084.5 -27751.8,11051.5C-27718.9,11019.8 -27688.9,10985.2 -27662.1,10948.3C-27634.5,10910.2 -27610.4,10869.7 -27590.2,10827.2C-27573.5,10792.2 -27559.4,10755.8 -27548.2,10718.6C-27536.7,10680.3 -27528.2,10641.1 -27522.7,10601.5C-27517.8,10565.7 -27515.5,10529.6 -27515.6,10493.4C-27515.7,10468.7 -27516.9,10443.9 -27519.3,10419.3C-27521.9,10393.2 -27525.8,10367.2 -27531,10341.5C-27538.3,10305.7 -27548.1,10270.5 -27560.4,10236.1C-27572.9,10201.2 -27588,10167.1 -27605.4,10134.3C-27625.5,10096.6 -27648.6,10060.6 -27674.6,10026.8C-27700.9,9992.41 -27730.2,9960.26 -27761.9,9930.76C-27793.3,9901.5 -27827.1,9874.84 -27863,9851.17C-27898.7,9827.58 -27936.3,9806.96 -27975.5,9789.62C-28003.9,9777.04 -28033,9766.18 -28062.7,9757.14C-28092,9748.2 -28121.9,9741.03 -28152.1,9735.68C-28181.4,9730.5 -28210.9,9727.02 -28240.5,9725.24C-28256.6,9724.27 -28272.7,9723.81 -28288.9,9723.82Z" style="fill-rule:nonzero;"/>
                                </g>
                                <g transform="matrix(0.50309,0,0,0.50309,-421.267,5892.27)">
                                    <path d="M-3563.04,1774.3L-3563.04,1684.96L-3456.61,1684.96C-3433.25,1684.96 -3411.95,1704.89 -3411.95,1729.63C-3411.95,1754.37 -3431.87,1774.3 -3456.61,1774.3L-3563.04,1774.3ZM-3563.04,1571.58L-3563.04,1482.25L-3487.99,1482.25C-3463.25,1482.25 -3443.32,1502.17 -3443.32,1526.91C-3443.32,1551.65 -3463.25,1571.58 -3487.99,1571.58L-3563.04,1571.58ZM-3426.65,1885.62C-3344.87,1885.62 -3277.26,1816.21 -3277.26,1734.44C-3277.26,1687.71 -3300.62,1644.42 -3335.67,1616.25C-3315.74,1590.82 -3308.64,1558.52 -3308.64,1523.48C-3308.64,1441.02 -3378.73,1370.24 -3461.19,1370.24L-3698.41,1370.24L-3698.41,1885.62L-3426.65,1885.62Z" style="fill-rule:nonzero;"/>
                                </g>
                                <g transform="matrix(0.50309,0,0,0.50309,-403.025,5892.27)">
                                    <path d="M-3277.8,1504.24L-3171.35,1504.24L-3171.35,1885.62L-3035.98,1885.62L-3035.98,1504.24L-2931.38,1504.24L-2931.38,1369.55L-3277.8,1369.55L-3277.8,1504.24Z" style="fill-rule:nonzero;"/>
                                </g>
                                <g transform="matrix(0.50309,0,0,0.50309,11140.4,-152.375)">
                                    <path d="M-25400.3,13825.1C-25447,13871.8 -25511.6,13900.7 -25582.8,13900.7C-25725.2,13900.7 -25840.8,13785 -25840.8,13642.6C-25840.8,13500.2 -25725.2,13384.6 -25582.8,13384.6C-25511.6,13384.6 -25447,13413.5 -25400.3,13460.2L-25497.1,13556.9C-25519,13535 -25549.3,13521.4 -25582.8,13521.4C-25649.7,13521.4 -25704,13575.7 -25704,13642.6C-25704,13709.5 -25649.7,13763.9 -25582.8,13763.9C-25549.3,13763.9 -25519,13750.3 -25497.1,13728.3L-25400.3,13825.1Z"/>
                                </g>
                            </g>
                        </g>
                        <g transform="matrix(1.75486,0,0,1.75486,-2070.9,-919.437)">
                            <g transform="matrix(4.01172,0,0,4.01172,2823.79,771.957)">
                                <path d="M0.39,-0.716C0.321,-0.716 0.26,-0.701 0.207,-0.671C0.154,-0.64 0.112,-0.598 0.083,-0.543C0.053,-0.488 0.038,-0.426 0.038,-0.357C0.038,-0.287 0.053,-0.225 0.083,-0.17C0.112,-0.115 0.154,-0.073 0.207,-0.042C0.26,-0.011 0.321,0.004 0.39,0.004C0.459,0.004 0.52,-0.011 0.573,-0.042C0.626,-0.073 0.668,-0.115 0.698,-0.17C0.727,-0.225 0.742,-0.287 0.742,-0.357C0.742,-0.426 0.727,-0.488 0.698,-0.543C0.668,-0.598 0.626,-0.64 0.573,-0.671C0.52,-0.701 0.459,-0.716 0.39,-0.716ZM0.39,-0.662C0.449,-0.662 0.501,-0.649 0.546,-0.624C0.591,-0.599 0.625,-0.563 0.649,-0.517C0.673,-0.471 0.685,-0.418 0.685,-0.357C0.685,-0.296 0.673,-0.243 0.649,-0.196C0.625,-0.149 0.591,-0.113 0.546,-0.088C0.501,-0.062 0.449,-0.049 0.39,-0.049C0.33,-0.049 0.278,-0.062 0.234,-0.088C0.189,-0.113 0.155,-0.149 0.131,-0.196C0.107,-0.243 0.095,-0.296 0.095,-0.357C0.095,-0.418 0.107,-0.471 0.131,-0.517C0.155,-0.563 0.189,-0.599 0.234,-0.624C0.278,-0.649 0.33,-0.662 0.39,-0.662ZM0.394,-0.581C0.447,-0.581 0.493,-0.565 0.532,-0.534C0.571,-0.503 0.595,-0.46 0.604,-0.407L0.46,-0.407C0.455,-0.426 0.446,-0.44 0.433,-0.451C0.42,-0.462 0.404,-0.467 0.386,-0.467C0.362,-0.467 0.342,-0.458 0.327,-0.439C0.312,-0.42 0.304,-0.392 0.304,-0.356C0.304,-0.32 0.312,-0.292 0.327,-0.273C0.342,-0.254 0.362,-0.244 0.386,-0.244C0.404,-0.244 0.42,-0.249 0.433,-0.261C0.446,-0.272 0.455,-0.286 0.46,-0.304L0.604,-0.304C0.595,-0.251 0.571,-0.209 0.532,-0.178C0.493,-0.147 0.447,-0.131 0.394,-0.131C0.351,-0.131 0.312,-0.14 0.279,-0.158C0.245,-0.176 0.219,-0.202 0.2,-0.236C0.181,-0.27 0.171,-0.31 0.171,-0.356C0.171,-0.402 0.181,-0.442 0.2,-0.476C0.219,-0.51 0.245,-0.536 0.279,-0.554C0.312,-0.572 0.351,-0.581 0.394,-0.581Z" style="fill-rule:nonzero;"/>
                            </g>
                        </g>
                    </g>
                </g>
                <g transform="matrix(0.164654,0,0,0.213508,2353.02,-99.5735)">
                    <g transform="matrix(5.33146,0,0,5.33146,2831.01,781.769)">
                        <path d="M0.158,-0.405C0.157,-0.416 0.155,-0.428 0.155,-0.438C0.155,-0.505 0.192,-0.558 0.268,-0.558C0.341,-0.558 0.377,-0.51 0.377,-0.457C0.377,-0.41 0.352,-0.371 0.294,-0.335L0.187,-0.268C0.074,-0.198 0.035,-0.111 0.033,-0L0.502,-0L0.502,-0.106L0.181,-0.106C0.19,-0.138 0.216,-0.161 0.247,-0.18L0.373,-0.258C0.451,-0.306 0.498,-0.375 0.498,-0.459C0.498,-0.57 0.413,-0.663 0.27,-0.663C0.123,-0.663 0.039,-0.562 0.039,-0.45C0.039,-0.437 0.041,-0.422 0.042,-0.413L0.158,-0.405Z" style="fill-rule:nonzero;"/>
                    </g>
                    <g transform="matrix(5.33146,0,0,5.33146,2833.76,781.769)">
                        <path d="M0.164,-0.324C0.164,-0.406 0.178,-0.469 0.21,-0.509C0.232,-0.538 0.263,-0.557 0.31,-0.557C0.357,-0.557 0.387,-0.538 0.41,-0.509C0.441,-0.469 0.455,-0.406 0.455,-0.324C0.455,-0.242 0.441,-0.179 0.41,-0.139C0.387,-0.11 0.357,-0.091 0.31,-0.091C0.263,-0.091 0.232,-0.11 0.21,-0.139C0.179,-0.179 0.164,-0.242 0.164,-0.324ZM0.045,-0.324C0.045,-0.238 0.059,-0.157 0.103,-0.091C0.145,-0.028 0.213,0.015 0.31,0.015C0.407,0.015 0.474,-0.028 0.516,-0.091C0.56,-0.157 0.574,-0.238 0.574,-0.324C0.574,-0.41 0.56,-0.491 0.516,-0.557C0.474,-0.62 0.407,-0.663 0.31,-0.663C0.213,-0.663 0.145,-0.62 0.103,-0.557C0.059,-0.491 0.045,-0.41 0.045,-0.324Z" style="fill-rule:nonzero;"/>
                    </g>
                    <g transform="matrix(5.33146,0,0,5.33146,2836.95,781.769)">
                        <path d="M0.158,-0.405C0.157,-0.416 0.155,-0.428 0.155,-0.438C0.155,-0.505 0.192,-0.558 0.268,-0.558C0.341,-0.558 0.377,-0.51 0.377,-0.457C0.377,-0.41 0.352,-0.371 0.294,-0.335L0.187,-0.268C0.074,-0.198 0.035,-0.111 0.033,-0L0.502,-0L0.502,-0.106L0.181,-0.106C0.19,-0.138 0.216,-0.161 0.247,-0.18L0.373,-0.258C0.451,-0.306 0.498,-0.375 0.498,-0.459C0.498,-0.57 0.413,-0.663 0.27,-0.663C0.123,-0.663 0.039,-0.562 0.039,-0.45C0.039,-0.437 0.041,-0.422 0.042,-0.413L0.158,-0.405Z" style="fill-rule:nonzero;"/>
                    </g>
                    <g transform="matrix(5.33146,0,0,5.33146,2839.73,781.769)">
                        <path d="M0.303,-0L0.303,-0.648L0.199,-0.648C0.185,-0.58 0.121,-0.528 0.028,-0.526L0.028,-0.444L0.185,-0.444L0.185,-0L0.303,-0Z" style="fill-rule:nonzero;"/>
                    </g>
                    <g transform="matrix(5.33146,0,0,5.33146,2842.84,781.769)">
                        <path d="M0.011,-0.365L0.069,-0.365L0.069,-0.165C0.069,-0.061 0.109,0.007 0.229,0.007C0.257,0.007 0.295,0.002 0.323,-0.006L0.323,-0.116C0.306,-0.111 0.283,-0.108 0.265,-0.108C0.222,-0.108 0.205,-0.123 0.205,-0.179L0.205,-0.365L0.318,-0.365L0.318,-0.479L0.205,-0.479L0.205,-0.632L0.069,-0.632L0.069,-0.479L0.011,-0.479L0.011,-0.365Z" style="fill-rule:nonzero;"/>
                    </g>
                    <g transform="matrix(5.33146,0,0,5.33146,2844.52,781.769)">
                        <path d="M0.03,-0.24C0.03,-0.095 0.139,0.017 0.286,0.017C0.436,0.017 0.542,-0.099 0.542,-0.24C0.542,-0.385 0.437,-0.495 0.286,-0.495C0.14,-0.495 0.03,-0.388 0.03,-0.24ZM0.166,-0.239C0.166,-0.317 0.211,-0.375 0.286,-0.375C0.362,-0.375 0.405,-0.313 0.405,-0.239C0.405,-0.162 0.359,-0.103 0.286,-0.103C0.218,-0.103 0.166,-0.16 0.166,-0.239Z" style="fill-rule:nonzero;"/>
                    </g>
                    <g transform="matrix(5.33146,0,0,5.33146,2847.45,781.769)">
                        <path d="M0.062,-0L0.197,-0L0.197,-0.257C0.197,-0.332 0.233,-0.375 0.289,-0.375C0.339,-0.375 0.37,-0.33 0.37,-0.271L0.37,-0L0.505,-0L0.505,-0.257C0.505,-0.339 0.55,-0.375 0.597,-0.375C0.654,-0.375 0.678,-0.326 0.678,-0.271L0.678,-0L0.813,-0L0.813,-0.275C0.813,-0.418 0.742,-0.494 0.632,-0.494C0.56,-0.494 0.501,-0.451 0.477,-0.408C0.459,-0.452 0.408,-0.494 0.336,-0.494C0.275,-0.494 0.227,-0.462 0.197,-0.419L0.195,-0.419L0.195,-0.479L0.062,-0.479L0.062,-0Z" style="fill-rule:nonzero;"/>
                    </g>
                    <g transform="matrix(5.33146,0,0,5.33146,2851.99,781.769)">
                        <path d="M0.062,-0L0.197,-0L0.197,-0.257C0.197,-0.332 0.233,-0.375 0.289,-0.375C0.339,-0.375 0.37,-0.33 0.37,-0.271L0.37,-0L0.505,-0L0.505,-0.257C0.505,-0.339 0.55,-0.375 0.597,-0.375C0.654,-0.375 0.678,-0.326 0.678,-0.271L0.678,-0L0.813,-0L0.813,-0.275C0.813,-0.418 0.742,-0.494 0.632,-0.494C0.56,-0.494 0.501,-0.451 0.477,-0.408C0.459,-0.452 0.408,-0.494 0.336,-0.494C0.275,-0.494 0.227,-0.462 0.197,-0.419L0.195,-0.419L0.195,-0.479L0.062,-0.479L0.062,-0Z" style="fill-rule:nonzero;"/>
                    </g>
                    <g transform="matrix(5.33146,0,0,5.33146,2856.46,781.769)">
                        <path d="M0.474,-0.479L0.341,-0.479L0.274,-0.271C0.261,-0.229 0.252,-0.199 0.243,-0.153L0.239,-0.153C0.232,-0.192 0.218,-0.236 0.207,-0.271L0.138,-0.479L-0.002,-0.479L0.172,-0.004L0.084,0.235L0.212,0.235L0.474,-0.479Z" style="fill-rule:nonzero;"/>
                    </g>
                    <g transform="matrix(5.33146,0,0,5.33146,2858.75,781.769)">
                        <rect x="0.057" y="-0.152" width="0.162" height="0.152" style="fill-rule:nonzero;"/>
                    </g>
                    <g transform="matrix(5.33146,0,0,5.33146,2861.34,781.769)">
                        <path d="M0.538,-0.479L0.408,-0.479L0.408,-0.417L0.404,-0.417C0.378,-0.455 0.333,-0.492 0.258,-0.492C0.136,-0.492 0.03,-0.394 0.03,-0.24C0.03,-0.059 0.155,0.016 0.248,0.016C0.326,0.016 0.373,-0.019 0.404,-0.06L0.408,-0.06L0.408,-0L0.538,-0L0.538,-0.479ZM0.167,-0.239C0.167,-0.308 0.207,-0.377 0.291,-0.377C0.358,-0.377 0.41,-0.322 0.41,-0.238C0.41,-0.157 0.354,-0.101 0.29,-0.101C0.206,-0.101 0.167,-0.169 0.167,-0.239Z" style="fill-rule:nonzero;"/>
                    </g>
                    <g transform="matrix(5.33146,0,0,5.33146,2864.44,781.769)">
                        <rect x="0.062" y="-0.72" width="0.135" height="0.72" style="fill-rule:nonzero;"/>
                    </g>
                    <g transform="matrix(5.33146,0,0,5.33146,2865.71,781.769)">
                        <rect x="0.062" y="-0.72" width="0.135" height="0.72" style="fill-rule:nonzero;"/>
                    </g>
                    <g transform="matrix(5.33146,0,0,5.33146,2868.21,781.769)">
                        <path d="M0.381,-0.489C0.368,-0.492 0.356,-0.493 0.337,-0.493C0.273,-0.493 0.223,-0.452 0.197,-0.405L0.194,-0.405L0.194,-0.479L0.062,-0.479L0.062,-0L0.197,-0L0.197,-0.233C0.197,-0.319 0.237,-0.369 0.317,-0.369C0.344,-0.369 0.364,-0.366 0.381,-0.363L0.381,-0.489Z" style="fill-rule:nonzero;"/>
                    </g>
                    <g transform="matrix(5.33146,0,0,5.33146,2870.2,781.769)">
                        <path d="M0.062,-0L0.197,-0L0.197,-0.479L0.062,-0.479L0.062,-0ZM0.059,-0.579L0.201,-0.579L0.201,-0.708L0.059,-0.708L0.059,-0.579Z" style="fill-rule:nonzero;"/>
                    </g>
                    <g transform="matrix(5.33146,0,0,5.33146,2871.48,781.769)">
                        <path d="M0.539,-0.479L0.413,-0.479L0.413,-0.421L0.408,-0.421C0.384,-0.455 0.339,-0.494 0.263,-0.494C0.13,-0.494 0.031,-0.385 0.031,-0.241C0.031,-0.086 0.133,0.011 0.257,0.011C0.331,0.011 0.378,-0.02 0.41,-0.058L0.413,-0.058L0.413,0.003C0.413,0.096 0.371,0.147 0.29,0.147C0.22,0.147 0.186,0.111 0.176,0.065L0.041,0.065C0.059,0.184 0.148,0.257 0.282,0.257C0.459,0.257 0.539,0.163 0.539,-0.015L0.539,-0.479ZM0.168,-0.242C0.168,-0.309 0.21,-0.377 0.291,-0.377C0.359,-0.377 0.412,-0.323 0.412,-0.241C0.412,-0.162 0.357,-0.107 0.29,-0.107C0.206,-0.107 0.168,-0.176 0.168,-0.242Z" style="fill-rule:nonzero;"/>
                    </g>
                    <g transform="matrix(5.33146,0,0,5.33146,2874.58,781.769)">
                        <path d="M0.062,-0L0.197,-0L0.197,-0.253C0.197,-0.334 0.24,-0.375 0.299,-0.375C0.355,-0.375 0.389,-0.338 0.389,-0.267L0.389,-0L0.524,-0L0.524,-0.275C0.524,-0.423 0.449,-0.494 0.342,-0.494C0.288,-0.494 0.234,-0.472 0.201,-0.419L0.197,-0.419L0.197,-0.72L0.062,-0.72L0.062,-0Z" style="fill-rule:nonzero;"/>
                    </g>
                    <g transform="matrix(5.33146,0,0,5.33146,2877.53,781.769)">
                        <path d="M0.011,-0.365L0.069,-0.365L0.069,-0.165C0.069,-0.061 0.109,0.007 0.229,0.007C0.257,0.007 0.295,0.002 0.323,-0.006L0.323,-0.116C0.306,-0.111 0.283,-0.108 0.265,-0.108C0.222,-0.108 0.205,-0.123 0.205,-0.179L0.205,-0.365L0.318,-0.365L0.318,-0.479L0.205,-0.479L0.205,-0.632L0.069,-0.632L0.069,-0.479L0.011,-0.479L0.011,-0.365Z" style="fill-rule:nonzero;"/>
                    </g>
                    <g transform="matrix(5.33146,0,0,5.33146,2879.23,781.769)">
                        <path d="M0.395,-0.35C0.385,-0.434 0.326,-0.495 0.22,-0.495C0.117,-0.495 0.047,-0.438 0.047,-0.352C0.047,-0.277 0.094,-0.232 0.184,-0.203C0.256,-0.179 0.279,-0.159 0.279,-0.126C0.279,-0.098 0.258,-0.075 0.224,-0.075C0.18,-0.075 0.16,-0.102 0.157,-0.14L0.036,-0.14C0.041,-0.047 0.099,0.017 0.221,0.017C0.339,0.017 0.406,-0.049 0.406,-0.137C0.406,-0.206 0.369,-0.257 0.268,-0.29C0.187,-0.318 0.172,-0.335 0.172,-0.362C0.172,-0.383 0.189,-0.404 0.221,-0.404C0.251,-0.404 0.273,-0.384 0.276,-0.35L0.395,-0.35Z" style="fill-rule:nonzero;"/>
                    </g>
                    <g transform="matrix(5.33146,0,0,5.33146,2882.7,781.769)">
                        <path d="M0.381,-0.489C0.368,-0.492 0.356,-0.493 0.337,-0.493C0.273,-0.493 0.223,-0.452 0.197,-0.405L0.194,-0.405L0.194,-0.479L0.062,-0.479L0.062,-0L0.197,-0L0.197,-0.233C0.197,-0.319 0.237,-0.369 0.317,-0.369C0.344,-0.369 0.364,-0.366 0.381,-0.363L0.381,-0.489Z" style="fill-rule:nonzero;"/>
                    </g>
                    <g transform="matrix(5.33146,0,0,5.33146,2884.64,781.769)">
                        <path d="M0.276,-0.495C0.12,-0.495 0.03,-0.38 0.03,-0.243C0.03,-0.087 0.142,0.017 0.285,0.017C0.411,0.017 0.482,-0.053 0.513,-0.134L0.382,-0.134C0.361,-0.103 0.33,-0.084 0.286,-0.084C0.218,-0.084 0.162,-0.141 0.162,-0.207L0.518,-0.207C0.52,-0.22 0.52,-0.232 0.52,-0.243C0.52,-0.377 0.434,-0.495 0.276,-0.495ZM0.275,-0.401C0.338,-0.401 0.381,-0.355 0.387,-0.299L0.163,-0.299C0.168,-0.352 0.209,-0.401 0.275,-0.401Z" style="fill-rule:nonzero;"/>
                    </g>
                    <g transform="matrix(5.33146,0,0,5.33146,2887.48,781.769)">
                        <path d="M0.395,-0.35C0.385,-0.434 0.326,-0.495 0.22,-0.495C0.117,-0.495 0.047,-0.438 0.047,-0.352C0.047,-0.277 0.094,-0.232 0.184,-0.203C0.256,-0.179 0.279,-0.159 0.279,-0.126C0.279,-0.098 0.258,-0.075 0.224,-0.075C0.18,-0.075 0.16,-0.102 0.157,-0.14L0.036,-0.14C0.041,-0.047 0.099,0.017 0.221,0.017C0.339,0.017 0.406,-0.049 0.406,-0.137C0.406,-0.206 0.369,-0.257 0.268,-0.29C0.187,-0.318 0.172,-0.335 0.172,-0.362C0.172,-0.383 0.189,-0.404 0.221,-0.404C0.251,-0.404 0.273,-0.384 0.276,-0.35L0.395,-0.35Z" style="fill-rule:nonzero;"/>
                    </g>
                    <g transform="matrix(5.33146,0,0,5.33146,2889.72,781.769)">
                        <path d="M0.276,-0.495C0.12,-0.495 0.03,-0.38 0.03,-0.243C0.03,-0.087 0.142,0.017 0.285,0.017C0.411,0.017 0.482,-0.053 0.513,-0.134L0.382,-0.134C0.361,-0.103 0.33,-0.084 0.286,-0.084C0.218,-0.084 0.162,-0.141 0.162,-0.207L0.518,-0.207C0.52,-0.22 0.52,-0.232 0.52,-0.243C0.52,-0.377 0.434,-0.495 0.276,-0.495ZM0.275,-0.401C0.338,-0.401 0.381,-0.355 0.387,-0.299L0.163,-0.299C0.168,-0.352 0.209,-0.401 0.275,-0.401Z" style="fill-rule:nonzero;"/>
                    </g>
                    <g transform="matrix(5.33146,0,0,5.33146,2892.56,781.769)">
                        <path d="M0.381,-0.489C0.368,-0.492 0.356,-0.493 0.337,-0.493C0.273,-0.493 0.223,-0.452 0.197,-0.405L0.194,-0.405L0.194,-0.479L0.062,-0.479L0.062,-0L0.197,-0L0.197,-0.233C0.197,-0.319 0.237,-0.369 0.317,-0.369C0.344,-0.369 0.364,-0.366 0.381,-0.363L0.381,-0.489Z" style="fill-rule:nonzero;"/>
                    </g>
                    <g transform="matrix(5.33146,0,0,5.33146,2894.79,781.769)">
                        <path d="M0.467,-0.479L0.335,-0.479L0.267,-0.271C0.253,-0.229 0.244,-0.189 0.235,-0.143L0.231,-0.143C0.224,-0.182 0.212,-0.229 0.199,-0.271L0.133,-0.479L-0.007,-0.479L0.17,-0L0.29,-0L0.467,-0.479Z" style="fill-rule:nonzero;"/>
                    </g>
                    <g transform="matrix(5.33146,0,0,5.33146,2897.14,781.769)">
                        <path d="M0.276,-0.495C0.12,-0.495 0.03,-0.38 0.03,-0.243C0.03,-0.087 0.142,0.017 0.285,0.017C0.411,0.017 0.482,-0.053 0.513,-0.134L0.382,-0.134C0.361,-0.103 0.33,-0.084 0.286,-0.084C0.218,-0.084 0.162,-0.141 0.162,-0.207L0.518,-0.207C0.52,-0.22 0.52,-0.232 0.52,-0.243C0.52,-0.377 0.434,-0.495 0.276,-0.495ZM0.275,-0.401C0.338,-0.401 0.381,-0.355 0.387,-0.299L0.163,-0.299C0.168,-0.352 0.209,-0.401 0.275,-0.401Z" style="fill-rule:nonzero;"/>
                    </g>
                    <g transform="matrix(5.33146,0,0,5.33146,2899.98,781.769)">
                        <path d="M0.538,-0.72L0.406,-0.72L0.406,-0.424L0.402,-0.424C0.371,-0.465 0.329,-0.495 0.257,-0.495C0.136,-0.495 0.03,-0.393 0.03,-0.24C0.03,-0.059 0.155,0.017 0.247,0.017C0.322,0.017 0.373,-0.018 0.404,-0.052L0.408,-0.052L0.408,-0L0.538,-0L0.538,-0.72ZM0.167,-0.239C0.167,-0.308 0.208,-0.38 0.291,-0.38C0.358,-0.38 0.41,-0.322 0.41,-0.238C0.41,-0.157 0.354,-0.1 0.29,-0.1C0.207,-0.1 0.167,-0.169 0.167,-0.239Z" style="fill-rule:nonzero;"/>
                    </g>
                    <g transform="matrix(5.33146,0,0,5.33146,2903.09,781.769)">
                        <rect x="0.057" y="-0.152" width="0.162" height="0.152" style="fill-rule:nonzero;"/>
                    </g>
                </g>
            </g>
        </g>
    </g>
</svg>
